<?xml version="1.0" encoding="utf-8"?>
<!-- Generator: Adobe Illustrator 16.0.0, SVG Export Plug-In . SVG Version: 6.00 Build 0)  -->
<!DOCTYPE svg PUBLIC "-//W3C//DTD SVG 1.1//EN" "http://www.w3.org/Graphics/SVG/1.1/DTD/svg11.dtd">
<svg version="1.1" id="Layer_3" xmlns="http://www.w3.org/2000/svg" xmlns:xlink="http://www.w3.org/1999/xlink" x="0px" y="0px"
	 width="250px" height="250px" viewBox="0 0 250 250" enable-background="new 0 0 250 250" xml:space="preserve">
<path fill="#454548" stroke="#FFFFFF" stroke-width="1.4173" stroke-miterlimit="10" d="M125.391,22.994
	c-55.831,0-101.09,45.266-101.09,101.087c0,55.829,45.26,101.082,101.09,101.082c55.822,0,101.088-45.253,101.088-101.082
	C226.479,68.26,181.213,22.994,125.391,22.994z"/>
<g>
	<path fill="#FFFFFF" d="M71.404,105.56c-0.053,0.191-0.119,0.385-0.119,0.592v67.195h0.006c0,2.389,1.935,4.331,4.324,4.331h99.55
		c2.389,0,4.33-1.942,4.33-4.331v-67.195c0-0.207-0.059-0.401-0.118-0.592H71.404z"/>
	<path fill="#454548" d="M171.282,168.063c0,0.974-0.79,1.764-1.764,1.764H80.914c-0.981,0-1.765-0.79-1.765-1.764V112.02h92.133
		V168.063z"/>
</g>
<path fill="#FFFFFF" d="M92.162,82.679V69.023c0-1.401,1.132-2.54,2.533-2.54h2.87c1.402,0,2.534,1.139,2.534,2.54v13.656
	c0,1.402-1.132,2.537-2.534,2.537h-2.87C93.293,85.216,92.162,84.082,92.162,82.679z"/>
<path fill="#FFFFFF" d="M179.495,80.073v18.428H71.285V80.073c0-2.396,1.941-4.331,4.324-4.331h12.643v8.306
	c0,2.791,2.256,5.041,5.042,5.041h5.673c2.784,0,5.04-2.25,5.04-5.041v-8.306h42.984v8.306c0,2.791,2.256,5.041,5.04,5.041h5.673
	c2.784,0,5.036-2.25,5.036-5.041v-8.306h12.425C177.554,75.743,179.495,77.678,179.495,80.073z"/>
<path fill="#FFFFFF" d="M150.899,82.679V69.023c0-1.401,1.132-2.54,2.541-2.54h2.855c1.402,0,2.54,1.139,2.54,2.54v13.656
	c0,1.402-1.138,2.537-2.54,2.537h-2.855C152.031,85.216,150.899,84.082,150.899,82.679z"/>
</svg>
