<?xml version="1.0" encoding="utf-8"?>
<!-- Generator: Adobe Illustrator 16.0.0, SVG Export Plug-In . SVG Version: 6.00 Build 0)  -->
<!DOCTYPE svg PUBLIC "-//W3C//DTD SVG 1.1//EN" "http://www.w3.org/Graphics/SVG/1.1/DTD/svg11.dtd">
<svg version="1.1" id="Layer_3" xmlns="http://www.w3.org/2000/svg" xmlns:xlink="http://www.w3.org/1999/xlink" x="0px" y="0px"
	 width="250px" height="250px" viewBox="0 0 250 250" enable-background="new 0 0 250 250" xml:space="preserve">
<path fill="#FFFFFF" d="M226.479,124.494c0-55.799-45.248-101.04-101.051-101.04S24.385,68.695,24.385,124.494
	c0,55.806,45.241,101.046,101.044,101.046S226.479,180.3,226.479,124.494"/>
<path fill="#454548" d="M66.488,73.755h4.687v1.559h-4.687V73.755z M66.488,85.853h4.687v-1.565h-4.687V85.853z M66.488,96.391
	h4.687v-1.565h-4.687V96.391z M66.488,106.931h4.687v-1.56h-4.687V106.931z M66.488,117.469h4.687v-1.559h-4.687V117.469z
	 M184.376,151.432c0,16.382-13.282,29.67-29.665,29.67c-16.388,0-29.667-13.288-29.667-29.67c0-4.315,0.938-8.406,2.596-12.104
	H74.297V67.893h2.148v69.284h9.953V74.531h8.197v62.646h7.026V88.195h8.197v48.982h7.025V99.51h8.197v37.667h3.647
	c0.962-1.744,2.1-3.382,3.38-4.895V78.827h8.2v46.699c4.272-2.387,9.192-3.76,14.443-3.76
	C171.094,121.766,184.376,135.045,184.376,151.432z M169.302,132.742c-4.026-3.15-9.082-5.046-14.591-5.046
	c-13.112,0-23.737,10.625-23.737,23.735c0,12.361,9.454,22.499,21.523,23.617l2.214-23.617L169.302,132.742z"/>
</svg>
