<?xml version="1.0" encoding="utf-8"?>
<!-- Generator: Adobe Illustrator 16.0.0, SVG Export Plug-In . SVG Version: 6.00 Build 0)  -->
<!DOCTYPE svg PUBLIC "-//W3C//DTD SVG 1.1//EN" "http://www.w3.org/Graphics/SVG/1.1/DTD/svg11.dtd">
<svg version="1.1" id="Layer_3" xmlns="http://www.w3.org/2000/svg" xmlns:xlink="http://www.w3.org/1999/xlink" x="0px" y="0px"
	 width="250px" height="250px" viewBox="0 0 250 250" enable-background="new 0 0 250 250" xml:space="preserve">
<path fill="#454548" stroke="#FFFFFF" stroke-width="0.7087" stroke-miterlimit="10" d="M126.182,25.927
	c-55.266,0-100.072,44.81-100.072,100.071c0,55.269,44.806,100.072,100.072,100.072c55.266,0,100.075-44.803,100.075-100.072
	C226.257,70.737,181.447,25.927,126.182,25.927z"/>
<path fill="#FFFFFF" d="M98.958,101.219h55.008c0.443,0,0.796-0.355,0.796-0.795c0-0.443-0.353-0.795-0.796-0.795H98.958
	c-0.441,0-0.796,0.352-0.796,0.795C98.162,100.864,98.517,101.219,98.958,101.219z M98.958,110.085h55.008
	c0.443,0,0.796-0.358,0.796-0.798c0-0.439-0.353-0.795-0.796-0.795H98.958c-0.441,0-0.796,0.355-0.796,0.795
	C98.162,109.728,98.517,110.085,98.958,110.085z M174.893,114.621v-3.251c-0.032-1.557-1.225-2.964-2.989-3.016h-4.177V88.224
	V76.288c0-2.173-1.766-3.936-3.936-3.936H89.77c-2.174,0-3.935,1.763-3.935,3.936v11.936v11.724h-6.261
	c-0.965-0.006-1.87,0.273-2.515,0.899c-0.646,0.619-0.919,1.492-0.912,2.326v72.169c-0.007,0.749,0.248,1.506,0.782,2.032
	c0.521,0.528,1.244,0.764,1.935,0.764h0.026c0.035,0,0.24,0,0.57,0c0.153,0.253,0.329,0.487,0.557,0.676
	c0.645,0.558,1.53,0.831,2.547,0.831c1.635-0.003,76.223-0.003,90.178,0c0.007,0,0.007,0,0.013,0c1.043,0,1.937-0.315,2.549-0.944
	c0.612-0.628,0.918-1.527,0.918-2.576c0-11.559,0-56.467,0-58.252C176.209,116.667,175.694,115.49,174.893,114.621z
	 M167.727,110.737h4.177c0.13,0,0.273,0.062,0.41,0.202c0.13,0.134,0.198,0.333,0.195,0.43v1.949
	c-0.169-0.026-0.326-0.065-0.495-0.065c-0.362,0-1.955,0-4.287,0V110.737z M88.39,88.224h76.775v25.028c-8.687,0-23.082,0-28.243,0
	c-2.345-0.033-3.538,1.124-4.053,2.414c-0.137,0.322-0.397,0.951-0.71,1.69H98.958c-0.441,0-0.796,0.359-0.796,0.795
	c0,0.443,0.355,0.795,0.796,0.795h32.527c-0.491,1.167-0.967,2.297-1.183,2.802c-1.87,0-12.145,0-22.589,0
	c-7.289,0-14.659,0-19.324,0V88.224z M79.004,175.752c-0.061,0-0.101,0-0.114,0c-0.404-0.11-0.254,0.102-0.359-0.41v-72.169
	c0.007-0.375,0.095-0.518,0.187-0.612c0.097-0.091,0.31-0.228,0.857-0.231h6.261v19.42c-1.264,0-2.087,0-2.287,0
	c-2.684,0.006-4.537,2.055-4.544,4.669C79.004,127.692,79.004,164.729,79.004,175.752z M175.767,168.565h-96.31v-3.124h96.31
	V168.565z"/>
</svg>
