<?xml version="1.0" encoding="utf-8"?>
<!-- Generator: Adobe Illustrator 16.0.0, SVG Export Plug-In . SVG Version: 6.00 Build 0)  -->
<!DOCTYPE svg PUBLIC "-//W3C//DTD SVG 1.1//EN" "http://www.w3.org/Graphics/SVG/1.1/DTD/svg11.dtd">
<svg version="1.1" id="Layer_2" xmlns="http://www.w3.org/2000/svg" xmlns:xlink="http://www.w3.org/1999/xlink" x="0px" y="0px"
	 width="150px" height="150px" viewBox="0 0 150 150" enable-background="new 0 0 150 150" xml:space="preserve">
<path d="M132.821,65.167h-5.674c-1.388-6.778-4.063-13.084-7.748-18.664l4.021-4.022c1.444-1.442,2.169-3.347,2.164-5.24
	c0-1.893-0.72-3.8-2.164-5.239l-4.763-4.772l-0.752,0.753l0.749-0.753c-1.445-1.442-3.35-2.163-5.244-2.16
	c-1.895-0.003-3.8,0.718-5.24,2.163l-4.02,4.021c-5.584-3.684-11.89-6.36-18.666-7.747v-5.674c-0.006-4.084-3.33-7.408-7.414-7.412
	h-6.743c-4.085,0.004-7.412,3.328-7.414,7.412v5.676c-6.776,1.386-13.081,4.061-18.661,7.743l-4.029-4.021
	c-1.438-1.442-3.346-2.167-5.236-2.163c-1.895-0.004-3.805,0.721-5.24,2.163l-4.771,4.77c-1.442,1.442-2.164,3.347-2.161,5.239
	c-0.003,1.895,0.721,3.798,2.161,5.24l4.027,4.021c-3.686,5.582-6.363,11.889-7.75,18.668h-5.672
	c-4.088,0.003-7.412,3.33-7.416,7.414v6.739c0.004,4.087,3.332,7.408,7.416,7.414h5.672c1.387,6.779,4.063,13.084,7.748,18.664
	l-4.025,4.022c-1.442,1.442-2.164,3.347-2.161,5.241c-0.003,1.895,0.719,3.799,2.161,5.242l4.766,4.766
	c1.441,1.442,3.352,2.163,5.246,2.163c1.891,0,3.795-0.721,5.236-2.159l4.027-4.025c5.58,3.683,11.885,6.358,18.663,7.744v5.675
	c0.002,4.084,3.329,7.408,7.414,7.411h6.743c4.084-0.003,7.408-3.327,7.415-7.411l-0.001-5.675
	c6.776-1.386,13.082-4.062,18.666-7.746l4.02,4.023c1.443,1.439,3.348,2.16,5.243,2.16s3.798-0.721,5.241-2.16l4.766-4.766
	c1.444-1.446,2.164-3.352,2.164-5.246s-0.72-3.801-2.164-5.24l-4.02-4.02c3.684-5.581,6.361-11.887,7.746-18.664h5.674
	c4.081-0.002,7.407-3.327,7.409-7.414v-6.739C140.229,68.497,136.902,65.169,132.821,65.167z M109.677,28.733
	c1.022-1.027,2.373-1.54,3.734-1.54c1.359,0.003,2.715,0.513,3.74,1.54l4.768,4.771c1.027,1.028,1.542,2.376,1.542,3.736
	c-0.005,1.359-0.513,2.708-1.542,3.737l-3.748,3.75c-0.417-0.58-0.847-1.15-1.285-1.713c-0.016-0.021-0.033-0.041-0.048-0.061
	c-2.667-3.4-5.735-6.469-9.135-9.137c-0.021-0.018-0.044-0.034-0.064-0.051c-0.563-0.439-1.133-0.867-1.712-1.283L109.677,28.733z
	 M66.041,17.831c0.006-2.898,2.388-5.279,5.288-5.282h6.743c2.899,0.003,5.281,2.384,5.288,5.282v5.295
	c-1.375-0.223-2.766-0.389-4.174-0.506c-0.137-0.012-0.276-0.02-0.415-0.031c-0.549-0.041-1.097-0.084-1.653-0.107
	c-0.799-0.039-1.606-0.064-2.418-0.064c-0.812,0-1.617,0.025-2.419,0.064c-0.549,0.023-1.093,0.066-1.638,0.106
	c-0.145,0.012-0.291,0.021-0.434,0.033c-1.406,0.116-2.796,0.282-4.168,0.506V17.831z M31.23,44.721l-3.748-3.746
	c-1.028-1.027-1.537-2.379-1.541-3.738c0.004-1.361,0.513-2.709,1.541-3.733l4.77-4.773c1.025-1.026,2.371-1.54,3.736-1.54
	c1.358,0,2.707,0.514,3.734,1.54l3.752,3.749c-0.014,0.011-0.026,0.022-0.041,0.031c-0.551,0.398-1.096,0.807-1.631,1.225
	c-0.049,0.039-0.098,0.077-0.146,0.115c-2.815,2.211-5.399,4.695-7.718,7.417c-0.012,0.014-0.024,0.026-0.037,0.042
	c-0.432,0.51-0.854,1.027-1.269,1.555c-0.059,0.072-0.117,0.146-0.173,0.221c-0.401,0.515-0.793,1.035-1.176,1.563
	C31.269,44.672,31.248,44.697,31.23,44.721z M16.582,84.604c-2.902-0.006-5.282-2.381-5.286-5.285l-0.002-6.739
	c0.006-2.9,2.386-5.281,5.288-5.288h5.291c-0.227,1.389-0.392,2.798-0.509,4.221c-0.006,0.073-0.011,0.146-0.017,0.218
	c-0.048,0.614-0.096,1.229-0.123,1.848c-0.036,0.783-0.057,1.57-0.06,2.364c0,0.002,0,0.004,0,0.008l0,0
	c0,0.796,0.023,1.585,0.06,2.373c0.027,0.62,0.075,1.236,0.123,1.851c0.006,0.069,0.011,0.14,0.017,0.211
	c0.117,1.423,0.282,2.831,0.509,4.22H16.582z M43.474,119.417l-3.752,3.75c-1.027,1.024-2.378,1.537-3.734,1.537
	c-1.365,0-2.711-0.513-3.74-1.537l-4.766-4.77c-1.025-1.025-1.537-2.377-1.541-3.736c0.004-1.363,0.513-2.711,1.541-3.738
	l3.748-3.748c2.963,4.117,6.497,7.795,10.487,10.921c0.009,0.009,0.022,0.017,0.033,0.026c0.564,0.441,1.138,0.873,1.72,1.291
	C43.472,119.415,43.472,119.415,43.474,119.417z M83.359,134.066c-0.007,2.901-2.389,5.28-5.288,5.286h-6.743
	c-2.9-0.006-5.282-2.385-5.284-5.286l-0.004-5.295c1.365,0.223,2.748,0.388,4.146,0.503c0.166,0.016,0.332,0.025,0.497,0.039
	c0.532,0.039,1.063,0.08,1.601,0.104c0.799,0.038,1.604,0.062,2.414,0.062c0.811,0,1.618-0.023,2.417-0.062
	c0.539-0.024,1.075-0.065,1.609-0.104c0.163-0.014,0.322-0.023,0.481-0.039c1.401-0.115,2.785-0.28,4.153-0.503V134.066z
	 M118.171,107.173l3.748,3.746c1.027,1.027,1.542,2.379,1.542,3.738c0,1.361-0.513,2.711-1.542,3.742l-4.768,4.765
	c-1.025,1.024-2.378,1.537-3.737,1.54c-1.36-0.003-2.71-0.516-3.737-1.54l-3.746-3.747c0.024-0.018,0.049-0.037,0.074-0.057
	c0.528-0.38,1.047-0.771,1.559-1.17c0.077-0.06,0.154-0.119,0.229-0.179c0.523-0.413,1.041-0.833,1.547-1.263
	c0.02-0.016,0.036-0.031,0.055-0.047c2.723-2.319,5.205-4.906,7.418-7.722c0.031-0.04,0.064-0.082,0.098-0.124
	c0.428-0.548,0.845-1.105,1.253-1.67C118.166,107.183,118.168,107.179,118.171,107.173z M117.563,104.321l-0.414,0.606
	c-3.612,5.279-8.187,9.854-13.469,13.47l-0.604,0.41c-5.264,3.493-11.206,6.04-17.591,7.402v-0.01l-1.26,0.238
	c-2.319,0.435-4.688,0.73-7.097,0.852c-0.805,0.037-1.616,0.062-2.43,0.062c-0.813,0-1.623-0.024-2.43-0.062
	c-2.41-0.121-4.775-0.417-7.096-0.852l-1.259-0.235v0.006c-6.384-1.362-12.323-3.908-17.585-7.399l-0.605-0.412
	c-5.282-3.616-9.856-8.19-13.473-13.47l-0.412-0.603c-3.494-5.266-6.041-11.207-7.404-17.592h0.014l-0.236-1.262
	c-0.438-2.318-0.734-4.68-0.856-7.084c-0.037-0.807-0.063-1.62-0.063-2.437c0-0.82,0.025-1.631,0.063-2.44
	c0.122-2.406,0.419-4.768,0.856-7.086l0.232-1.258h-0.01c1.363-6.387,3.912-12.33,7.406-17.596l0.41-0.603
	c3.616-5.282,8.19-9.853,13.473-13.468l0.551-0.381c5.276-3.508,11.234-6.065,17.64-7.432V25.7l1.259-0.237
	c3.1-0.581,6.273-0.917,9.525-0.917c3.25,0,6.428,0.336,9.527,0.917l1.26,0.237v-0.014c6.368,1.359,12.296,3.897,17.549,7.377
	l0.645,0.44c5.283,3.612,9.854,8.187,13.471,13.468l0.437,0.643c3.479,5.254,6.018,11.184,7.379,17.553h-0.013l0.238,1.258
	c0.578,3.098,0.914,6.273,0.914,9.526c0,3.25-0.336,6.424-0.914,9.525l-0.238,1.258h0.013
	C123.602,93.116,121.055,99.058,117.563,104.321z M138.105,79.319c-0.007,2.904-2.386,5.279-5.284,5.285h-5.294
	c0.229-1.398,0.396-2.815,0.515-4.249c0.002-0.031,0.003-0.062,0.005-0.092c0.052-0.659,0.103-1.318,0.128-1.983
	c0.028-0.561,0.039-1.127,0.044-1.693c0.003-0.213,0.017-0.424,0.017-0.636c0-0.219-0.014-0.432-0.017-0.648
	c-0.007-0.562-0.016-1.125-0.044-1.682c-0.025-0.668-0.076-1.329-0.128-1.989c-0.002-0.029-0.003-0.057-0.005-0.085
	c-0.119-1.435-0.286-2.854-0.515-4.254h5.294c2.898,0.007,5.277,2.388,5.284,5.288V79.319z"/>
</svg>
