<?xml version="1.0" encoding="utf-8"?>
<!-- Generator: Adobe Illustrator 16.0.0, SVG Export Plug-In . SVG Version: 6.00 Build 0)  -->
<!DOCTYPE svg PUBLIC "-//W3C//DTD SVG 1.1//EN" "http://www.w3.org/Graphics/SVG/1.1/DTD/svg11.dtd">
<svg version="1.1" id="Layer_3" xmlns="http://www.w3.org/2000/svg" xmlns:xlink="http://www.w3.org/1999/xlink" x="0px" y="0px"
	 width="100px" height="100px" viewBox="0 0 100 100" enable-background="new 0 0 100 100" xml:space="preserve">
<g>
	<g>
		<g>
			<rect x="36.474" y="25.749" fill="#474F56" width="28.134" height="2.604"/>
		</g>
	</g>
	<g>
		<g>
			<rect x="36.474" y="40.646" fill="#474F56" width="28.134" height="2.615"/>
		</g>
	</g>
	<g>
		<g>
			<path fill="#474F56" d="M39.806,25.749v55.174H50.54V66.531h6.67v14.392h4.063V25.749H39.806z M44.45,37.346h-2.289v-7.83h2.289
				V37.346z M49.38,37.346h-2.294v-7.83h2.294V37.346z M54.016,37.346h-2.284v-7.83h2.284V37.346z M58.955,37.346h-2.3v-7.83h2.3
				V37.346z"/>
		</g>
	</g>
	<g>
		<g>
			<rect x="36.474" y="82.957" fill="#474F56" width="28.134" height="4.62"/>
		</g>
	</g>
	<g opacity="0.25">
		<g>
			<polygon fill="#474F56" points="36.474,38.259 9.65,42.908 9.65,25.259 36.474,29.908 			"/>
		</g>
	</g>
	<g opacity="0.25">
		<g>
			<polygon fill="#474F56" points="64.607,38.444 91.43,43.081 91.43,25.444 64.607,30.082 			"/>
		</g>
	</g>
	<g>
		<g>
			<path fill="#474F56" d="M50.54,15.543c-5.927,0-10.717,4.806-10.717,10.716h21.429C61.252,20.35,56.46,15.543,50.54,15.543z"/>
		</g>
	</g>
	<g>
		<g>
			<rect x="50.104" y="11.874" fill="#474F56" width="0.87" height="5.997"/>
		</g>
	</g>
</g>
</svg>
