<?xml version="1.0" encoding="utf-8"?>
<!-- Generator: Adobe Illustrator 16.0.0, SVG Export Plug-In . SVG Version: 6.00 Build 0)  -->
<!DOCTYPE svg PUBLIC "-//W3C//DTD SVG 1.1//EN" "http://www.w3.org/Graphics/SVG/1.1/DTD/svg11.dtd">
<svg version="1.1" id="Layer_1" xmlns="http://www.w3.org/2000/svg" xmlns:xlink="http://www.w3.org/1999/xlink" x="0px" y="0px"
	 width="421px" height="200px" viewBox="0 0 421 200" enable-background="new 0 0 421 200" xml:space="preserve">
<g>
	<path fill="#414142" d="M212.235,140.775c-0.011,0.081-0.014,0.18-0.026,0.265C212.288,141.307,212.306,141.262,212.235,140.775z"
		/>
	<path fill="#414142" d="M301.275,173.057c5.705,3.277,11.834,6.812,17.706,10.176c-0.963-2.333-1.868-4.601-2.852-4.994
		C307.989,174.955,303.863,173.757,301.275,173.057z"/>
	<path fill="#414142" d="M172.318,200.148h10.733c0.61-5.355,1.073-9.505,1.3-11.611
		C185.157,181.126,178.677,189.962,172.318,200.148z"/>
	<path fill="#414142" d="M157.247,148.309c0,0-0.157,0.155-0.411,0.391c5.595-5.174,10.149-10.754,10.149-10.754
		s-2.079,5.025-4.5,9.784c0.618-1.196,1.209-2.269,1.736-3.156c2.92-4.881-3.278,20.665-0.498,16.998
		c2.163-2.1,5.23,0.764,6.867-13.117c1.103-9.338,8.458-13.858,8.458-14.13c1.887-2.604,3.778-5.218,5.662-7.818
		c-3.39,1.218-3.275-0.771-10.6,4.071c-0.234,0.157-4.726-4.246-4.976-4.071c-8.503-3.909,3.538-23.465-4.254-17.601
		c-7.789,5.868-12.039,26.073-12.039,26.073c-3.071,1.521-10.384,6.953-13.454,8.475c-2.601,0.649-0.95-2.613-3.54-1.957
		c-3.07,1.957-25.265,23.463-28.336,25.418c0,0,23.376-37.154,10.625-27.372c-12.747,9.772-15.582,9.772-15.582,9.772
		c-4.485,2.171,1.518-2.893-2.97-0.721c-11.331,7.168-29.279,25.019-29.279,25.019c3.009-8.634,6.293-15.338,19.5-30.812
		c19.83-13.041,11.968-15.713,16.922-23.534c4.961-7.824,15.872-10.275,3.826-8.321c-8.311,3.675-10.674,15.74-11.922,15.173
		c-12.014,10.504-25.286,17.547-37.683,26.994c-15.364,14.306-28.923,27.441-41.803,40.615c-0.085,2.137-0.15,4.276-0.193,6.423
		h76.316c0.078-0.086,0.144-0.146,0.229-0.23c2.649-2.649,4.19-4.194,7.335-7.341c3.146-3.14,0-5.624,4.417-10.031
		c4.404-4.411,3.857-3.864,7.163-3.864c3.312,0,3.165,3.17,4.414,1.92c1.244-1.241,0-6.324,3.305-9.639
		c3.311-3.312,6.439-3.688,6.439-3.688C124.649,163.356,157.247,148.309,157.247,148.309z"/>
	<path fill="#414142" d="M291.464,96.416c1.53-0.218,3.058-0.681,4.407-1.55c4.491-2.894,10.587,0.144,20.269,5.004
		c2.701,1.357,5.674,2.844,8.982,4.396c0.105,0.047,0.203,0.098,0.313,0.146c-3.007-2.368-7.548-6.585-12.461-10.522
		c-6.6-5.287-13.875-10.068-19.057-9.232c-0.061,0.008-0.114,0.009-0.172,0.018c-6.369-3.193-12.157,1.599-12.157,1.599
		c1.164-3.55,0.58-1.238,1.736-4.792c0,0,1.138-1.306,2.367-2.397c0.759-0.673,1.548-1.265,2.127-1.416
		c-0.073-0.195-0.2-0.414-0.349-0.639c-1.682-2.545-7.948-6.644-10.511-8.785c-0.661-0.554-1.246-1.035-1.789-1.481
		c-4.711-3.856-5.657-4.272-11.645-10.205c-6.367,2.131-11.87-4.908-23.604-6.499c-10.422-5.86-1.923-3.911,3.447-4.597
		c-0.667-0.535-1.306-1.026-1.938-1.511c-1.854-1.407-3.584-2.595-5.189-3.593c-8.778-5.45-13.688-5.217-13.688-5.217
		c0,1.067-14.471-6.921-14.471-6.921c-9.6-0.679-7.917,1.59-14.476,2.122c0,0,8.312,3.063,16.413,2.532
		c2.451-0.06,5.121,3.911,8.5,7.395c2.789,2.871,9.327,4.585,9.211,6.36c-0.037,0.48-6.398-0.424-7.497-0.834
		c-7.521-2.661-7.768-7.229-7.768-7.229s-1.487-0.228-6.702-2.357c-5.205-2.134-12.469-4.186-12.469-4.186s7.84,16.438,6.107,18.567
		c-0.737,0.898-0.945,2.087-0.607,3.596c0.47,2.067,1.979,4.738,4.654,8.122c4.633,5.858-0.578,2.131-0.578,7.989
		s4.974,8.284,5.553,14.143c0.58,5.862-1.305-1.578-0.723,6.946c0.579,8.521-3.67,1.283-0.776,8.738
		c0.724,1.863-2.04,2.266-2.178,3.632c-0.41,4.106-0.99,8.166-3.158,16.555c-2.894,11.187,1.979-3.509,1.979-3.509
		s7.978-16.805,11.153-15.53c0.773,0.362,4.394-1.491,8.327,6.407c0.837,1.67,1.681,3.778,2.518,6.446
		c0.592,1.875,0.913,5.12,1.577,7.529c2.529,3.331,8.813,25.365,10.467,24.212c0.993-0.686,7.713,14.756,0.48-7.149
		c-0.211-0.648-0.395-3.599-1.882-7.052c-0.343-0.794,0.721-2.438,0.216-3.27c-4.174-6.89-4.568-11.356-4.488-13.048
		c0,0,0.045-0.119,0.051-0.38c3.319,6.64,10.985,15.747,10.098,20.009c0.469,4.998,2.105,20.115,2.574,25.112
		c0,0,8.755-21.854,4.508-2.954c0.283,31.415-4.152,12.65-4.958,22.16c-1.325,10.239,0.868,17.104,3.164,20.852h10.495h6.882
		c-1.156-3.606-1.545-7.07-1.545-7.07s0.325,0.193,0.859,0.559c1.45,0.994,4.417,3.292,6.392,6.512h9.903
		c-3.971-8.332-7.041-14.825-8.891-17.211c-6.27-8.048-10.534-23.015-12.017-26.795c-0.377-0.552-0.56-0.877-0.492-0.893
		c0.1-0.017,0.262,0.313,0.492,0.893c2.153,3.168,10.824,14.091,17.162,20.936c3.388,3.653,7.197,7.131,12.758,9.524
		c17.682,7.6,14,4.63,20.762,13.546h12.999c-0.546-1.561-0.915-2.555-0.915-2.555l-42.725-36.461
		c-0.403-0.228-0.825-0.467-1.289-0.738c-7.789-4.56,7.791,2.608-10.625-18.9c-6.075-6.724-11.694-7.389-15.734-10.258
		c-8.89-6.304-21.637-21.724-21.271-21.724c-0.043,0.211-0.061,0.439-0.068,0.677c-0.594-1.173-1.429-2.589-2.567-4.254
		c-0.104-0.154-0.202-0.298-0.307-0.46c-1.095-1.506-3.179-2.564-4.329-4.254c-1.146-1.691-1.366-4.019-2.395-5.248
		c-0.705-0.672-0.311,3.37-1.879,3.295c-1.064-0.05-4.2-4.118-4.729-4.666c-2.188-2.237-0.97-6.077-1.804-8.38
		c-1.986-4.503-9.484-18.682-7.764-18.705c0.782-0.008,9.296,10.333,10.453,12.049c0.398,0.59-1.309,2.349-0.788,3.689
		c4.799,1.418,9.096,1.422,6.329,6.034c0.214,0.447,4.542-0.872,5.548-0.263c1.081,0.657,1.605,2.86,3.37,4.164
		c1.336,1.126,2.527,2.103,3.579,2.956c9.444,7.625,8.237,5.121,8.237,5.121c0,0.149,5.886,4.247,11.635,9.036
		c1.916,1.596,14.477,26.464,16.5,26.847c8.102,2.134-10.414-10.143,0.004-4.819c2.823,1.334,5.69-7.773,11.02,0.717
		c3.309,5.274,3.037,9.49,5.941,12.592c3.833,4.095,21.396,19.446,24.342,21.312c3.216,2.036,2.357-0.016,0.673-2.429
		c0.416,0.275,0.808,0.568,1.241,0.832c7.08,5.207,7.883,4.161,7.883,4.161c3.071,3.475,6.14,6.952,9.212,10.426
		c0,0,7.717-1.357,14.8,5.155c5.674,1.781,11.652,6.078,16.524,10.491c-7.278-8.296-12.147-16.316-12.147-16.316l-23.887-6.406
		l-11.94-18.315c0,0,0.993-1.834-7.963-12.824c-8.148-10.002-17.373-23.409-18.961-25.735c-2.207-1.102-3.967-1.583-4.986-1.074
		c-2.69-1.367-3.893-1.707-4.283-1.546c-0.341-0.27-0.681-0.527-1.036-0.736c-1.884-1.145-4.537-6.035-3.373,1.034
		c-5.784-3.73-6.696-2.893-12.482-6.623c-5.789-3.73-6.368-5.324-6.368-5.324c-4.246-1.778-8.489-3.552-12.733-5.326
		c-2.635-1.283-5.265-2.565-7.896-3.848c-0.645-0.316-1.295-0.633-1.944-0.945c-1.543-3.02-3.089-6.041-4.629-9.059
		c-2.896-2.662-5.793-5.322-8.689-7.986c0,0-1.728-5.327-1.728-12.785c0-4.467-2.08-6.074-4.497-8.585
		c-1.613-1.679-3.374-3.76-4.766-7.392c-3.146-8.2,2.245,1.063,8.019,7.239c0.605,0.644,1.218,1.262,1.816,1.814
		c6.374,5.86,6.95,10.12,6.95,10.12s2.164,0.479,6.697,3.73c1.264,0.907,2.708,2.024,4.356,3.423
		c2.021,1.715,4.498,3.303,6.893,4.617c6.521,3.586,12.445,5.195,6.944,2.079c-7.525-4.26-6.365-6.923-13.311-11.717
		c-6.951-4.793,4.632-3.194,13.311,3.195c8.682,6.391,4.626-0.532,15.047,7.458c10.419,7.987-5.788,6.393,0,11.185
		c2.592,2.149,3.443,3.655,4.686,5.145c1.535,1.83,3.656,3.634,10.363,6.571c1.729,0.759,3.644,1.777,5.643,2.957
		c8.563,5.047,18.766,13.135,23.925,17.361c0.878,1.392,1.67,2.651,2.076,3.226c0.021,0.035,0.038,0.064,0.063,0.101
		c5.657,8.058,7.669,11.814,7.316,12.856c3.168,3.008,5.831,6.109,7.483,9.152c-0.832-0.252,2.122,2.82,16.4,8.383
		c3.293,1.281,3.362,8.246,8.481,9.017c8.936,1.344,13.591,2.088,16.187,2.736c2.496,0.628,3.078,1.177,3.674,2.097
		c3.813,2.086,7.441,3.845,10.55,5.38c0.08-1.397-0.904-3.769-3.657-7.244c-3.357-4.232-9.791-10.978-16.151-17.478
		c-7.741-7.903-15.35-15.415-17.201-17.588c-3.978-3.595-8.342-7.566-13.571-12.272C318.513,113.613,303.756,101.506,291.464,96.416
		z M282.169,95.334c0.017,0.019,0.047,0.035,0.064,0.061C282.046,95.321,282,95.288,282.169,95.334z"/>
	<path fill="#414142" d="M359.107,197.84c-0.675-0.686-3.028-0.373-6.459-1.601c-3.16-1.135-1.619-0.535-9.101-1.709
		c-1.193-0.184-3.278-0.332-6.569-1.018c4.15,2.332,7.39,4.114,9.126,4.994c1.182,0.604,2.229,1.14,3.196,1.642h12.119
		C360.692,199.431,359.922,198.665,359.107,197.84z"/>
	<path fill="#414142" d="M222.827,194.226c-2.307-3.757-4.282-7.183-5.104-9.456c4.124-7.319,0.721-11.44-3.257-16.634
		c-3.024-8.293-3.212-18.134-2.257-25.434c-0.56-1.984-4.527-21.862-5.271-15.687c1.251,5.447,5.646,11.423-2.497,18.605
		c-0.407,0.362-0.841,0.723-1.316,1.088c-5.534-1.006-12.587,2.422-16.038,4.926c-10.362,7.518-10.876,15.279-10.876,15.279
		s-6.369-3.258-16.284,6.515c-9.921,9.778-16.294,16.946-16.294,16.946c0.333,0,11.463-28.175,18.383-41.746
		c-1.045,2.011-2.135,3.915-3.136,5.291c-3.47,4.79-17.357,18.106-17.357,18.106s-0.581,4.263-5.792,17.045
		c-2.189,5.377-4.485,8.299-7.137,11.077h33.186c2.8-2.008,7.138-6.577,14.471-16.402c12.323-16.513,15.628-22.374,15.628-22.374
		c1.157,1.068,4.631,9.059,4.631,9.059l-0.58,12.779c0,0,1.741,8.524-0.578,14.917c-0.222,0.614-0.288,1.286-0.236,2.021h13.941
		h2.337h3.67h6.573h4.888c-0.052-0.086-0.105-0.166-0.153-0.248C225.169,197.991,223.955,196.068,222.827,194.226z"/>
	<path fill="#414142" d="M112.527,186.095c-1.438,1.753-3.921,4.987-4.951,7.806c-1.057,2.909-1.8,4.708-2.791,6.248h5.626
		c1.239-1.599,3.422-4.225,4.465-8.252c0.118-0.452,0.198-0.85,0.268-1.225c-0.208-1.047-0.313-2.466-0.552-3.586
		C113.776,186.261,112.529,186.505,112.527,186.095z"/>
	<path fill="#414142" d="M402.951,169.205c-14.132-11.67-51.147-36.069-59.852-38.239c-0.146-0.032,0.016,0.208,0.383,0.645
		c5.104,4.614,9.57,8.609,14.418,12.752c5.177,4.425,8.08,11.528,20.292,12.727c2.896,1.873,22.021,12.021,23.402,12.482
		C402.866,169.997,403.246,169.837,402.951,169.205z"/>
</g>
</svg>
