<?xml version="1.0" encoding="utf-8"?>
<!-- Generator: Adobe Illustrator 16.0.0, SVG Export Plug-In . SVG Version: 6.00 Build 0)  -->
<!DOCTYPE svg PUBLIC "-//W3C//DTD SVG 1.1//EN" "http://www.w3.org/Graphics/SVG/1.1/DTD/svg11.dtd">
<svg version="1.1" id="Layer_2" xmlns="http://www.w3.org/2000/svg" xmlns:xlink="http://www.w3.org/1999/xlink" x="0px" y="0px"
	 width="150px" height="150px" viewBox="0 0 150 150" enable-background="new 0 0 150 150" xml:space="preserve">
<path fill="#706F6F" d="M136.439,60.903V60.07c-0.002-0.484-0.104-0.942-0.26-1.373c-0.568-1.56-2.048-2.682-3.803-2.688h-3.05
	v-9.087l-0.618-0.619L96.336,13.931l-0.492-0.492h-0.572v-0.001H21.368v42.574h-3.052c-1.692,0.002-3.14,1.045-3.749,2.52
	c-0.193,0.473-0.306,0.988-0.308,1.529c0,0.003-0.001,0.006-0.001,0.009h0.001v75.879c0.004,1.498,0.818,2.807,2.029,3.509
	c0.172,0.101,0.354,0.188,0.542,0.263c0.214,0.084,0.438,0.15,0.669,0.198c0.267,0.054,0.538,0.083,0.818,0.083H132.38
	c2.233-0.003,4.054-1.816,4.06-4.053V60.903L136.439,60.903z M129.33,58.139h3.048c1.054,0.002,1.933,0.878,1.933,1.932v0.17
	l-0.199,0.165l-4.78,3.944L129.33,58.139L129.33,58.139z M125.7,46.302H96.336V16.94L125.7,46.302z M23.499,15.568h70.708v32.863
	h32.996v17.674l-0.135,0.109L89.954,96.842l-1.675,1.381l-9.203,7.596c-0.948,0.781-2.251,1.201-3.573,1.201
	c-1.319,0-2.624-0.42-3.567-1.196l-9.49-7.824L60.77,96.62l-0.002-0.002L26.121,68.055l-2.622-2.162V15.568z M16.387,62.788
	l4.98,4.108l0.903,0.745l1.224,1.009v-0.001l35.588,29.333L16.387,132.47V62.788z M18.316,58.139h3.052v5.996l-4.979-4.104
	C16.412,58.992,17.275,58.139,18.316,58.139z M134.313,135.949c-0.004,1.047-0.879,1.926-1.932,1.926H18.318
	c-1.054,0-1.927-0.877-1.931-1.926v-0.746l44.369-35.84l9.825,8.1l0.678-0.82l-0.678,0.823c1.393,1.14,3.165,1.679,4.922,1.679
	s3.533-0.539,4.924-1.685l9.546-7.877l44.338,35.629v0.737H134.313z M91.646,98.202l36.43-30.06l1.252-1.034l1.887-1.557L134.309,63
	l0.004,69.482L91.646,98.202z"/>
</svg>
