<?xml version="1.0" encoding="utf-8"?>
<!-- Generator: Adobe Illustrator 16.0.0, SVG Export Plug-In . SVG Version: 6.00 Build 0)  -->
<!DOCTYPE svg PUBLIC "-//W3C//DTD SVG 1.1//EN" "http://www.w3.org/Graphics/SVG/1.1/DTD/svg11.dtd">
<svg version="1.1" id="Layer_1" xmlns="http://www.w3.org/2000/svg" xmlns:xlink="http://www.w3.org/1999/xlink" x="0px" y="0px"
	 width="140px" height="140px" viewBox="0 0 140 140" enable-background="new 0 0 140 140" xml:space="preserve">
<path fill="#FFFFFF" d="M49.615,66.281c3.723-3.121,3.762-3.32,7.281-5c1.32-0.641,5.281,1.039,5.281,1.039s6,1.199,8.838,1.199
	c1.203,0,2.281-0.52,3.117-1.082c-4.357,4.16-15.518,7.441-19.115,16.043c-3.402,8.238-2.961,16.84-2.602,20.48h43.803
	c-0.523-3.281-0.766-11.203,4.398-24.121c7.039-17.68,6.602-26.441-4.922-41.16c-5.68-7.242-13.398-9.242-19.797-9.398
	c-4.563-4.523-13.682-4.922-13.682-4.922L64.256,27l0.16,3l-7.961,3.238c0,0-2.84,0.68-2.84,3.199
	c0,2.363-16.48,15.121-18.199,16.043c0.242,0.641-0.359,6.039-0.359,8.078c0,2.281,2.281,3.602,2.281,3.602l2.84,1.559
	C40.178,65.719,46.096,69.281,49.615,66.281z M35.295,52.52c-0.039,0.039,0,0.039,0.121-0.039
	C35.377,52.398,35.338,52.398,35.295,52.52z M99.055,111.359v-8H47.057v8h-8v12h67.998v-12H99.055z"/>
</svg>
