<?xml version="1.0" encoding="utf-8"?>
<!-- Generator: Adobe Illustrator 16.0.0, SVG Export Plug-In . SVG Version: 6.00 Build 0)  -->
<!DOCTYPE svg PUBLIC "-//W3C//DTD SVG 1.1//EN" "http://www.w3.org/Graphics/SVG/1.1/DTD/svg11.dtd">
<svg version="1.1" id="Layer_1" xmlns="http://www.w3.org/2000/svg" xmlns:xlink="http://www.w3.org/1999/xlink" x="0px" y="0px"
	 width="80px" height="80px" viewBox="0 0 140 140" enable-background="new 0 0 140 140" xml:space="preserve">
<path fill-rule="evenodd" clip-rule="evenodd" fill="#FFFFFF" d="M65.044,115.164l-0.013-46.886c0.002-1.724,1.545-3.123,3.3-3.138
	c1.707-0.029,3.018,1.312,3.001,2.999l0.002,51.495c0.024,4.874-4.007,8.888-8.93,8.979c-3.612,0.068-6.757-1.985-8.167-5.005
	c1.174,0.482,2.407,0.74,3.754,0.706C63.044,124.247,65.031,120.133,65.044,115.164z M34.799,61.228
	c-3.339,1.233-4.762,3.541-10.209,3.619c-2.659,0.05-4.356-0.441-5.781-1.134c4.926-20.335,22.367-36.143,43.847-38.882
	C49.455,29.288,38.887,43.263,34.799,61.228z M73.426,24.568c10.643,6.271,18.785,19.208,21.775,35.177
	c-4.332,1.068-5.391,3.933-11.506,4.029c-7.385,0.132-7.379-4.032-14.761-3.902c-7.385,0.136-7.392,4.3-14.775,4.431
	c-6.547,0.122-7.292-3.109-12.473-3.789c3.041-15.984,11.173-29.128,21.763-35.794c1.632-0.199,3.275-0.283,4.933-0.333
	C70.087,24.355,71.758,24.42,73.426,24.568z M71.597,18.611c-0.005,1.443-1.405,2.62-3.146,2.667
	c-1.753,0.011-3.175-1.121-3.17-2.565l0.015-7.329c-0.032-1.428,1.405-2.62,3.146-2.668c1.753-0.01,3.143,1.136,3.137,2.58
	L71.597,18.611z M118.045,62.364c-1.24,0.468-2.715,0.837-4.783,0.869c-5.988,0.118-7.139-2.579-11.285-3.55
	C97.852,42.053,87.338,28.64,74.287,24.627C95.844,26.695,113.279,42.02,118.045,62.364z"/>
</svg>
