<?xml version="1.0" encoding="utf-8"?>
<!-- Generator: Adobe Illustrator 16.0.0, SVG Export Plug-In . SVG Version: 6.00 Build 0)  -->
<!DOCTYPE svg PUBLIC "-//W3C//DTD SVG 1.1//EN" "http://www.w3.org/Graphics/SVG/1.1/DTD/svg11.dtd">
<svg version="1.1" id="Layer_1" xmlns="http://www.w3.org/2000/svg" xmlns:xlink="http://www.w3.org/1999/xlink" x="0px" y="0px"
	 width="421px" height="200px" viewBox="0 0 421 200" enable-background="new 0 0 421 200" xml:space="preserve">
<g>
	<path fill="#414142" d="M212.119,146.341c-0.009,0.073-0.011,0.162-0.023,0.239C212.167,146.822,212.183,146.781,212.119,146.341z"
		/>
	<path fill="#414142" d="M292.815,175.596c5.169,2.97,10.724,6.173,16.045,9.222c-0.872-2.114-1.692-4.17-2.584-4.526
		C298.899,177.317,295.159,176.231,292.815,175.596z"/>
	<path fill="#414142" d="M175.944,200.149h9.727c0.553-4.854,0.972-8.615,1.178-10.523
		C187.579,182.909,181.706,190.917,175.944,200.149z"/>
	<path fill="#414142" d="M162.285,153.168c0,0-0.142,0.14-0.372,0.353c5.071-4.688,9.198-9.746,9.198-9.746
		s-1.884,4.555-4.079,8.867c0.561-1.084,1.096-2.055,1.574-2.86c2.647-4.423-2.971,18.729-0.451,15.406
		c1.96-1.904,4.74,0.691,6.223-11.888c0.999-8.463,7.665-12.56,7.665-12.806c1.71-2.359,3.424-4.728,5.131-7.086
		c-3.072,1.104-2.968-0.698-9.606,3.689c-0.212,0.143-4.283-3.847-4.51-3.689c-7.706-3.543,3.206-21.265-3.855-15.951
		c-7.059,5.319-10.91,23.63-10.91,23.63c-2.783,1.378-9.411,6.302-12.193,7.68c-2.357,0.589-0.861-2.368-3.208-1.774
		c-2.782,1.774-22.897,21.265-25.68,23.037c0,0,21.185-33.672,9.629-24.807c-11.552,8.856-14.122,8.856-14.122,8.856
		c-4.064,1.968,1.376-2.621-2.691-0.653C99.759,159.922,83.493,176.1,83.493,176.1c2.727-7.824,5.704-13.901,17.672-27.924
		c17.971-11.818,10.846-14.24,15.336-21.329c4.496-7.09,14.385-9.312,3.468-7.54c-7.532,3.33-9.674,14.264-10.805,13.75
		c-10.888,9.519-22.916,15.902-34.151,24.465c-13.924,12.964-26.212,24.869-37.885,36.807c-0.077,1.936-0.136,3.876-0.175,5.821
		h69.163c0.071-0.078,0.13-0.133,0.207-0.209c2.401-2.401,3.798-3.8,6.648-6.652c2.851-2.846,0-5.097,4.003-9.092
		c3.992-3.997,3.496-3.501,6.492-3.501c3.001,0,2.868,2.872,4,1.74c1.127-1.126,0-5.732,2.995-8.736
		c3.001-3.001,5.836-3.342,5.836-3.342C132.742,166.805,162.285,153.168,162.285,153.168z"/>
	<path fill="#414142" d="M283.922,106.138c1.386-0.196,2.772-0.616,3.994-1.403c4.07-2.624,9.595,0.129,18.369,4.535
		c2.448,1.229,5.142,2.577,8.141,3.984c0.096,0.042,0.183,0.088,0.284,0.132c-2.726-2.147-6.841-5.969-11.293-9.537
		c-5.982-4.791-12.575-9.124-17.271-8.366c-0.054,0.007-0.103,0.008-0.156,0.016c-5.771-2.894-11.018,1.449-11.018,1.449
		c1.056-3.217,0.526-1.122,1.574-4.342c0,0,1.031-1.184,2.146-2.173c0.687-0.61,1.403-1.146,1.927-1.283
		c-0.066-0.177-0.181-0.375-0.315-0.579c-1.524-2.307-7.205-6.021-9.526-7.962c-0.599-0.502-1.13-0.938-1.622-1.342
		c-4.269-3.495-5.126-3.872-10.552-9.248c-5.771,1.931-10.758-4.448-21.393-5.89c-9.446-5.311-1.742-3.544,3.124-4.166
		c-0.604-0.485-1.182-0.93-1.756-1.369c-1.681-1.275-3.248-2.352-4.703-3.256c-7.955-4.939-12.404-4.728-12.404-4.728
		c0,0.967-13.115-6.272-13.115-6.272c-8.699-0.616-7.175,1.441-13.118,1.923c0,0,7.532,2.776,14.874,2.294
		c2.222-0.054,4.641,3.544,7.703,6.702c2.528,2.602,8.453,4.155,8.348,5.764c-0.033,0.435-5.798-0.384-6.794-0.756
		c-6.816-2.412-7.04-6.552-7.04-6.552s-1.348-0.206-6.074-2.136c-4.717-1.934-11.3-3.794-11.3-3.794s7.105,14.898,5.535,16.827
		c-0.668,0.814-0.856,1.892-0.55,3.259c0.426,1.873,1.793,4.294,4.218,7.361c4.198,5.309-0.524,1.931-0.524,7.24
		c0,5.309,4.507,7.507,5.032,12.817c0.526,5.312-1.182-1.43-0.655,6.295c0.525,7.723-3.326,1.163-0.704,7.919
		c0.656,1.688-1.848,2.053-1.973,3.291c-0.372,3.722-0.898,7.401-2.862,15.004c-2.623,10.137,1.793-3.181,1.793-3.181
		s7.229-15.229,10.108-14.074c0.701,0.328,3.981-1.352,7.546,5.806c0.759,1.515,1.523,3.424,2.282,5.842
		c0.537,1.699,0.828,4.641,1.429,6.825c2.293,3.018,7.988,22.987,9.487,21.942c0.9-0.621,6.99,13.373,0.435-6.479
		c-0.192-0.588-0.357-3.262-1.706-6.391c-0.311-0.72,0.653-2.21,0.196-2.963c-3.783-6.244-4.14-10.292-4.069-11.825
		c0,0,0.042-0.109,0.047-0.345c3.009,6.018,9.956,14.272,9.151,18.134c0.425,4.529,1.908,18.229,2.333,22.759
		c0,0,7.935-19.807,4.086-2.678c0.257,28.47-3.764,11.465-4.493,20.083c-1.202,9.28,0.786,15.501,2.867,18.898h9.512h6.236
		c-1.048-3.269-1.401-6.408-1.401-6.408s0.296,0.175,0.78,0.506c1.314,0.901,4.003,2.983,5.792,5.902h8.976
		c-3.599-7.552-6.382-13.436-8.058-15.598c-5.682-7.294-9.547-20.857-10.89-24.283c-0.342-0.501-0.508-0.795-0.446-0.81
		c0.09-0.015,0.237,0.283,0.446,0.81c1.951,2.87,9.81,12.769,15.553,18.972c3.07,3.312,6.523,6.463,11.563,8.632
		c16.024,6.888,12.687,4.196,18.815,12.277h11.781c-0.495-1.415-0.829-2.316-0.829-2.316l-38.721-33.043
		c-0.365-0.206-0.748-0.423-1.168-0.669c-7.059-4.133,7.061,2.364-9.629-17.129c-5.505-6.093-10.598-6.696-14.26-9.296
		c-8.056-5.714-19.609-19.688-19.277-19.688c-0.039,0.191-0.055,0.398-0.061,0.613c-0.538-1.062-1.295-2.345-2.328-3.856
		c-0.094-0.139-0.182-0.269-0.277-0.415c-0.992-1.365-2.881-2.324-3.923-3.856c-1.039-1.533-1.239-3.642-2.171-4.755
		c-0.638-0.61-0.281,3.053-1.702,2.986c-0.966-0.045-3.807-3.732-4.285-4.229c-1.984-2.027-0.879-5.507-1.635-7.594
		c-1.8-4.081-8.596-16.931-7.036-16.952c0.709-0.007,8.424,9.365,9.473,10.92c0.361,0.535-1.185,2.129-0.714,3.344
		c4.349,1.285,8.244,1.289,5.736,5.468c0.194,0.405,4.116-0.79,5.028-0.238c0.979,0.595,1.455,2.592,3.053,3.774
		c1.211,1.02,2.291,1.905,3.244,2.678c8.56,6.911,7.466,4.641,7.466,4.641c0,0.136,5.333,3.85,10.544,8.189
		c1.737,1.447,13.12,23.984,14.954,24.331c7.342,1.934-9.439-9.192,0.003-4.368c2.559,1.21,5.157-7.045,9.987,0.65
		c2.998,4.78,2.752,8.601,5.385,11.412c3.473,3.711,19.389,17.623,22.059,19.313c2.915,1.846,2.137-0.013,0.611-2.201
		c0.377,0.25,0.731,0.516,1.125,0.754c6.416,4.72,7.143,3.771,7.143,3.771c2.783,3.15,5.565,6.302,8.349,9.449
		c0,0,6.993-1.23,13.413,4.673c5.141,1.614,10.559,5.508,14.975,9.508c-6.596-7.519-11.008-14.787-11.008-14.787l-21.649-5.806
		l-10.821-16.6c0,0,0.9-1.662-7.217-11.622c-7.384-9.064-15.744-21.215-17.184-23.323c-1.999-0.998-3.594-1.434-4.518-0.974
		c-2.439-1.238-3.528-1.547-3.882-1.4c-0.308-0.244-0.617-0.478-0.939-0.668c-1.708-1.037-4.112-5.469-3.057,0.937
		c-5.242-3.381-6.069-2.621-11.313-6.002c-5.246-3.38-5.771-4.825-5.771-4.825c-3.848-1.611-7.694-3.22-11.54-4.827
		c-2.388-1.163-4.771-2.325-7.155-3.487c-0.584-0.286-1.174-0.573-1.762-0.856c-1.398-2.737-2.8-5.475-4.196-8.21
		c-2.624-2.412-5.249-4.824-7.874-7.238c0,0-1.566-4.828-1.566-11.587c0-4.048-1.885-5.504-4.076-7.78
		c-1.462-1.522-3.057-3.408-4.319-6.699c-2.85-7.431,2.035,0.963,7.268,6.56c0.548,0.584,1.103,1.144,1.646,1.645
		c5.776,5.311,6.299,9.171,6.299,9.171s1.96,0.434,6.069,3.381c1.146,0.822,2.454,1.835,3.948,3.102
		c1.831,1.555,4.076,2.993,6.246,4.184c5.911,3.25,11.279,4.708,6.294,1.884c-6.82-3.861-5.769-6.274-12.063-10.619
		c-6.299-4.344,4.198-2.895,12.063,2.896c7.868,5.792,4.192-0.482,13.637,6.758c9.443,7.239-5.246,5.794,0,10.137
		c2.349,1.947,3.12,3.313,4.246,4.662c1.391,1.658,3.313,3.293,9.392,5.955c1.567,0.688,3.303,1.612,5.114,2.68
		c7.761,4.575,17.006,11.904,21.683,15.734c0.794,1.262,1.512,2.404,1.88,2.924c0.02,0.031,0.036,0.058,0.058,0.091
		c5.127,7.303,6.95,10.707,6.631,11.651c2.871,2.726,5.284,5.537,6.782,8.296c-0.754-0.229,1.923,2.555,14.863,7.596
		c2.985,1.162,3.047,7.474,7.687,8.172c8.097,1.218,12.316,1.892,14.669,2.479c2.262,0.57,2.79,1.067,3.33,1.901
		c3.455,1.891,6.743,3.484,9.56,4.875c0.073-1.265-0.819-3.415-3.314-6.565c-3.043-3.836-8.873-9.949-14.638-15.84
		c-7.015-7.162-13.911-13.969-15.589-15.939c-3.604-3.258-7.559-6.857-12.298-11.122
		C308.436,121.725,295.063,110.752,283.922,106.138z M275.498,105.158c0.016,0.017,0.043,0.032,0.058,0.055
		C275.387,105.146,275.346,105.116,275.498,105.158z"/>
	<path fill="#414142" d="M345.226,198.057c-0.612-0.621-2.745-0.338-5.854-1.451c-2.864-1.029-1.468-0.485-8.248-1.549
		c-1.081-0.166-2.971-0.301-5.953-0.922c3.762,2.113,6.697,3.728,8.27,4.526c1.072,0.547,2.021,1.032,2.897,1.488h10.983
		C346.662,199.498,345.964,198.804,345.226,198.057z"/>
	<path fill="#414142" d="M221.719,194.781c-2.091-3.405-3.881-6.509-4.626-8.57c3.737-6.633,0.653-10.368-2.953-15.074
		c-2.739-7.516-2.91-16.435-2.044-23.05c-0.507-1.799-4.104-19.814-4.777-14.217c1.134,4.937,5.117,10.352-2.263,16.863
		c-0.369,0.328-0.762,0.654-1.193,0.985c-5.016-0.911-11.407,2.195-14.535,4.464c-9.391,6.813-9.857,13.847-9.857,13.847
		s-5.772-2.952-14.757,5.905c-8.992,8.861-14.767,15.357-14.767,15.357c0.302,0,10.389-25.534,16.66-37.833
		c-0.948,1.822-1.935,3.548-2.842,4.795c-3.145,4.341-15.731,16.409-15.731,16.409s-0.526,3.863-5.249,15.448
		c-1.984,4.873-4.065,7.521-6.468,10.038h30.075c2.538-1.819,6.469-5.96,13.115-14.865c11.168-14.965,14.163-20.276,14.163-20.276
		c1.049,0.967,4.197,8.209,4.197,8.209l-0.526,11.582c0,0,1.578,7.726-0.524,13.519c-0.201,0.556-0.261,1.166-0.214,1.832h12.635
		h2.118h3.326h5.957h4.43c-0.047-0.078-0.097-0.151-0.14-0.225C223.841,198.193,222.741,196.451,221.719,194.781z"/>
	<path fill="#414142" d="M121.757,187.412c-1.303,1.589-3.554,4.519-4.487,7.074c-0.958,2.637-1.631,4.267-2.529,5.663h5.099
		c1.123-1.449,3.101-3.828,4.046-7.479c0.107-0.409,0.18-0.769,0.243-1.11c-0.189-0.948-0.284-2.235-0.5-3.25
		C122.888,187.563,121.759,187.784,121.757,187.412z"/>
	<path fill="#414142" d="M384.96,172.106c-12.808-10.577-46.354-32.689-54.242-34.656c-0.132-0.029,0.014,0.188,0.347,0.584
		c4.626,4.182,8.673,7.803,13.067,11.557c4.691,4.011,7.322,10.448,18.39,11.534c2.624,1.697,19.957,10.894,21.209,11.313
		C384.883,172.823,385.228,172.678,384.96,172.106z"/>
</g>
</svg>
