<?xml version="1.0" encoding="utf-8"?>
<!-- Generator: Adobe Illustrator 16.0.0, SVG Export Plug-In . SVG Version: 6.00 Build 0)  -->
<!DOCTYPE svg PUBLIC "-//W3C//DTD SVG 1.1//EN" "http://www.w3.org/Graphics/SVG/1.1/DTD/svg11.dtd">
<svg version="1.1" id="Layer_1" xmlns="http://www.w3.org/2000/svg" xmlns:xlink="http://www.w3.org/1999/xlink" x="0px" y="0px"
	 width="80px" height="80px" viewBox="0 0 80 80" enable-background="new 0 0 80 80" xml:space="preserve">
<g>
	<path fill="#2B2B2A" d="M41.919,37.588v-0.077c-0.015,0.025-0.034,0.055-0.052,0.077H41.919z"/>
	<path fill="#2B2B2A" d="M39.958,5.633c-19.04,0-34.475,15.435-34.475,34.475c0,19.041,15.435,34.475,34.475,34.475
		s34.476-15.435,34.476-34.475C74.434,21.068,58.998,5.633,39.958,5.633z M29.877,57.531H22.12V34.208h7.757V57.531z M25.996,31.022
		h-0.05c-2.601,0-4.284-1.795-4.284-4.032c0-2.287,1.735-4.032,4.386-4.032c2.653,0,4.286,1.745,4.336,4.032
		C30.384,29.227,28.7,31.022,25.996,31.022z M57.835,57.53h-7.754V45.051c0-3.134-1.118-5.274-3.929-5.274
		c-2.139,0-3.416,1.446-3.979,2.837c-0.205,0.5-0.255,1.19-0.255,1.89v13.027h-7.753c0,0,0.1-21.137,0-23.323h7.753v3.303
		c1.032-1.592,2.875-3.85,6.988-3.85c5.101,0,8.927,3.331,8.928,10.496V57.53z"/>
</g>
</svg>
