<?xml version="1.0" encoding="utf-8"?>
<!-- Generator: Adobe Illustrator 16.0.0, SVG Export Plug-In . SVG Version: 6.00 Build 0)  -->
<!DOCTYPE svg PUBLIC "-//W3C//DTD SVG 1.1//EN" "http://www.w3.org/Graphics/SVG/1.1/DTD/svg11.dtd">
<svg version="1.1" id="Layer_2" xmlns="http://www.w3.org/2000/svg" xmlns:xlink="http://www.w3.org/1999/xlink" x="0px" y="0px"
	 width="250px" height="250px" viewBox="0 0 250 250" enable-background="new 0 0 250 250" xml:space="preserve">
<path fill="#454548" stroke="#FFFFFF" stroke-width="1.4173" stroke-miterlimit="10" d="M125.355,22.451
	C69.381,22.451,24,67.835,24,123.806c0,55.976,45.381,101.35,101.355,101.35c55.972,0,101.359-45.374,101.359-101.35
	C226.715,67.835,181.327,22.451,125.355,22.451z"/>
<path fill="#FFFFFF" d="M112.101,140.789v7.022c0,1.016-0.819,1.827-1.829,1.827H99.61c-1.008,0-1.826-0.812-1.826-1.827v-7.022
	c0-1.002,0.818-1.827,1.826-1.827h10.662C111.281,138.962,112.101,139.787,112.101,140.789z M110.271,121.906H99.61
	c-1.008,0-1.826,0.819-1.826,1.827v7.02c0,1.01,0.818,1.828,1.826,1.828h10.662c1.01,0,1.829-0.818,1.829-1.828v-7.02
	C112.101,122.725,111.281,121.906,110.271,121.906z M110.271,104.843H99.61c-1.008,0-1.826,0.819-1.826,1.828v7.02
	c0,1.002,0.818,1.828,1.826,1.828h10.662c1.01,0,1.829-0.825,1.829-1.828v-7.02C112.101,105.662,111.281,104.843,110.271,104.843z
	 M118.656,140.789v7.022c0,0.778,0.485,1.432,1.162,1.695l0.008-10.413C119.145,139.364,118.656,140.017,118.656,140.789z
	 M131.149,121.906h-10.663c-1.007,0-1.831,0.819-1.831,1.827v7.02c0,0.772,0.489,1.425,1.173,1.689v-0.179
	c0-3.767,3.068-6.836,6.838-6.836H128c1.966,0,3.728,0.845,4.974,2.178v-3.873C132.974,122.725,132.155,121.906,131.149,121.906z
	 M131.149,104.843h-10.663c-1.007,0-1.831,0.819-1.831,1.828v7.02c0,1.002,0.824,1.828,1.831,1.828h10.663
	c1.006,0,1.824-0.825,1.824-1.828v-7.02C132.974,105.662,132.155,104.843,131.149,104.843z M152.022,138.962h-10.658
	c-1.006,0-1.823,0.825-1.823,1.827v7.022c0,0.548,0.246,1.022,0.622,1.358c0.014,0,0.029,0.007,0.047,0.014
	c0.049-0.007,0.096-0.014,0.146-0.02c0.51-0.053,1.25-0.113,2.108-0.113c1.546,0,2.959,0.232,4.239,0.588h3.035h2.284
	c1.013,0,1.826-0.812,1.826-1.827v-7.022C153.849,139.787,153.035,138.962,152.022,138.962z M152.022,121.906h-10.658
	c-1.006,0-1.823,0.819-1.823,1.827v7.02c0,1.01,0.817,1.828,1.823,1.828h10.658c1.013,0,1.826-0.818,1.826-1.828v-7.02
	C153.849,122.725,153.035,121.906,152.022,121.906z M152.022,104.843h-10.658c-1.006,0-1.823,0.819-1.823,1.828v7.02
	c0,1.002,0.817,1.828,1.823,1.828h10.658c1.013,0,1.826-0.825,1.826-1.828v-7.02C153.849,105.662,153.035,104.843,152.022,104.843z
	 M155.018,79.843v11.258c0,2.534-2.105,4.609-4.672,4.609H101.29c-2.573,0-4.675-2.076-4.675-4.609V79.843
	c0-2.534,2.102-4.608,4.675-4.608h49.056C152.912,75.234,155.018,77.309,155.018,79.843z M153.278,79.734
	c0-1.33-1.095-2.415-2.441-2.415h-50.04c-1.349,0-2.444,1.085-2.444,2.415v11.479c0,1.333,1.095,2.412,2.444,2.412h50.04
	c1.347,0,2.441-1.079,2.441-2.412V79.734z M112.636,82.651l-3.827,1.927l0.668-4.239h-2.312l0.668,4.239l-3.827-1.927l-0.718,2.184
	l4.211,0.72l-3.005,3.006l1.85,1.359l1.978-3.8l1.978,3.8l1.848-1.359l-3.003-3.006l4.211-0.72L112.636,82.651z M126.667,82.651
	l-3.827,1.927l0.668-4.239h-2.312l0.668,4.239l-3.827-1.927l-0.72,2.184l4.211,0.72l-3.003,3.006l1.85,1.359l1.978-3.8l1.976,3.8
	l1.85-1.359l-3.005-3.006l4.213-0.72L126.667,82.651z M140.698,82.651l-3.827,1.927l0.666-4.239h-2.31l0.666,4.239l-3.827-1.927
	l-0.719,2.184l4.213,0.72l-3.005,3.006l1.847,1.359l1.98-3.8l1.977,3.8l1.851-1.359l-3.006-3.006l4.213-0.72L140.698,82.651z
	 M169.506,71.271v91.137c0,5.496-4.474,9.971-9.968,9.971h-0.34v4.348c0,5.286-4.303,9.583-9.581,9.583H132.81
	c-2.699,0-5.286-1.149-7.139-3.188l-10.747-10.742H91.181c-5.497,0-9.969-4.475-9.969-9.971V71.271c0-5.497,4.472-9.971,9.969-9.971
	h68.357C165.032,61.3,169.506,65.774,169.506,71.271z M165.233,71.271c0-3.135-2.564-5.695-5.695-5.695H91.181
	c-3.132,0-5.696,2.56-5.696,5.695v91.137c0,3.134,2.564,5.695,5.696,5.695h19.47l-3.198-3.194c-1.333-1.34-1.333-3.505,0-4.838
	l1.488-1.49c0.648-0.648,1.505-1.004,2.417-1.004c0.917,0,1.774,0.355,2.419,1.004l9.449,9.449l0.022-35.759
	c0-1.889,1.537-3.426,3.42-3.426H128c1.887,0,3.42,1.537,3.42,3.426v20.026l1.461-0.316c0.819-0.172,1.65-0.258,2.463-0.258
	c2.425,0,3.976,0.785,3.985,0.793l0.19,0.098v2.594c0,0.33,0.268,0.601,0.599,0.601c0.333,0,0.597-0.271,0.597-0.601v-2.646
	c0.422-0.045,1.036-0.092,1.749-0.092c1.666,0,3.149,0.258,4.286,0.746l0.287,0.125v2.785c0,0.337,0.27,0.601,0.603,0.601
	c0.331,0,0.598-0.264,0.598-0.601v-2.957c0.499-0.059,1-0.111,1.501-0.111c2.372,0,4.01,0.758,4.016,0.765l0.188,0.085l0.204,0.026
	c0.082,0.014,0.155,0.026,0.234,0.034v3.01c0,0.335,0.267,0.6,0.602,0.6c0.325,0,0.597-0.265,0.597-0.6v-2.791
	c3.167,0.791,3.619,2.751,3.619,4.447v9.47h0.34c3.131,0,5.695-2.562,5.695-5.695V71.271z"/>
</svg>
