<?xml version="1.0" encoding="utf-8"?>
<!-- Generator: Adobe Illustrator 16.0.0, SVG Export Plug-In . SVG Version: 6.00 Build 0)  -->
<!DOCTYPE svg PUBLIC "-//W3C//DTD SVG 1.1//EN" "http://www.w3.org/Graphics/SVG/1.1/DTD/svg11.dtd">
<svg version="1.1" id="Layer_2" xmlns="http://www.w3.org/2000/svg" xmlns:xlink="http://www.w3.org/1999/xlink" x="0px" y="0px"
	 width="460px" height="200px" viewBox="0 0 460 200" enable-background="new 0 0 460 200" xml:space="preserve">
<path fill="#595A5C" d="M366.391,143.899c-0.383-2.385-8.028-2.507-12.434-2.996c-4.389-0.52-1.637-3.15,2.141-4.896
	c3.762-1.772,2.631-2.019-1.515-3.059c-4.13-1.04-3.655,0.673-4.709-2.081c-1.025-2.723-4.052,1.134-5.445-2.356
	c-1.423-3.486,3.656-4.587,7.234-5.26c3.594-0.643,0.291-7.158,0-8.84c-0.274-1.712-1.684-4.711-3.578-3.211
	c-1.883,1.499,0.198,4.252-1.208,3.487c-1.424-0.766,0.731-6.21-3.305-1.62c-4.052,4.618-5.552,0.764-7.448-4.313
	c-1.881-5.078,4.344,1.498,5.293-2.813c0.932-4.313-5.185-6.027-10.354-8.106c-5.185-2.081-2.829-3.671-6.226-6.577
	c-3.394-2.936-7.05,0-11.302,0.917c-4.235,0.949-0.841-2.905-4.604-6.392c-3.777-3.487,6.761,1.896,8.749,0.55
	c1.988-1.314-2.266-7.892,1.224-6.942c3.471,0.917,1.406-5.047-1.973-8.535c-3.397-3.547,4.512,0.979,7.783-0.765
	c3.257-1.774-4.771-4.404-6.284-7.28c-1.499-2.905-14.315-1.131-18.568-2.905c-4.267-1.743,5.645-1.254,3.763-4.742
	c-1.882-3.517-9.803-3.793-5.399-5.017c4.374-1.284,5.888,6.271,5.399,2.11c-0.504-4.129,9.421,3.517,12.938,6.912
	c3.503,3.364,4.13-2.63,0.75-4.16c-3.396-1.499,0.12-4.129-5.66-10.155c-5.779-6.025-4.893-2.386-10.675-6.79
	c-5.765-4.375-16.715-5.566-22.664-4.252c-5.919,1.315-4.13,5.842-8.733,10.43c-4.618,4.619-0.2-4.037,1.041-6.485
	c1.208-2.446-2.646-2.722-5.95-5.26c-3.288-2.57-8.946-5.935-4.037-3.793c4.895,2.17,8.09,2.263,4.238-1.102
	c-3.87-3.395,4.221-0.213,1.223-4.16c-3.014-3.947-14.697-1.959-20.066,0.184c-5.367,2.171-1.224,1.804-0.75,3.486
	c0.476,1.684-2.263,5.566-2.737,5.566c-0.459,0-5.446-1.499-5.077-3.028c0.382-1.499,1.224-5.628-1.515-5.353
	c-2.724,0.275-4.329-0.276-7.066-2.723c-2.723-2.478-6.118-1.253-7.615,2.05c-1.499,3.303,2.447,2.478,0.273,5.658
	c-2.139,3.213-4.404,3.09-4.037,0.643c0.367-2.417-3.854-1.223-4.42-4.221c-0.565-3.028,4.895-0.274,4.709-2.63
	c-0.199-2.355,0.934-5.169-2.553-6.516c-3.488-1.314-3.181-2.813-4.434-5.138c-1.208-2.356-5.644,0.55-4.697,3.639
	c0.95,3.09-5.168,5.689-8.059,3.09c-0.076-0.03-0.137-0.062-0.199-0.153l0,0c0,0,0,0-0.016,0c-0.26-0.213-0.505-0.336-0.765-0.427
	c-0.75-0.367-2.019-0.704-3.594-0.306c-2.585,0.642-10.628,4.069-12.357,5.17c-0.015,0.03-0.046,0.03-0.076,0.061
	c-0.016,0-0.016,0-0.016,0.031c-0.03,0-0.046,0-0.046,0c-0.901,0.611-1.774,1.499-2.461,2.876
	c-2.249,4.496-9.713,7.739-11.607,9.298c-1.882,1.559-3.014,1.682-2.265-1.469c0.75-3.12-1.376-1.683-5.275-3.824
	c-3.9-2.11-6.012,1.621-6.638,2.967c-0.643,1.314,1.636,2.937,3.319,1.254c1.698-1.712,2.141,0,2.003,1.499
	c-0.123,1.499-5.016,2.386-7.724,2.386c-2.692,0-2.385,6.27-0.811,9.054c0.644,1.101,1.545,1.866,2.448,2.539l0,0
	c1.666,1.468,4.006,4.771-2.402,6.118c-6.422,1.377-12.434,7.678-12.434,7.678c-0.78,0.734-1.483,1.499-1.972,2.295
	c-2.279,3.517-5.031,5.504-4.146,0.734c0.873-4.772,7.787-3.885,1.745-5.506c-6.012-1.621-12.908,25.907-14.025,30.159
	c-1.118,4.221,3.487,4.527,5.933,1.774c2.448-2.722,9.315,2.172,9.315,2.172s-0.46,0.092-3.196,2.355
	c-2.737,2.263-8.948,1.224-12.435-1.132c-3.471-2.354-5.458,1.132-6.025,3.977c-0.551,2.814-1.957,3.181-5.735,6.209
	c-3.762,3.026-1.117,6.943,0.658,7.983c1.805,1.041,0.382-3.855,2.539-7.524c2.171-3.671,4.634-1.224,3.013,2.814
	c-1.591,4.067,2.263,4.71,2.263,4.71c-6.208,4.25-4.694,10.737-4.237,12.725c0.474,1.988,2.356,3.271,3.686,1.774
	c1.299-1.5,2.523-3.947,2.906-0.95c0.368,3.027-0.842,3.701-4.236,2.447c-3.396-1.192-9.513,6.395-6.668,4.803
	c2.798-1.591,0.535,3.792,2.539,5.475c1.957,1.713,4.787,0.185,6.195,2.723c1.422,2.539,0.764,4.037-5.169,1.499
	c-5.951-2.507-3.671,1.499-1.835,3.394c1.835,1.929-2.156,1.806-4.94-1.008c-2.784-2.844-0.75,3.519,2.585,5.077
	c3.333,1.562-5.323,2.295-7.953,5.967c-2.647,3.67-0.948,4.985,1.131,3.09c2.066-1.959,3.763,0.823,3.763,0.823
	s1.499-4.249,2.814-0.366c1.331,3.855,4.817,1.957,4.817,1.957c0.43-0.917,0.856-1.561,1.285-2.11
	c0.047-0.061,0.108-0.122,0.17-0.184c0.121-0.12,0.229-0.275,0.335-0.366c0.888-0.673,2.11,0.918,2.724,1.836
	c0.09,0.153,0.199,0.336,0.366,0.582v0.03h0.03c0.583,0.824,1.698,2.14,3.549,4.19c9.238,10.063,15.37-1.529,15.37-1.529
	c0.644,3.119,5.062,4.436,9.223,4.802c4.129,0.398,2.523-3.087,3.73-6.668c1.254-3.578,4.727-3.488,3.228-0.489
	c-1.499,3.028,0.473,4.068,2.263,2.079c1.789-1.988,7.249-1.405,8.932-3.303c1.698-1.865,4.329-4.863-0.076-5.659
	c-4.436-0.795-1.515-0.918,5.734-5.993c7.251-5.109,10.446-2.663,14.499-2.755c4.052-0.062,16.58,7.464,21.075,8.748
	c4.542,1.285,9.804,5.874,8.596,9.422c-1.253,3.578-0.582,7.922-0.856,10.002c-0.291,2.08-0.764,1.009-3.013,6.577
	c-2.264,5.566-7.157,6.21-10.171,7.556c-3.013,1.284-5.658,1.957-8.564-0.122c-2.936-2.05-1.896,0.948-4.433,1.04
	c-2.541,0.093-5.094,3.58-5.094,3.58s-8.182,0-15.905,0c-7.724,0-10.721,5.841-10.721,5.841h140.596
	c-1.775-7.708-23.095-5.659-23.095-5.659c-1.33-1.497-5.092-5.536-9.33-3.271c-4.251,2.231-4.708-1.805-7.263-3.855
	c-2.524-2.079-5.263-5.474-9.956-4.923c-4.726,0.549-4.896,0.091-4.726-1.5c0.198-1.59,1.422-5.841-2.356-6.209
	c-3.763-0.397-0.092-3.67-3.288-5.261c-3.211-1.622-2.143-7.158-1.82-10.187c0.307-3.027,4.711-4.895,8.473-5.781
	c3.763-0.856,8.029-6.026,11.807-7.157c3.763-1.133,7.42-2.477,11.303,3.15c3.885,5.658,7.647,5.904,12.42,7.922
	c4.771,1.989,4.128-3.639,5.918-5.536c1.744-1.897,3.381-0.764,2.11,1.528c-1.238,2.233,4.021,3.488,7.538-0.152
	c3.521-3.64,6.899-2.507,7.908,2.386c1.009,4.895,8.29,5.904,15.188,1.744c6.911-4.13,13.061-0.49,19.591,0
	c6.53,0.521,10.049-2.355,11.548-5.995c1.499-3.642,4.007-5.659,8.289-3.396c4.251,2.266,8.411,0.613,6.514-2.507
	C358.225,142.646,366.758,146.284,366.391,143.899z M178.996,140.78c0,0-3.195-0.732-4.418-3.518
	c-1.242-2.813-5.461-5.353-5.461-5.353s-2.264-1.408,1.682-0.918c3.961,0.43,4.252,4.711,5.767,4.222
	C178.049,134.725,182.851,141.914,178.996,140.78z M191.767,144.146c-10.293-2.386-2.876-3.731-7.265-6.883
	c-4.419-3.15,2.495-2.263,4.129,0c1.621,2.231,6.853,3.211,8.168,4.896C196.799,142.158,202.059,146.53,191.767,144.146z
	 M212.229,150.936c0,0-10.354-1.896-11.011-5.077c-0.659-3.212,0.595-4.955-2.906-7.495c-3.518-2.507,5.888-0.246,9.528,1.529
	c3.655,1.745,4.894,4.373,5.138,6.912C213.239,149.314,214.677,151.486,212.229,150.936z M237.939,145.645
	c-1.331,2.845-3.777,2.568-3.777,2.568c-2.707,1.04-6.393-0.765-2.661-2.937c3.732-2.171,1.346-6.393,0.964-8.014
	c-0.367-1.62,2.186-3.641,2.447-2.538c0.307,1.132,4.725,3.578,4.816,5.32C239.819,141.76,239.255,142.83,237.939,145.645z
	 M250.28,140.048c-2.646,2.049-6.362,6.911-6.133,4.099c0,0-0.549-5.445,3.764-7.83c4.326-2.325,2.462,0.272,2.937,0.948
	C251.304,137.936,252.911,137.996,250.28,140.048z M255.389,140.108c0,0-3.151-6.79,2.492-8.168c5.66-1.377,8.061-2.508,9.3-5.385
	c1.254-2.903,6.147-3.394,0.749,2.877C262.532,135.703,257.132,143.87,255.389,140.108z M270.423,138.854
	c-3.427,1.313-4.313,1.682-4.129-2.266c0.212-3.946,4.129-2.262,4.129-2.262C274.521,135.273,273.832,137.508,270.423,138.854z"/>
</svg>
