<?xml version="1.0" encoding="utf-8"?>
<!-- Generator: Adobe Illustrator 16.0.0, SVG Export Plug-In . SVG Version: 6.00 Build 0)  -->
<!DOCTYPE svg PUBLIC "-//W3C//DTD SVG 1.1//EN" "http://www.w3.org/Graphics/SVG/1.1/DTD/svg11.dtd">
<svg version="1.1" id="Layer_2" xmlns="http://www.w3.org/2000/svg" xmlns:xlink="http://www.w3.org/1999/xlink" x="0px" y="0px"
	 width="460px" height="200px" viewBox="0 0 460 200" enable-background="new 0 0 460 200" xml:space="preserve">
<path fill="#595A5C" d="M351.473,139.655c-0.34-2.122-7.141-2.23-11.059-2.666c-3.903-0.462-1.455-2.802,1.904-4.353
	c3.346-1.578,2.34-1.796-1.347-2.721c-3.673-0.925-3.251,0.598-4.188-1.851c-0.912-2.421-3.604,1.008-4.844-2.095
	c-1.265-3.102,3.252-4.081,6.435-4.679c3.196-0.571,0.259-6.366,0-7.862c-0.244-1.523-1.497-4.19-3.183-2.856
	c-1.674,1.333,0.177,3.781-1.074,3.102c-1.266-0.681,0.651-5.523-2.939-1.442c-3.604,4.108-4.938,0.68-6.624-3.836
	c-1.673-4.516,3.863,1.333,4.707-2.502c0.829-3.836-4.612-5.36-9.209-7.209c-4.612-1.851-2.517-3.265-5.537-5.85
	c-3.019-2.611-6.271,0-10.052,0.816c-3.768,0.844-0.748-2.584-4.095-5.685c-3.359-3.102,6.013,1.687,7.781,0.489
	c1.769-1.169-2.014-7.019,1.089-6.175c3.087,0.816,1.25-4.489-1.755-7.591c-3.021-3.155,4.013,0.871,6.923-0.68
	c2.897-1.578-4.243-3.917-5.59-6.475c-1.333-2.584-12.732-1.006-16.514-2.584c-3.795-1.55,5.02-1.115,3.346-4.217
	c-1.674-3.128-8.719-3.374-4.802-4.462c3.891-1.142,5.237,5.577,4.802,1.877c-0.448-3.673,8.38,3.128,11.508,6.148
	c3.115,2.992,3.673-2.34,0.667-3.7c-3.021-1.333,0.107-3.672-5.034-9.032c-5.141-5.359-4.352-2.122-9.494-6.039
	c-5.128-3.891-14.867-4.951-20.158-3.782c-5.265,1.17-3.673,5.196-7.768,9.277c-4.108,4.108-0.177-3.591,0.926-5.768
	c1.074-2.176-2.353-2.421-5.292-4.679c-2.925-2.286-7.957-5.278-3.591-3.374c4.353,1.931,7.196,2.013,3.769-0.979
	c-3.442-3.02,3.754-0.19,1.088-3.7c-2.68-3.51-13.072-1.742-17.847,0.163c-4.774,1.931-1.088,1.605-0.667,3.101
	c0.422,1.497-2.013,4.951-2.435,4.951c-0.408,0-4.843-1.333-4.516-2.693c0.34-1.333,1.088-5.006-1.347-4.761
	c-2.422,0.245-3.85-0.245-6.284-2.421c-2.422-2.204-5.441-1.115-6.773,1.823c-1.333,2.938,2.176,2.204,0.243,5.033
	c-1.903,2.857-3.917,2.748-3.591,0.571c0.327-2.149-3.427-1.088-3.931-3.754c-0.503-2.693,4.354-0.244,4.189-2.339
	c-0.177-2.095,0.83-4.598-2.271-5.795c-3.102-1.169-2.829-2.502-3.944-4.57c-1.074-2.095-5.02,0.49-4.177,3.237
	c0.845,2.748-4.597,5.06-7.168,2.748c-0.068-0.027-0.122-0.055-0.177-0.136l0,0c0,0,0,0-0.014,0c-0.231-0.19-0.449-0.299-0.68-0.38
	c-0.667-0.327-1.796-0.626-3.197-0.272c-2.299,0.571-9.453,3.619-10.99,4.598c-0.014,0.027-0.041,0.027-0.068,0.054
	c-0.014,0-0.014,0-0.014,0.027c-0.027,0-0.041,0-0.041,0c-0.802,0.544-1.578,1.333-2.189,2.558c-2,3.999-8.639,6.883-10.324,8.27
	c-1.674,1.387-2.68,1.496-2.014-1.306c0.667-2.775-1.224-1.497-4.692-3.401c-3.469-1.877-5.347,1.442-5.904,2.639
	c-0.572,1.169,1.455,2.612,2.952,1.115c1.51-1.523,1.904,0,1.782,1.333c-0.109,1.333-4.461,2.122-6.87,2.122
	c-2.394,0-2.121,5.577-0.721,8.053c0.572,0.979,1.374,1.659,2.177,2.258l0,0c1.482,1.306,3.563,4.244-2.136,5.441
	c-5.712,1.225-11.059,6.829-11.059,6.829c-0.694,0.653-1.319,1.333-1.754,2.041c-2.027,3.128-4.475,4.896-3.687,0.653
	c0.776-4.244,6.925-3.455,1.552-4.897c-5.347-1.442-11.481,23.042-12.474,26.824c-0.994,3.754,3.101,4.026,5.277,1.578
	c2.177-2.421,8.285,1.932,8.285,1.932s-0.409,0.082-2.843,2.095s-7.958,1.088-11.059-1.007c-3.087-2.094-4.855,1.007-5.359,3.537
	c-0.49,2.503-1.741,2.829-5.101,5.523c-3.346,2.692-0.993,6.175,0.585,7.1c1.605,0.926,0.34-3.428,2.258-6.692
	c1.931-3.265,4.122-1.088,2.68,2.503c-1.415,3.618,2.013,4.189,2.013,4.189c-5.522,3.781-4.175,9.55-3.768,11.317
	c0.421,1.769,2.095,2.911,3.278,1.578c1.156-1.333,2.244-3.51,2.585-0.844c0.327,2.692-0.749,3.292-3.768,2.177
	c-3.021-1.061-8.461,5.687-5.931,4.271c2.489-1.415,0.476,3.373,2.258,4.869c1.741,1.524,4.258,0.164,5.51,2.422
	c1.265,2.258,0.679,3.591-4.598,1.333c-5.292-2.23-3.265,1.333-1.632,3.019c1.632,1.715-1.918,1.605-4.394-0.897
	c-2.476-2.529-0.667,3.129,2.299,4.516c2.965,1.388-4.734,2.041-7.073,5.306c-2.354,3.265-0.843,4.435,1.006,2.748
	c1.837-1.742,3.347,0.733,3.347,0.733s1.333-3.78,2.503-0.325c1.183,3.428,4.284,1.74,4.284,1.74
	c0.382-0.815,0.762-1.388,1.143-1.877c0.042-0.054,0.096-0.108,0.151-0.163c0.108-0.108,0.204-0.245,0.298-0.326
	c0.79-0.599,1.877,0.816,2.422,1.632c0.081,0.137,0.177,0.3,0.326,0.518v0.027h0.027c0.518,0.734,1.51,1.904,3.156,3.727
	c8.217,8.951,13.67-1.36,13.67-1.36c0.572,2.774,4.502,3.945,8.203,4.271c3.673,0.354,2.244-2.746,3.318-5.93
	c1.115-3.183,4.204-3.103,2.871-0.436c-1.333,2.693,0.421,3.619,2.013,1.85c1.591-1.769,6.447-1.251,7.944-2.938
	c1.51-1.659,3.85-4.325-0.068-5.033c-3.945-0.707-1.347-0.816,5.1-5.331c6.449-4.544,9.291-2.368,12.896-2.45
	c3.604-0.055,14.746,6.639,18.744,7.781c4.04,1.143,8.719,5.224,7.645,8.38c-1.115,3.183-0.517,7.046-0.762,8.895
	c-0.258,1.851-0.679,0.898-2.68,5.85c-2.013,4.951-6.365,5.523-9.046,6.721c-2.68,1.141-5.032,1.74-7.617-0.109
	c-2.611-1.823-1.686,0.843-3.943,0.925c-2.259,0.082-4.53,3.183-4.53,3.183s-7.277,0-14.146,0c-6.87,0-9.536,5.196-9.536,5.196
	h125.048c-1.579-6.855-20.541-5.033-20.541-5.033c-1.183-1.333-4.528-4.924-8.298-2.91c-3.781,1.985-4.188-1.605-6.46-3.429
	c-2.245-1.85-4.68-4.869-8.855-4.379c-4.203,0.488-4.354,0.081-4.203-1.334c0.177-1.414,1.265-5.195-2.095-5.522
	c-3.347-0.354-0.082-3.264-2.925-4.679c-2.856-1.442-1.905-6.366-1.619-9.06c0.272-2.693,4.19-4.354,7.536-5.142
	c3.347-0.762,7.141-5.36,10.501-6.366c3.347-1.007,6.598-2.203,10.053,2.802c3.455,5.033,6.802,5.251,11.045,7.046
	c4.244,1.769,3.673-3.236,5.265-4.924c1.551-1.687,3.006-0.68,1.876,1.36c-1.102,1.986,3.577,3.102,6.706-0.136
	c3.13-3.237,6.135-2.23,7.032,2.122c0.898,4.353,7.374,5.251,13.508,1.55c6.148-3.672,11.617-0.435,17.425,0
	c5.808,0.463,8.938-2.094,10.271-5.331c1.333-3.238,3.563-5.033,7.372-3.021c3.781,2.015,7.481,0.545,5.794-2.23
	C344.21,138.54,351.8,141.776,351.473,139.655z M184.802,136.88c0,0-2.842-0.652-3.93-3.128c-1.104-2.503-4.857-4.761-4.857-4.761
	s-2.013-1.253,1.496-0.816c3.523,0.381,3.782,4.189,5.129,3.754C183.959,131.494,188.23,137.888,184.802,136.88z M196.16,139.873
	c-9.155-2.122-2.558-3.318-6.462-6.121c-3.93-2.803,2.219-2.013,3.673,0c1.442,1.985,6.095,2.856,7.265,4.354
	C200.636,138.105,205.314,141.994,196.16,139.873z M214.36,145.912c0,0-9.209-1.686-9.793-4.516
	c-0.586-2.856,0.529-4.407-2.585-6.665c-3.129-2.23,5.237-0.219,8.474,1.36c3.251,1.551,4.353,3.89,4.57,6.147
	C215.258,144.47,216.537,146.402,214.36,145.912z M237.227,141.206c-1.184,2.53-3.36,2.285-3.36,2.285
	c-2.408,0.925-5.686-0.68-2.367-2.612c3.32-1.931,1.197-5.685,0.858-7.127c-0.327-1.442,1.944-3.238,2.176-2.258
	c0.272,1.007,4.202,3.183,4.284,4.733C238.899,137.751,238.396,138.703,237.227,141.206z M248.203,136.228
	c-2.353,1.823-5.659,6.148-5.455,3.646c0,0-0.488-4.843,3.348-6.964c3.848-2.068,2.189,0.243,2.611,0.843
	C249.114,134.35,250.543,134.404,248.203,136.228z M252.746,136.282c0,0-2.803-6.039,2.217-7.264
	c5.034-1.225,7.169-2.231,8.271-4.789c1.115-2.583,5.468-3.019,0.667,2.558C259.099,132.364,254.297,139.628,252.746,136.282z
	 M266.118,135.167c-3.048,1.169-3.836,1.496-3.673-2.015c0.189-3.509,3.673-2.012,3.673-2.012
	C269.764,131.983,269.15,133.97,266.118,135.167z"/>
</svg>
