<?xml version="1.0" encoding="utf-8"?>
<!-- Generator: Adobe Illustrator 16.0.0, SVG Export Plug-In . SVG Version: 6.00 Build 0)  -->
<!DOCTYPE svg PUBLIC "-//W3C//DTD SVG 1.1//EN" "http://www.w3.org/Graphics/SVG/1.1/DTD/svg11.dtd">
<svg version="1.1" id="Layer_2" xmlns="http://www.w3.org/2000/svg" xmlns:xlink="http://www.w3.org/1999/xlink" x="0px" y="0px"
	 width="250px" height="250px" viewBox="0 0 250 250" enable-background="new 0 0 250 250" xml:space="preserve">
<path fill="#454548" stroke="#FFFFFF" stroke-width="0.7087" stroke-miterlimit="10" d="M125.361,25.895
	c-55.136,0-99.837,44.707-99.837,99.838c0,55.139,44.701,99.833,99.837,99.833s99.842-44.694,99.842-99.833
	C225.203,70.602,180.497,25.895,125.361,25.895z"/>
<path fill="#FFFFFF" d="M125.368,72.423c-19.999,0-36.217,16.106-36.217,35.978c0,10.166,9.972,28.373,9.972,28.373l24.913,42.264
	l25.993-41.767c0,0,11.548-17.376,11.548-28.87C161.576,88.529,145.362,72.423,125.368,72.423z M125.199,128.219
	c-11.455,0-20.731-9.279-20.731-20.747c0-11.449,9.277-20.722,20.731-20.722c11.451,0,20.737,9.272,20.737,20.722
	C145.937,118.939,136.65,128.219,125.199,128.219z"/>
</svg>
