<?xml version="1.0" encoding="utf-8"?>
<!-- Generator: Adobe Illustrator 16.0.0, SVG Export Plug-In . SVG Version: 6.00 Build 0)  -->
<!DOCTYPE svg PUBLIC "-//W3C//DTD SVG 1.1//EN" "http://www.w3.org/Graphics/SVG/1.1/DTD/svg11.dtd">
<svg version="1.1" id="Layer_3" xmlns="http://www.w3.org/2000/svg" xmlns:xlink="http://www.w3.org/1999/xlink" x="0px" y="0px"
	 width="460px" height="200px" viewBox="0 0 460 200" enable-background="new 0 0 460 200" xml:space="preserve">
<g>
	<g>
		<polygon fill-rule="evenodd" clip-rule="evenodd" fill="#3C3C3B" points="176.42,74.258 223.857,45.28 293.025,84.393 
			293.025,97.22 223.857,60.388 176.611,86.934 		"/>
		<polygon fill-rule="evenodd" clip-rule="evenodd" fill="#3C3C3B" points="176.42,111.921 223.857,91.119 293.025,120.91 
			293.025,131.323 223.857,106.375 176.611,124.583 		"/>
		<polygon fill-rule="evenodd" clip-rule="evenodd" fill="#3C3C3B" points="176.42,151.126 223.857,139.793 293.025,155.474 
			293.025,162.54 223.857,153.377 176.611,163.794 		"/>
	</g>
	<g>
		<polygon fill-rule="evenodd" clip-rule="evenodd" fill="#706F6F" points="176.42,92.222 223.857,69.758 293.025,103.441 
			293.025,114.046 223.857,85 176.611,104.892 		"/>
		<polygon fill-rule="evenodd" clip-rule="evenodd" fill="#706F6F" points="176.42,132.172 223.857,113.787 293.025,140.224 
			293.025,148.602 223.857,129.04 176.611,144.84 		"/>
		<polygon fill-rule="evenodd" clip-rule="evenodd" fill="#706F6F" points="302.131,54.209 302.131,31.445 283.934,31.445 
			283.934,43.202 225.002,7.564 150.503,56.249 150.517,77.545 225.002,32.937 333.647,94.817 333.647,73.265 		"/>
		<rect x="150.51" y="170.612" fill-rule="evenodd" clip-rule="evenodd" fill="#706F6F" width="183.137" height="20.951"/>
	</g>
</g>
</svg>
