<?xml version="1.0" encoding="utf-8"?>
<!-- Generator: Adobe Illustrator 16.0.0, SVG Export Plug-In . SVG Version: 6.00 Build 0)  -->
<!DOCTYPE svg PUBLIC "-//W3C//DTD SVG 1.1//EN" "http://www.w3.org/Graphics/SVG/1.1/DTD/svg11.dtd">
<svg version="1.1" id="Layer_3" xmlns="http://www.w3.org/2000/svg" xmlns:xlink="http://www.w3.org/1999/xlink" x="0px" y="0px"
	 width="200px" height="200px" viewBox="0 0 200 200" enable-background="new 0 0 200 200" xml:space="preserve">
<path fill="#414142" d="M159.95,161.687v-21.266h-3.542v-3.599h-1.976v-0.047h-1.871v0.047h-14.568v3.599h-4.112v8.629h-4.047
	v11.248h-4.85V75.8h-3.018v-7.603h-4.057v-4.829h-5.529V49.911h-2.068v13.458h-5.303v5.752h-4.373v7.915h-3.333v68.933h-2.808
	V96.142h-3.017v-9.351H87.8h-2.927v-9.089h-1.795V64.061h-1.251v13.642h-1.949v9.089H73.27v10.274h-3.432v37.292H54.437v19.521
	H30.709v27.53h-4.368v6.171c20.124-16.363,45.911-26.193,74.018-26.193c28.004,0,53.697,9.761,73.792,26.015v-25.715H159.95z"/>
<g>
	<rect x="137.959" y="142.771" fill="#FFFFFF" width="1.67" height="1.654"/>
	<rect x="141.305" y="146.079" fill="#FFFFFF" width="1.675" height="1.649"/>
	<rect x="144.655" y="142.771" fill="#FFFFFF" width="1.671" height="1.654"/>
	<rect x="151.348" y="146.079" fill="#FFFFFF" width="1.675" height="1.649"/>
	<rect x="134.612" y="149.383" fill="#FFFFFF" width="1.67" height="1.654"/>
	<rect x="144.655" y="149.383" fill="#FFFFFF" width="1.671" height="1.654"/>
	<rect x="147.997" y="152.687" fill="#FFFFFF" width="1.68" height="1.654"/>
	<rect x="137.959" y="155.994" fill="#FFFFFF" width="1.67" height="1.649"/>
	<rect x="141.305" y="159.298" fill="#FFFFFF" width="1.675" height="1.653"/>
	<rect x="144.655" y="155.994" fill="#FFFFFF" width="1.671" height="1.649"/>
	<rect x="151.348" y="155.994" fill="#FFFFFF" width="1.675" height="1.649"/>
	<rect x="134.612" y="162.602" fill="#FFFFFF" width="1.67" height="1.652"/>
	<rect x="141.305" y="165.908" fill="#FFFFFF" width="1.675" height="1.65"/>
	<rect x="147.997" y="165.908" fill="#FFFFFF" width="1.68" height="1.65"/>
	<rect x="154.693" y="162.602" fill="#FFFFFF" width="1.676" height="1.652"/>
	<rect x="164.736" y="165.908" fill="#FFFFFF" width="1.676" height="1.65"/>
	<rect x="154.693" y="169.212" fill="#FFFFFF" width="1.676" height="1.654"/>
	<rect x="164.736" y="172.517" fill="#FFFFFF" width="1.676" height="1.652"/>
	<rect x="171.434" y="172.517" fill="#FFFFFF" width="1.675" height="1.652"/>
	<rect x="55.945" y="141.117" fill="#FFFFFF" width="1.671" height="1.654"/>
	<rect x="59.291" y="137.813" fill="#FFFFFF" width="1.671" height="1.654"/>
	<rect x="65.988" y="137.813" fill="#FFFFFF" width="1.675" height="1.654"/>
	<rect x="62.642" y="141.117" fill="#FFFFFF" width="1.671" height="1.654"/>
	<rect x="65.988" y="141.117" fill="#FFFFFF" width="1.675" height="1.654"/>
	<rect x="55.945" y="144.426" fill="#FFFFFF" width="1.671" height="1.653"/>
	<rect x="59.291" y="144.426" fill="#FFFFFF" width="1.671" height="1.653"/>
	<rect x="62.642" y="147.729" fill="#FFFFFF" width="1.671" height="1.654"/>
	<rect x="65.988" y="147.729" fill="#FFFFFF" width="1.675" height="1.654"/>
	<rect x="32.513" y="157.644" fill="#FFFFFF" width="1.67" height="1.654"/>
	<rect x="32.513" y="160.951" fill="#FFFFFF" width="1.67" height="1.65"/>
	<rect x="35.859" y="160.951" fill="#FFFFFF" width="1.67" height="1.65"/>
	<rect x="39.206" y="157.644" fill="#FFFFFF" width="1.675" height="1.654"/>
	<rect x="45.902" y="157.644" fill="#FFFFFF" width="1.675" height="1.654"/>
	<rect x="42.552" y="160.951" fill="#FFFFFF" width="1.675" height="1.65"/>
	<rect x="45.902" y="160.951" fill="#FFFFFF" width="1.675" height="1.65"/>
	<rect x="55.945" y="151.037" fill="#FFFFFF" width="1.671" height="1.649"/>
	<rect x="55.945" y="154.341" fill="#FFFFFF" width="1.671" height="1.653"/>
	<rect x="65.988" y="151.037" fill="#FFFFFF" width="1.675" height="1.649"/>
	<rect x="59.291" y="154.341" fill="#FFFFFF" width="1.671" height="1.653"/>
	<rect x="65.988" y="154.341" fill="#FFFFFF" width="1.675" height="1.653"/>
	<rect x="55.945" y="160.951" fill="#FFFFFF" width="1.671" height="1.65"/>
	<rect x="62.642" y="157.644" fill="#FFFFFF" width="1.671" height="1.654"/>
	<rect x="65.988" y="160.951" fill="#FFFFFF" width="1.675" height="1.65"/>
	<rect x="39.206" y="164.254" fill="#FFFFFF" width="1.675" height="1.654"/>
	<rect x="35.859" y="167.559" fill="#FFFFFF" width="1.67" height="1.653"/>
	<rect x="39.206" y="170.866" fill="#FFFFFF" width="1.675" height="1.65"/>
	<rect x="32.513" y="174.169" fill="#FFFFFF" width="1.67" height="1.654"/>
	<rect x="45.902" y="164.254" fill="#FFFFFF" width="1.675" height="1.654"/>
	<rect x="49.248" y="167.559" fill="#FFFFFF" width="1.675" height="1.653"/>
	<rect x="59.291" y="164.254" fill="#FFFFFF" width="1.671" height="1.654"/>
	<rect x="84.398" y="99.809" fill="#FFFFFF" width="1.671" height="1.649"/>
	<rect x="87.749" y="103.112" fill="#FFFFFF" width="1.671" height="1.654"/>
	<rect x="84.398" y="106.416" fill="#FFFFFF" width="1.671" height="1.653"/>
	<rect x="84.398" y="109.719" fill="#FFFFFF" width="1.671" height="1.654"/>
	<rect x="81.052" y="103.112" fill="#FFFFFF" width="1.675" height="1.654"/>
	<rect x="77.702" y="106.416" fill="#FFFFFF" width="1.676" height="1.653"/>
	<rect x="77.702" y="109.719" fill="#FFFFFF" width="1.676" height="1.654"/>
	<rect x="74.355" y="99.809" fill="#FFFFFF" width="1.675" height="1.649"/>
	<rect x="71.009" y="99.809" fill="#FFFFFF" width="1.671" height="1.649"/>
	<rect x="71.009" y="103.112" fill="#FFFFFF" width="1.671" height="1.654"/>
	<rect x="71.009" y="109.719" fill="#FFFFFF" width="1.671" height="1.654"/>
	<rect x="77.702" y="122.942" fill="#FFFFFF" width="1.676" height="1.654"/>
	<rect x="74.355" y="119.639" fill="#FFFFFF" width="1.675" height="1.649"/>
	<rect x="74.355" y="113.027" fill="#FFFFFF" width="1.675" height="1.654"/>
	<rect x="77.702" y="116.331" fill="#FFFFFF" width="1.676" height="1.653"/>
	<rect x="81.052" y="122.942" fill="#FFFFFF" width="1.675" height="1.654"/>
	<rect x="81.052" y="119.639" fill="#FFFFFF" width="1.675" height="1.649"/>
	<rect x="84.398" y="116.331" fill="#FFFFFF" width="1.671" height="1.653"/>
	<rect x="87.749" y="122.942" fill="#FFFFFF" width="1.671" height="1.654"/>
	<rect x="87.749" y="113.027" fill="#FFFFFF" width="1.671" height="1.654"/>
	<rect x="91.095" y="119.639" fill="#FFFFFF" width="1.671" height="1.649"/>
	<rect x="91.095" y="113.027" fill="#FFFFFF" width="1.671" height="1.654"/>
	<rect x="74.355" y="126.249" fill="#FFFFFF" width="1.675" height="1.65"/>
	<rect x="77.702" y="129.553" fill="#FFFFFF" width="1.676" height="1.65"/>
	<rect x="81.052" y="126.249" fill="#FFFFFF" width="1.675" height="1.65"/>
	<rect x="87.749" y="129.553" fill="#FFFFFF" width="1.671" height="1.65"/>
	<rect x="71.009" y="132.857" fill="#FFFFFF" width="1.671" height="1.653"/>
	<rect x="81.052" y="132.857" fill="#FFFFFF" width="1.675" height="1.653"/>
	<rect x="84.398" y="136.16" fill="#FFFFFF" width="1.671" height="1.653"/>
	<rect x="91.095" y="126.249" fill="#FFFFFF" width="1.671" height="1.65"/>
	<rect x="91.095" y="132.857" fill="#FFFFFF" width="1.671" height="1.653"/>
	<rect x="77.702" y="152.687" fill="#FFFFFF" width="1.676" height="1.654"/>
	<rect x="81.052" y="155.994" fill="#FFFFFF" width="1.675" height="1.649"/>
	<rect x="81.052" y="149.383" fill="#FFFFFF" width="1.675" height="1.654"/>
	<rect x="77.702" y="146.079" fill="#FFFFFF" width="1.676" height="1.649"/>
	<rect x="81.052" y="139.468" fill="#FFFFFF" width="1.675" height="1.649"/>
	<rect x="84.398" y="155.994" fill="#FFFFFF" width="1.671" height="1.649"/>
	<rect x="87.749" y="142.771" fill="#FFFFFF" width="1.671" height="1.654"/>
	<rect x="77.702" y="136.16" fill="#FFFFFF" width="1.676" height="1.653"/>
	<rect x="84.398" y="136.16" fill="#FFFFFF" width="1.671" height="1.653"/>
	<rect x="84.398" y="89.89" fill="#FFFFFF" width="1.671" height="1.654"/>
	<rect x="77.702" y="93.198" fill="#FFFFFF" width="1.676" height="1.65"/>
	<rect x="81.052" y="96.501" fill="#FFFFFF" width="1.675" height="1.653"/>
	<rect x="87.749" y="93.198" fill="#FFFFFF" width="1.671" height="1.65"/>
	<rect x="106.159" y="127.899" fill="#FFFFFF" width="1.671" height="1.653"/>
	<rect x="102.808" y="124.597" fill="#FFFFFF" width="1.676" height="1.652"/>
	<rect x="112.852" y="141.117" fill="#FFFFFF" width="1.675" height="1.654"/>
	<rect x="106.159" y="117.984" fill="#FFFFFF" width="1.671" height="1.654"/>
	<rect x="109.505" y="124.597" fill="#FFFFFF" width="1.671" height="1.652"/>
	<rect x="112.852" y="121.288" fill="#FFFFFF" width="1.675" height="1.654"/>
	<rect x="119.548" y="127.899" fill="#FFFFFF" width="1.671" height="1.653"/>
	<rect x="119.548" y="124.597" fill="#FFFFFF" width="1.671" height="1.652"/>
	<rect x="119.548" y="117.984" fill="#FFFFFF" width="1.671" height="1.654"/>
	<rect x="112.852" y="104.767" fill="#FFFFFF" width="1.675" height="1.649"/>
	<rect x="116.201" y="108.069" fill="#FFFFFF" width="1.671" height="1.649"/>
	<rect x="116.201" y="114.682" fill="#FFFFFF" width="1.671" height="1.649"/>
	<rect x="109.505" y="108.069" fill="#FFFFFF" width="1.671" height="1.649"/>
	<rect x="106.159" y="111.373" fill="#FFFFFF" width="1.671" height="1.654"/>
	<rect x="102.808" y="104.767" fill="#FFFFFF" width="1.676" height="1.649"/>
	<rect x="99.463" y="104.767" fill="#FFFFFF" width="1.67" height="1.649"/>
	<rect x="102.808" y="114.682" fill="#FFFFFF" width="1.676" height="1.649"/>
	<rect x="99.463" y="114.682" fill="#FFFFFF" width="1.67" height="1.649"/>
	<rect x="116.201" y="101.458" fill="#FFFFFF" width="1.671" height="1.654"/>
	<rect x="119.548" y="98.154" fill="#FFFFFF" width="1.671" height="1.654"/>
	<rect x="112.852" y="98.154" fill="#FFFFFF" width="1.675" height="1.654"/>
	<rect x="109.505" y="101.458" fill="#FFFFFF" width="1.671" height="1.654"/>
	<rect x="119.548" y="94.848" fill="#FFFFFF" width="1.671" height="1.654"/>
	<rect x="102.808" y="94.848" fill="#FFFFFF" width="1.676" height="1.654"/>
	<rect x="106.159" y="91.544" fill="#FFFFFF" width="1.671" height="1.654"/>
	<rect x="99.463" y="101.458" fill="#FFFFFF" width="1.67" height="1.654"/>
	<rect x="99.463" y="94.848" fill="#FFFFFF" width="1.67" height="1.654"/>
	<rect x="112.852" y="75.018" fill="#FFFFFF" width="1.675" height="1.654"/>
	<rect x="112.852" y="81.629" fill="#FFFFFF" width="1.675" height="1.649"/>
	<rect x="119.548" y="86.587" fill="#FFFFFF" width="1.671" height="1.654"/>
	<rect x="109.505" y="88.241" fill="#FFFFFF" width="1.671" height="1.648"/>
	<rect x="104.483" y="71.715" fill="#FFFFFF" width="1.676" height="1.653"/>
	<rect x="106.159" y="81.629" fill="#FFFFFF" width="1.671" height="1.649"/>
	<rect x="106.159" y="88.241" fill="#FFFFFF" width="1.671" height="1.648"/>
	<rect x="102.808" y="84.933" fill="#FFFFFF" width="1.676" height="1.654"/>
	<rect x="112.852" y="91.544" fill="#FFFFFF" width="1.675" height="1.654"/>
	<rect x="106.159" y="91.544" fill="#FFFFFF" width="1.671" height="1.654"/>
	<rect x="106.159" y="137.813" fill="#FFFFFF" width="1.671" height="1.654"/>
	<rect x="112.852" y="134.511" fill="#FFFFFF" width="1.675" height="1.649"/>
	<rect x="109.505" y="131.203" fill="#FFFFFF" width="1.671" height="1.654"/>
	<rect x="102.808" y="134.511" fill="#FFFFFF" width="1.676" height="1.649"/>
	<rect x="94.441" y="157.644" fill="#FFFFFF" width="1.671" height="1.654"/>
	<rect x="101.133" y="151.037" fill="#FFFFFF" width="1.675" height="1.649"/>
	<rect x="114.526" y="154.341" fill="#FFFFFF" width="1.675" height="1.653"/>
	<rect x="107.83" y="151.037" fill="#FFFFFF" width="1.675" height="1.649"/>
	<rect x="119.548" y="141.117" fill="#FFFFFF" width="1.671" height="1.654"/>
	<rect x="119.548" y="149.383" fill="#FFFFFF" width="1.671" height="1.654"/>
	<rect x="119.548" y="159.298" fill="#FFFFFF" width="1.671" height="1.653"/>
	<rect x="101.133" y="147.729" fill="#FFFFFF" width="1.675" height="1.654"/>
</g>
</svg>
