<?xml version="1.0" encoding="utf-8"?>
<!-- Generator: Adobe Illustrator 16.0.0, SVG Export Plug-In . SVG Version: 6.00 Build 0)  -->
<!DOCTYPE svg PUBLIC "-//W3C//DTD SVG 1.1//EN" "http://www.w3.org/Graphics/SVG/1.1/DTD/svg11.dtd">
<svg version="1.1" id="Layer_2" xmlns="http://www.w3.org/2000/svg" xmlns:xlink="http://www.w3.org/1999/xlink" x="0px" y="0px"
	 width="250px" height="250px" viewBox="0 0 250 250" enable-background="new 0 0 250 250" xml:space="preserve">
<path fill="#FFFFFF" d="M125.878,25.459c-55.457,0-100.418,44.968-100.418,100.42c0,55.46,44.961,100.415,100.418,100.415
	c55.458,0,100.425-44.954,100.425-100.415C226.304,70.427,181.336,25.459,125.878,25.459z"/>
<path fill="#454548" d="M184.461,168.571v7.558H67.305v-7.558h14.914v-52.406c0-5.883,2.241-6.694,5.006-6.694h3.115
	c2.764,0,5.005,0.811,5.005,6.694v52.406h5.452V155.26c0-5.884,2.241-6.693,5.007-6.693h3.113c2.767,0,5.006,0.81,5.006,6.693
	v13.312h5.07v-41.992c0-5.882,2.239-6.687,5.004-6.687h3.112c2.761,0,5.003,0.804,5.003,6.687v41.992h5.054v-21.979
	c0-5.891,2.236-6.694,5.002-6.694h3.119c2.766,0,5,0.804,5,6.694v21.979h4.996V94.748c0-0.321,0.032-0.575,0.045-0.87h-5.707
	l12.239-18.254l12.258,18.254h-5.752c0.013,0.294,0.045,0.549,0.045,0.87v73.823H184.461z"/>
</svg>
