<?xml version="1.0" encoding="utf-8"?>
<!-- Generator: Adobe Illustrator 16.0.0, SVG Export Plug-In . SVG Version: 6.00 Build 0)  -->
<!DOCTYPE svg PUBLIC "-//W3C//DTD SVG 1.1//EN" "http://www.w3.org/Graphics/SVG/1.1/DTD/svg11.dtd">
<svg version="1.1" id="Layer_2" xmlns="http://www.w3.org/2000/svg" xmlns:xlink="http://www.w3.org/1999/xlink" x="0px" y="0px"
	 width="250px" height="250px" viewBox="0 0 250 250" enable-background="new 0 0 250 250" xml:space="preserve">
<path fill="#454548" stroke="#FFFFFF" stroke-width="0.7087" stroke-miterlimit="10" d="M126.415,26.042
	c-55.136,0-99.837,44.707-99.837,99.838c0,55.138,44.701,99.833,99.837,99.833c55.136,0,99.842-44.694,99.842-99.833
	C226.257,70.75,181.551,26.042,126.415,26.042z"/>
<path fill="#FFFFFF" d="M147.809,121.442c-0.328-1.08-1.505-1.807-2.619-1.618l-10.903,1.859c-1.108-1.667-2.373-3.208-3.771-4.599
	l3.956-10.325c0.402-1.056-0.079-2.35-1.077-2.886l-8.665-4.638c-0.99-0.53-2.342-0.211-2.999,0.705l-6.393,9.028
	c-1.931-0.39-3.913-0.584-5.918-0.584l-4.506-10.102c-0.459-1.027-1.718-1.608-2.8-1.28l-9.404,2.854
	c-1.079,0.325-1.81,1.508-1.622,2.616l1.864,10.903c-1.671,1.109-3.211,2.373-4.602,3.771l-10.327-3.952
	c-1.058-0.403-2.354,0.083-2.889,1.075l-4.631,8.662c-0.531,1-0.218,2.345,0.707,2.994l9.022,6.397
	c-0.388,1.93-0.583,3.913-0.582,5.921l-10.105,4.504c-1.025,0.459-1.603,1.723-1.276,2.796l2.85,9.411
	c0.327,1.076,1.506,1.808,2.618,1.619l10.906-1.862c1.113,1.674,2.376,3.207,3.771,4.599l-3.954,10.335
	c-0.405,1.053,0.079,2.349,1.073,2.88l8.665,4.634c0.999,0.533,2.345,0.214,2.999-0.709l6.394-9.021
	c1.929,0.387,3.913,0.585,5.918,0.58l4.508,10.104c0.459,1.031,1.723,1.605,2.799,1.274l9.404-2.847
	c1.083-0.325,1.808-1.505,1.622-2.619l-1.865-10.903c1.67-1.116,3.212-2.376,4.602-3.774l10.329,3.962
	c1.053,0.4,2.353-0.081,2.886-1.076l4.634-8.671c0.531-0.994,0.215-2.339-0.707-2.989l-9.026-6.399
	c0.394-1.935,0.589-3.916,0.586-5.919l10.1-4.504c1.037-0.461,1.604-1.726,1.281-2.802L147.809,121.442z M114.649,155.306
	c-9.451,2.863-19.433-2.477-22.296-11.921c-2.863-9.451,2.477-19.433,11.924-22.297c9.448-2.863,19.433,2.48,22.295,11.923
	C129.439,142.461,124.097,152.443,114.649,155.306z M121.644,134.505c2.041,6.729-1.759,13.832-8.488,15.874
	c-6.727,2.038-13.832-1.762-15.871-8.489c-2.036-6.731,1.76-13.835,8.487-15.873C112.501,123.977,119.605,127.778,121.644,134.505z
	 M183.76,106.217l-6.281-4.092c0.139-1.323,0.146-2.675,0-4.05c-0.14-1.378-0.423-2.697-0.825-3.964l5.315-5.292
	c0.661-0.656,0.757-1.82,0.206-2.58l-3.426-4.732c-0.55-0.761-1.678-1.034-2.514-0.608l-6.691,3.396
	c-2.17-1.579-4.67-2.709-7.351-3.289l-1.921-7.251c-0.24-0.903-1.195-1.563-2.129-1.472l-5.813,0.604
	c-0.937,0.098-1.735,0.939-1.788,1.872l-0.402,7.491c-2.503,1.111-4.723,2.733-6.523,4.719l-7.237-1.959
	c-0.907-0.244-1.957,0.253-2.344,1.111l-2.389,5.336c-0.377,0.854-0.049,1.976,0.734,2.483l6.282,4.092
	c-0.133,1.323-0.139,2.675,0,4.049c0.143,1.375,0.426,2.701,0.825,3.969l-5.311,5.281c-0.662,0.666-0.757,1.823-0.211,2.577
	l3.429,4.745c0.55,0.754,1.68,1.03,2.516,0.604l6.686-3.399c2.17,1.58,4.673,2.71,7.351,3.292l1.926,7.249
	c0.243,0.903,1.198,1.566,2.131,1.472l5.814-0.601c0.929-0.098,1.732-0.939,1.784-1.875l0.403-7.489
	c2.506-1.115,4.722-2.733,6.522-4.725l7.241,1.963c0.903,0.244,1.956-0.254,2.334-1.112l2.395-5.333
	C184.882,107.845,184.546,106.727,183.76,106.217z M159.136,110.373c-5.686,0.585-10.769-3.549-11.354-9.229
	c-0.59-5.688,3.543-10.771,9.231-11.359c5.681-0.585,10.766,3.549,11.355,9.233C168.954,104.702,164.819,109.785,159.136,110.373z"
	/>
</svg>
