<?xml version="1.0" encoding="utf-8"?>
<!-- Generator: Adobe Illustrator 16.0.0, SVG Export Plug-In . SVG Version: 6.00 Build 0)  -->
<!DOCTYPE svg PUBLIC "-//W3C//DTD SVG 1.1//EN" "http://www.w3.org/Graphics/SVG/1.1/DTD/svg11.dtd">
<svg version="1.1" id="Layer_2" xmlns="http://www.w3.org/2000/svg" xmlns:xlink="http://www.w3.org/1999/xlink" x="0px" y="0px"
	 width="250px" height="250px" viewBox="0 0 250 250" enable-background="new 0 0 250 250" xml:space="preserve">
<path fill="#454548" stroke="#FFFFFF" stroke-width="1.4173" stroke-miterlimit="10" d="M125.391,22.994
	c-55.831,0-101.09,45.266-101.09,101.087c0,55.829,45.26,101.082,101.09,101.082c55.822,0,101.088-45.253,101.088-101.082
	C226.479,68.26,181.213,22.994,125.391,22.994z"/>
<path fill="#FFFFFF" d="M166.938,71.128H84.508c-7.811,0-14.208,6.397-14.208,14.214v75.318c0,7.813,6.396,14.211,14.208,14.211
	h2.109c0.243,3.533,3.155,6.334,6.758,6.334c3.591,0,6.502-2.801,6.745-6.334h51.211c0.238,3.533,3.154,6.334,6.747,6.334
	c3.596,0,6.508-2.801,6.751-6.334h2.11c7.816,0,14.213-6.397,14.213-14.211V85.343C181.151,77.525,174.755,71.128,166.938,71.128z
	 M115.537,156.168c-18.311,0-33.155-14.851-33.155-33.167c0-18.313,14.844-33.16,33.155-33.16c18.317,0,33.164,14.847,33.164,33.16
	C148.701,141.317,133.854,156.168,115.537,156.168z M166.934,115.687v23.441c0,1.913-1.551,3.466-3.47,3.466
	c-1.915,0-3.468-1.553-3.468-3.466v-23.441c-1.896-1.168-3.163-3.254-3.163-5.646c0-3.658,2.97-6.632,6.634-6.632
	c3.661,0,6.634,2.975,6.634,6.632C170.101,112.433,168.83,114.519,166.934,115.687z M114.438,101.181v-7.27
	c0-0.787,0.629-1.423,1.417-1.423c0.787,0,1.421,0.636,1.421,1.423v7.27c0,0.777-0.634,1.417-1.421,1.417
	C115.067,102.597,114.438,101.958,114.438,101.181z M97.816,100.232c-0.465-0.637-0.325-1.525,0.309-1.985
	c0.637-0.462,1.528-0.321,1.987,0.315l4.271,5.878c0.462,0.637,0.322,1.526-0.312,1.988c-0.256,0.181-0.547,0.269-0.837,0.269
	c-0.439,0-0.873-0.203-1.15-0.587L97.816,100.232z M96.786,116.454c-0.193,0.597-0.75,0.978-1.348,0.978
	c-0.148,0-0.296-0.02-0.443-0.065l-6.912-2.248c-0.748-0.239-1.155-1.042-0.915-1.794c0.249-0.738,1.046-1.148,1.794-0.912
	l6.912,2.25C96.622,114.903,97.029,115.706,96.786,116.454z M96.786,128.845c0.243,0.745-0.164,1.549-0.912,1.787l-6.912,2.248
	c-0.145,0.045-0.292,0.068-0.44,0.068c-0.6,0-1.155-0.384-1.354-0.983c-0.24-0.742,0.17-1.55,0.915-1.788l6.912-2.251
	C95.742,127.683,96.543,128.098,96.786,128.845z M104.072,138.866c0.634,0.459,0.774,1.353,0.312,1.987l-4.271,5.875
	c-0.278,0.388-0.711,0.584-1.151,0.584c-0.286,0-0.58-0.085-0.836-0.265c-0.63-0.463-0.774-1.355-0.309-1.984l4.269-5.88
	C102.542,138.544,103.435,138.403,104.072,138.866z M117.276,144.115l0.003,7.269c0,0.787-0.64,1.418-1.424,1.418
	c-0.78,0-1.417-0.631-1.417-1.418v-7.269c0-0.781,0.636-1.418,1.417-1.418C116.639,142.697,117.276,143.334,117.276,144.115z
	 M133.901,145.063c0.458,0.629,0.317,1.521-0.319,1.984c-0.249,0.18-0.544,0.265-0.83,0.265c-0.443,0-0.872-0.196-1.154-0.579
	l-4.271-5.88c-0.463-0.64-0.32-1.522,0.319-1.987c0.636-0.463,1.519-0.322,1.981,0.317L133.901,145.063z M144.535,131.965
	c-0.19,0.6-0.748,0.983-1.348,0.983c-0.142,0-0.293-0.023-0.44-0.068l-6.911-2.248c-0.745-0.246-1.152-1.049-0.912-1.791
	c0.243-0.743,1.047-1.158,1.794-0.915l6.903,2.251C144.374,130.415,144.778,131.22,144.535,131.965z M135.836,114.66l6.911-2.247
	c0.752-0.24,1.55,0.167,1.788,0.909c0.243,0.754-0.161,1.555-0.914,1.797l-6.903,2.248c-0.144,0.045-0.298,0.065-0.446,0.065
	c-0.593,0-1.15-0.384-1.348-0.98C134.684,115.703,135.091,114.899,135.836,114.66z M115.537,105.478
	c1.594,0,3.123,0.229,4.589,0.626l7.696-2.339l3.775-5.203c0.463-0.633,1.348-0.778,1.984-0.315
	c0.637,0.459,0.777,1.348,0.314,1.985l-4.14,5.698l-0.325,6.41c2.271,2.956,3.636,6.646,3.636,10.66
	c0,9.681-7.85,17.525-17.53,17.525c-9.677,0-17.524-7.844-17.524-17.525C98.013,113.322,105.86,105.478,115.537,105.478z"/>
</svg>
