<?xml version="1.0" encoding="utf-8"?>
<!-- Generator: Adobe Illustrator 16.0.0, SVG Export Plug-In . SVG Version: 6.00 Build 0)  -->
<!DOCTYPE svg PUBLIC "-//W3C//DTD SVG 1.1//EN" "http://www.w3.org/Graphics/SVG/1.1/DTD/svg11.dtd">
<svg version="1.1" id="Layer_1" xmlns="http://www.w3.org/2000/svg" xmlns:xlink="http://www.w3.org/1999/xlink" x="0px" y="0px"
	 width="300px" height="300px" viewBox="0 0 300 300" enable-background="new 0 0 300 300" xml:space="preserve">
<path fill="#FFFFFF" d="M259.568,139.083c-3.662,0-12.57,4.098-18.901,7.283H226.21c-0.86-18.525-8.304-35.252-20.049-48.031
	l9.558-9.552c6.775-2.21,16.738-5.819,19.5-8.555c4.253-4.26,4.253-11.16,0-15.425c-4.278-4.253-11.171-4.253-15.449,0
	c-2.61,2.593-6.01,11.805-8.237,18.531l-10.197,10.198c-12.851-11.679-29.626-19.003-48.151-19.768V60.251
	c3.215-6.356,7.731-15.962,7.731-19.839c0-6.022-4.904-10.903-10.909-10.903c-6.033,0-10.932,4.881-10.932,10.903
	c0,3.685,4.11,12.587,7.288,18.925v14.463c-18.519,0.86-35.258,8.292-48.019,20.019l-9.558-9.535
	c-2.21-6.78-5.807-16.757-8.548-19.505c-4.26-4.253-11.183-4.253-15.449,0c-4.248,4.271-4.248,11.171,0,15.425
	c2.616,2.64,11.828,6.033,18.537,8.238l10.209,10.246c-11.578,12.712-18.872,29.325-19.75,47.659H59.34
	c-6.339-3.19-15.216-7.264-18.896-7.264c-6.058,0-10.944,4.881-10.944,10.909c0,6.033,4.887,10.908,10.944,10.908
	c3.841,0,13.441-4.505,19.809-7.725h13.531c0.753,18.525,8.095,35.307,19.75,48.12L83.35,211.499
	c-6.733,2.223-15.927,5.627-18.544,8.268c-4.265,4.271-4.265,11.171,0,15.412c4.266,4.277,11.171,4.277,15.431,0
	c2.742-2.735,6.338-12.688,8.566-19.475l9.54-9.559c12.785,11.732,29.524,19.177,48.019,20.049v14.445
	c-3.178,6.32-7.288,15.244-7.288,18.938c0,6.01,4.899,10.914,10.932,10.914c6.022,0,10.921-4.904,10.921-10.914
	c0-3.871-4.528-13.495-7.743-19.845V226.23c18.525-0.776,35.318-8.112,48.151-19.762l10.197,10.185
	c2.252,6.733,5.627,15.934,8.237,18.525c4.278,4.277,11.171,4.277,15.449,0c4.253-4.241,4.253-11.142,0-15.412
	c-2.749-2.76-12.725-6.368-19.5-8.578l-9.558-9.535c11.857-12.886,19.313-29.786,20.084-48.479h13.501
	c6.375,3.231,15.975,7.725,19.857,7.725c6.021,0,10.896-4.875,10.896-10.908C270.5,143.963,265.613,139.083,259.568,139.083z
	 M103.821,108.95l25.838,25.868c-2.473,3.297-4.123,7.246-4.768,11.529H88.343C89.191,132.033,94.867,119.046,103.821,108.95z
	 M88.308,153.175h36.548c0.573,4.48,2.246,8.572,4.815,12.008l-25.85,25.838C94.783,180.853,89.054,167.686,88.308,153.175z
	 M146.362,211.631c-14.493-0.819-27.611-6.632-37.737-15.795l25.825-25.814c3.394,2.634,7.444,4.415,11.912,5.048V211.631z
	 M146.362,124.889c-4.468,0.651-8.519,2.425-11.912,5.059l-25.825-25.813c10.126-9.134,23.245-14.947,37.737-15.795V124.889z
	 M211.669,146.365h-36.572c-0.657-4.463-2.426-8.525-5.054-11.918l25.831-25.826C205.009,118.748,210.814,131.866,211.669,146.365z
	 M191.035,103.813l-25.855,25.843c-3.436-2.574-7.521-4.259-11.996-4.796V88.328C167.688,89.057,180.854,94.768,191.035,103.813z
	 M153.184,211.642v-36.524c4.476-0.544,8.561-2.229,11.996-4.791l25.855,25.844C180.854,205.22,167.688,210.919,153.184,211.642z
	 M195.874,191.343l-25.831-25.819c2.723-3.501,4.504-7.725,5.107-12.349h36.53C210.952,167.854,205.109,181.127,195.874,191.343z"/>
</svg>
