<?xml version="1.0" encoding="utf-8"?>
<!-- Generator: Adobe Illustrator 16.0.0, SVG Export Plug-In . SVG Version: 6.00 Build 0)  -->
<!DOCTYPE svg PUBLIC "-//W3C//DTD SVG 1.1//EN" "http://www.w3.org/Graphics/SVG/1.1/DTD/svg11.dtd">
<svg version="1.1" id="Layer_2" xmlns="http://www.w3.org/2000/svg" xmlns:xlink="http://www.w3.org/1999/xlink" x="0px" y="0px"
	 width="460px" height="200px" viewBox="0 0 460 200" enable-background="new 0 0 460 200" xml:space="preserve">
<g>
	<g>
		<path fill-rule="evenodd" clip-rule="evenodd" fill="#878787" d="M244.309,167.723l51.323-12.322
			c1,4.802,3.831,8.935,7.741,11.622l-57.326,13.761C237.565,182.814,235.839,169.751,244.309,167.723z"/>
		<path fill-rule="evenodd" clip-rule="evenodd" fill="#878787" d="M286.425,111.528l33.388,30.715
			c6.415,5.893-2.565,15.536-8.979,9.638l-34.258-31.521C280.831,118.706,284.334,115.545,286.425,111.528z"/>
		<path fill-rule="evenodd" clip-rule="evenodd" fill="#878787" d="M216.519,123.638l39.729-20.978
			c7.699-4.074,13.793,7.608,6.085,11.675l-41.471,21.91c0.003-0.199,0.014-0.398,0.014-0.604
			C220.875,131.075,219.234,126.893,216.519,123.638z"/>
		<path fill-rule="evenodd" clip-rule="evenodd" fill="#878787" d="M194.148,138.85l-24.531-39.289
			c4.732-0.089,9.047-1.952,12.304-4.941l23.928,38.206C210.473,140.209,198.765,146.233,194.148,138.85z"/>
		<path fill-rule="evenodd" clip-rule="evenodd" fill="#878787" d="M176.359,75.025l33.037-3.179
			c-0.494,1.672-0.754,3.437-0.754,5.263c0,2.481,0.48,4.847,1.357,7.016l-32.255,3.104
			C169.662,88.004,168.28,75.805,176.359,75.025z"/>
		<path fill-rule="evenodd" clip-rule="evenodd" fill="#878787" d="M230.305,66.788l22.853-16.595
			c2.602,3.834,6.379,6.817,10.817,8.411l-25.555,18.564C231.371,82.284,223.259,71.913,230.305,66.788z"/>
		<path fill-rule="evenodd" clip-rule="evenodd" fill="#878787" d="M207.29,21.261l54.133,3.366
			c8.697,0.541,7.885,13.687-0.814,13.148l-53.487-3.327c0.825-2.103,1.281-4.401,1.281-6.804
			C208.402,25.402,208.004,23.257,207.29,21.261z"/>
	</g>
	<g>
		<path fill-rule="evenodd" clip-rule="evenodd" fill="#575756" d="M244.316,154.916c-10.354,0-18.735,8.392-18.735,18.739
			c0,10.35,8.382,18.737,18.735,18.737c8.242,0,15.244-5.322,17.743-12.719l-15.396,3.691c-4.044,0.978-7.083-0.52-8.876-3.059
			c-0.723-1.024-1.223-2.204-1.481-3.44c-0.255-1.21-0.281-2.489-0.082-3.741c0.575-3.543,2.975-6.911,7.469-7.991l14.92-3.579
			C255.18,157.502,250.049,154.916,244.316,154.916z"/>
		<path fill-rule="evenodd" clip-rule="evenodd" fill="#575756" d="M313.982,132.841l-0.444,0.008l8.076,7.429
			c3.235,2.974,3.666,6.665,2.486,9.801c-0.45,1.18-1.134,2.27-1.982,3.188c-0.852,0.917-1.882,1.693-3.022,2.236v0.003
			c-3.049,1.452-6.813,1.33-10.075-1.663l-11.728-10.797c-1.304,2.561-2.049,5.461-2.049,8.537c0,10.343,8.389,18.731,18.738,18.731
			s18.738-8.389,18.738-18.731C332.721,141.229,324.332,132.841,313.982,132.841z"/>
		<path fill-rule="evenodd" clip-rule="evenodd" fill="#575756" d="M269.798,84.146c-10.177,0-18.456,8.113-18.734,18.228
			l3.938-2.074c3.885-2.054,7.51-1.227,10.068,0.941c0.961,0.815,1.76,1.822,2.343,2.937c0.586,1.109,0.965,2.34,1.094,3.596
			c0.348,3.356-1.024,6.857-4.936,8.918l-3.811,2.015c2.903,1.844,6.35,2.91,10.038,2.91c10.351,0,18.735-8.388,18.735-18.734
			C288.533,92.539,280.148,84.146,269.798,84.146z"/>
		<path fill-rule="evenodd" clip-rule="evenodd" fill="#575756" d="M202.135,116.903c-1.016,0-2.01,0.087-2.968,0.235l8.934,14.277
			c2.237,3.569,1.764,6.983-0.1,9.528c-0.739,1.008-1.7,1.866-2.794,2.513c-1.063,0.629-2.271,1.073-3.521,1.285
			c-3.502,0.583-7.376-0.596-9.802-4.486l-7.181-11.495c-0.85,2.125-1.311,4.448-1.311,6.881c0,10.347,8.394,18.738,18.741,18.738
			c10.346,0,18.74-8.392,18.74-18.738C220.875,125.292,212.48,116.903,202.135,116.903z"/>
		<path fill-rule="evenodd" clip-rule="evenodd" fill="#575756" d="M169.241,62.09c-10.352,0-18.741,8.392-18.741,18.74
			c0,10.35,8.39,18.734,18.741,18.734c7.448,0,13.888-4.348,16.904-10.651l-8.166,0.782c-4.12,0.398-7.015-1.65-8.475-4.464
			c-0.541-1.034-0.874-2.186-0.996-3.36c-0.112-1.163-0.013-2.353,0.318-3.473v-0.01c0.87-2.973,3.251-5.441,7.303-5.833
			l9.443-0.905C182.365,65.942,176.249,62.09,169.241,62.09z"/>
		<path fill-rule="evenodd" clip-rule="evenodd" fill="#575756" d="M227.376,58.372c-10.35,0-18.733,8.386-18.733,18.738
			c0,10.352,8.384,18.736,18.733,18.736c10.348,0,18.736-8.384,18.736-18.736c0-0.726-0.039-1.44-0.119-2.146l-6.013,4.365
			c-3.619,2.63-7.478,2.298-10.403,0.476c-1.067-0.665-2.007-1.541-2.75-2.548c-0.759-1.021-1.325-2.177-1.629-3.392
			c-0.807-3.18,0.043-6.694,3.544-9.231l6.34-4.605C232.731,58.958,230.124,58.372,227.376,58.372z"/>
		<path fill-rule="evenodd" clip-rule="evenodd" fill="#575756" d="M271.452,15.76c-5.8,0-11.072,2.237-15.003,5.888l5.134,0.315
			c4.395,0.276,7.071,2.888,8.133,6.088c0.404,1.198,0.556,2.472,0.479,3.71c-0.072,1.261-0.383,2.505-0.925,3.637
			c-1.451,3.046-4.434,5.308-8.817,5.038l-10.99-0.683c0.971,11.29,10.442,20.151,21.989,20.151
			c12.189,0,22.071-9.881,22.071-22.068C293.523,25.64,283.642,15.76,271.452,15.76z"/>
		<circle fill-rule="evenodd" clip-rule="evenodd" fill="#575756" cx="189.665" cy="27.645" r="18.739"/>
	</g>
</g>
</svg>
