<?xml version="1.0" encoding="utf-8"?>
<!-- Generator: Adobe Illustrator 16.0.0, SVG Export Plug-In . SVG Version: 6.00 Build 0)  -->
<!DOCTYPE svg PUBLIC "-//W3C//DTD SVG 1.1//EN" "http://www.w3.org/Graphics/SVG/1.1/DTD/svg11.dtd">
<svg version="1.1" id="Layer_1" xmlns="http://www.w3.org/2000/svg" xmlns:xlink="http://www.w3.org/1999/xlink" x="0px" y="0px"
	 width="300px" height="300px" viewBox="0 0 300 300" enable-background="new 0 0 300 300" xml:space="preserve">
<path fill="#414042" d="M167.656,197.796H255v12.168h-9.523v-5.651h-68.294v5.651h-9.526V197.796z M167.656,263.816H255v-7.023
	h-87.344V263.816z M167.656,224.712h9.526v-5.646h68.294v5.646H255v-12.16h-87.344V224.712z M167.656,254.214h9.526v-5.66h68.294
	v5.66H255v-12.173h-87.344V254.214z M167.656,239.459h9.526v-5.652h68.294v5.652H255v-12.161h-87.344V239.459z M167.656,182.473
	v12.745h9.526v-5.653h68.294v5.653H255v-12.745H167.656z M106.196,57.799h58.88v-8.804h-58.88V57.799z M106.196,137.475h58.88
	v-8.804h-58.88V137.475z M106.196,103.323h58.88v-8.796h-58.88V103.323z M106.196,126.093h58.88v-8.801h-58.88V126.093z
	 M106.196,80.565h58.88v-8.804h-58.88V80.565z M106.196,91.948h58.88v-8.805h-58.88V91.948z M106.196,171.623h58.88v-8.8h-58.88
	V171.623z M106.196,46.417h58.88v-10.24h-58.88V46.417z M106.196,148.85h58.88v-8.796h-58.88V148.85z M106.196,160.244h58.88v-8.808
	h-58.88V160.244z M106.196,114.709h58.88v-8.8h-58.88V114.709z M106.196,183.006h58.88v-8.804h-58.88V183.006z M106.196,69.175
	h58.88v-8.797h-58.88V69.175z M106.196,205.772h58.88v-8.806h-58.88V205.772z M106.196,217.154h58.88v-8.796h-58.88V217.154z
	 M106.196,228.537h58.88v-8.805h-58.88V228.537z M106.196,194.389h58.88v-8.804h-58.88V194.389z M106.196,239.92h58.88v-8.8h-58.88
	V239.92z M106.196,263.824h58.88v-9.942h-58.88V263.824z M106.196,251.304h58.88v-8.806h-58.88V251.304z M66.771,217.081h0.008
	v46.735h36.832v-92.851H66.771V217.081z M44.879,263.824h19.314v-44.157H44.879V263.824z"/>
</svg>
