<?xml version="1.0" encoding="utf-8"?>
<!-- Generator: Adobe Illustrator 16.0.0, SVG Export Plug-In . SVG Version: 6.00 Build 0)  -->
<!DOCTYPE svg PUBLIC "-//W3C//DTD SVG 1.1//EN" "http://www.w3.org/Graphics/SVG/1.1/DTD/svg11.dtd">
<svg version="1.1" id="Layer_3" xmlns="http://www.w3.org/2000/svg" xmlns:xlink="http://www.w3.org/1999/xlink" x="0px" y="0px"
	 width="250px" height="250px" viewBox="0 0 250 250" enable-background="new 0 0 250 250" xml:space="preserve">
<path fill="#FFFFFF" d="M125.732,226.066c55.538,0,100.572-45.021,100.572-100.566c0-55.535-45.034-100.57-100.572-100.57
	C70.188,24.93,25.16,69.965,25.16,125.5C25.16,181.045,70.188,226.066,125.732,226.066z"/>
<path fill="#454548" d="M89.976,165.015v-1.426h-1.42c-0.897,0-1.631-0.676-1.631-1.501c0-0.824,0.733-1.499,1.631-1.499h1.42V99.75
	c0-0.897,0.674-1.631,1.5-1.631c0.824,0,1.499,0.734,1.499,1.631v60.838H160.5c0.897,0,1.63,0.675,1.63,1.499
	c0,0.825-0.732,1.501-1.63,1.501H92.974v1.426c0,0.905-0.675,1.637-1.499,1.637C90.649,166.651,89.976,165.92,89.976,165.015z
	 M159.368,112.178l-25.308,24.702h-5.599l-0.706,0.413l-4.754,8.368l-2.809-1.153l-0.308-0.065h-5.316l-0.578,0.242l-4.387,4.381
	l-6.613-1.435l-0.752,0.216l-7.053,7.053c-0.32,0.32-0.32,0.838,0,1.159c0.164,0.156,0.367,0.235,0.578,0.235
	c0.209,0,0.418-0.079,0.582-0.235l6.731-6.738l6.62,1.44l0.753-0.222l4.46-4.459h4.812l3.326,1.368l1.021-0.354l4.873-8.577h5.453
	l0.57-0.236l25.549-24.931c0.32-0.314,0.327-0.838,0.013-1.152C160.213,111.871,159.695,111.864,159.368,112.178z M156.984,151.894
	c0.164,0.158,0.373,0.236,0.582,0.236c0.21,0,0.419-0.078,0.577-0.236c0.319-0.32,0.319-0.838,0-1.159l-13.811-13.802h-4.746
	l-1.087-1.088l-1.172,1.147l1.584,1.571h4.754L156.984,151.894z M101.827,145.87l5.008-5.009h10.471l3.823,1.244l8.394-8.395h4.532
	l1.079,1.08l1.167-1.146l-1.565-1.565h-5.894l-8.157,8.159l-3.125-1.009h-11.406l-5.002,5.003l-4.772,0.007
	c-0.452,0-0.818,0.365-0.818,0.818c0,0.452,0.367,0.812,0.818,0.812H101.827z M109.187,83.271h33.241
	c1.802,0,3.275-1.474,3.275-3.274v-6.541c0-1.794-1.474-3.268-3.275-3.268h-33.241c-1.8,0-3.268,1.474-3.268,3.268v6.541
	C105.919,81.796,107.386,83.271,109.187,83.271z M171.598,72.512h-22.635v7.098h16.822c3.862,0,6.998,3.137,6.998,7v80.103
	c0,3.869-3.136,6.998-6.998,6.998H85.687c-3.87,0-7.006-3.129-7.006-6.998V86.609c0-3.863,3.136-7,7.006-7h16.814v-7.098H79.866
	c-4.577,0-8.283,3.706-8.283,8.283v91.729c0,4.577,3.706,8.291,8.283,8.291h91.732c4.577,0,8.283-3.714,8.283-8.291V80.795
	C179.881,76.218,176.175,72.512,171.598,72.512z"/>
</svg>
