<?xml version="1.0" encoding="utf-8"?>
<!-- Generator: Adobe Illustrator 16.0.0, SVG Export Plug-In . SVG Version: 6.00 Build 0)  -->
<!DOCTYPE svg PUBLIC "-//W3C//DTD SVG 1.1//EN" "http://www.w3.org/Graphics/SVG/1.1/DTD/svg11.dtd">
<svg version="1.1" id="Layer_2" xmlns="http://www.w3.org/2000/svg" xmlns:xlink="http://www.w3.org/1999/xlink" x="0px" y="0px"
	 width="250px" height="250px" viewBox="0 0 250 250" enable-background="new 0 0 250 250" xml:space="preserve">
<path fill="#FFFFFF" d="M125.548,225.364c55.709,0,100.878-45.163,100.878-100.87c0-55.702-45.169-100.863-100.878-100.863
	c-55.701,0-100.864,45.162-100.864,100.863C24.685,180.201,69.847,225.364,125.548,225.364z"/>
<path fill="#454548" d="M79.598,106.796c0-1.838,1.495-3.336,3.34-3.336c1.165,0,2.144,0.634,2.742,1.54l22.494-9.719
	c-0.072-0.273-0.167-0.536-0.167-0.832c0-1.845,1.497-3.336,3.343-3.336c1.837,0,3.336,1.484,3.339,3.327l21.966,4.488
	c0.478-1.264,1.676-2.167,3.106-2.167c1.003,0,1.873,0.463,2.486,1.159L165.04,83.71c-0.105-0.322-0.203-0.646-0.203-1.001
	c0-1.839,1.494-3.336,3.339-3.336c1.842,0,3.339,1.497,3.339,3.336c0,1.845-1.497,3.343-3.339,3.343
	c-1.037,0-1.927-0.502-2.538-1.245l-22.759,14.192c0.125,0.348,0.225,0.709,0.225,1.1c0,1.846-1.498,3.343-3.341,3.343
	c-1.824,0-3.299-1.471-3.331-3.287l-21.984-4.492c-0.485,1.241-1.684,2.125-3.096,2.125c-1.098,0-2.026-0.562-2.638-1.379
	l-22.563,9.749c0.042,0.214,0.127,0.414,0.127,0.64c0,1.853-1.494,3.343-3.339,3.343S79.598,108.649,79.598,106.796z
	 M181.78,164.617h-3.734V96.664c0-3.526-2.879-6.41-6.402-6.41h-7.257c-3.526,0-6.406,2.883-6.406,6.41v67.954h-8.239v-50.104
	c0-3.527-2.879-6.409-6.402-6.409h-7.26c-3.523,0-6.403,2.882-6.403,6.409v50.104h-8.237v-55.66c0-3.527-2.884-6.403-6.403-6.403
	h-7.265c-3.519,0-6.403,2.876-6.403,6.403v55.66h-8.234v-41.955c0-3.519-2.882-6.402-6.406-6.402h-7.26
	c-3.52,0-6.403,2.883-6.403,6.402v41.955h-4.226c-1.445,0-2.125,0.979-2.125,2.161v0.715c0,1.183,0.68,2.122,2.125,2.122H181.78
	c1.441,0,2.616-0.966,2.616-2.148v-0.715C184.396,165.577,183.222,164.617,181.78,164.617z"/>
</svg>
