<?xml version="1.0" encoding="utf-8"?>
<!-- Generator: Adobe Illustrator 16.0.0, SVG Export Plug-In . SVG Version: 6.00 Build 0)  -->
<!DOCTYPE svg PUBLIC "-//W3C//DTD SVG 1.1//EN" "http://www.w3.org/Graphics/SVG/1.1/DTD/svg11.dtd">
<svg version="1.1" id="Layer_4" xmlns="http://www.w3.org/2000/svg" xmlns:xlink="http://www.w3.org/1999/xlink" x="0px" y="0px"
	 width="460px" height="200px" viewBox="0 0 460 200" enable-background="new 0 0 460 200" xml:space="preserve">
<circle fill="none" stroke="#575756" stroke-width="2.5216" stroke-miterlimit="10" cx="237.196" cy="38.563" r="25.216"/>
<rect x="232.349" y="61.888" fill="#FFFFFF" stroke="#575756" stroke-width="1.2608" stroke-miterlimit="10" width="10.087" height="15.129"/>
<rect x="232.349" y="61.888" fill="none" stroke="#575756" stroke-width="2.5216" stroke-miterlimit="10" width="10.087" height="15.129"/>
<path fill="#FFFFFF" stroke="#575756" stroke-width="1.2608" stroke-miterlimit="10" d="M179.2,130.602
	c0-32.031,25.966-57.997,57.997-57.997s57.996,25.965,57.996,57.997c0,32.03-25.966,57.996-57.996,57.996
	S179.2,162.632,179.2,130.602"/>
<circle fill="none" stroke="#575756" stroke-width="5.2726" stroke-miterlimit="10" cx="237.196" cy="130.602" r="57.996"/>
<path fill="#FFFFFF" stroke="#575756" stroke-width="1.2608" stroke-miterlimit="10" d="M191.808,130.602
	c0-25.067,20.322-45.389,45.389-45.389s45.389,20.321,45.389,45.389c0,25.066-20.322,45.389-45.389,45.389
	S191.808,155.668,191.808,130.602"/>
<circle fill="none" stroke="#575756" stroke-width="2.5216" stroke-miterlimit="10" cx="237.196" cy="130.602" r="45.389"/>
<path fill="#FFFFFF" stroke="#575756" stroke-width="1.2608" stroke-miterlimit="10" d="M204.416,130.602
	c0-18.104,14.678-32.781,32.78-32.781c18.104,0,32.78,14.676,32.78,32.781c0,18.104-14.676,32.78-32.78,32.78
	C219.094,163.382,204.416,148.705,204.416,130.602"/>
<circle fill="none" stroke="#575756" stroke-width="1.2608" stroke-miterlimit="10" cx="237.196" cy="130.602" r="32.78"/>
<line fill="none" stroke="#00A19A" stroke-width="2.5216" stroke-miterlimit="10" x1="237.196" y1="130.602" x2="217.023" y2="110.429"/>
<line fill="none" stroke="#00A19A" stroke-width="2.5216" stroke-miterlimit="10" x1="237.392" y1="131.231" x2="266.391" y2="131.231"/>
<line fill="none" stroke="#B2B2B2" stroke-width="2.5216" stroke-miterlimit="10" x1="252.326" y1="116.732" x2="237.196" y2="130.602"/>
<path fill="#FFFFFF" stroke="#575756" stroke-width="1.2608" stroke-miterlimit="10" d="M233.414,130.602
	c0-2.09,1.692-3.782,3.782-3.782s3.782,1.692,3.782,3.782c0,2.089-1.692,3.782-3.782,3.782S233.414,132.69,233.414,130.602"/>
<circle fill="none" stroke="#575756" stroke-width="2.5216" stroke-linejoin="round" stroke-miterlimit="10" cx="237.196" cy="130.602" r="3.782"/>
<line fill="none" stroke="#575756" stroke-width="1.2608" stroke-miterlimit="10" x1="237.196" y1="100.342" x2="237.196" y2="88.995"/>
<line fill="none" stroke="#575756" stroke-width="1.2608" stroke-miterlimit="10" x1="233.375" y1="94.239" x2="232.848" y2="89.223"/>
<line fill="none" stroke="#575756" stroke-width="1.2608" stroke-miterlimit="10" x1="229.595" y1="94.837" x2="228.546" y2="89.904"/>
<line fill="none" stroke="#575756" stroke-width="1.2608" stroke-miterlimit="10" x1="225.897" y1="95.827" x2="224.34" y2="91.032"/>
<line fill="none" stroke="#575756" stroke-width="1.2608" stroke-miterlimit="10" x1="222.325" y1="97.199" x2="220.274" y2="92.593"/>
<line fill="none" stroke="#575756" stroke-width="1.2608" stroke-miterlimit="10" x1="218.915" y1="98.938" x2="216.394" y2="94.569"/>
<line fill="none" stroke="#575756" stroke-width="1.2608" stroke-miterlimit="10" x1="215.705" y1="101.021" x2="212.741" y2="96.941"/>
<line fill="none" stroke="#575756" stroke-width="1.2608" stroke-miterlimit="10" x1="212.73" y1="103.431" x2="209.356" y2="99.681"/>
<line fill="none" stroke="#575756" stroke-width="1.2608" stroke-miterlimit="10" x1="210.025" y1="106.137" x2="206.276" y2="102.761"/>
<line fill="none" stroke="#575756" stroke-width="1.2608" stroke-miterlimit="10" x1="207.615" y1="109.11" x2="203.536" y2="106.146"/>
<line fill="none" stroke="#575756" stroke-width="1.2608" stroke-miterlimit="10" x1="205.532" y1="112.319" x2="201.164" y2="109.798"/>
<line fill="none" stroke="#575756" stroke-width="1.2608" stroke-miterlimit="10" x1="203.794" y1="115.73" x2="199.188" y2="113.679"/>
<line fill="none" stroke="#575756" stroke-width="1.2608" stroke-miterlimit="10" x1="202.422" y1="119.302" x2="197.628" y2="117.744"/>
<line fill="none" stroke="#575756" stroke-width="1.2608" stroke-miterlimit="10" x1="201.433" y1="123" x2="196.499" y2="121.95"/>
<line fill="none" stroke="#575756" stroke-width="1.2608" stroke-miterlimit="10" x1="200.834" y1="126.779" x2="195.818" y2="126.253"/>
<line fill="none" stroke="#575756" stroke-width="1.2608" stroke-miterlimit="10" x1="206.938" y1="130.6" x2="195.589" y2="130.6"/>
<line fill="none" stroke="#575756" stroke-width="1.2608" stroke-miterlimit="10" x1="200.834" y1="134.423" x2="195.818" y2="134.95"/>
<line fill="none" stroke="#575756" stroke-width="1.2608" stroke-miterlimit="10" x1="201.433" y1="138.203" x2="196.499" y2="139.252"/>
<line fill="none" stroke="#575756" stroke-width="1.2608" stroke-miterlimit="10" x1="202.422" y1="141.9" x2="197.628" y2="143.458"/>
<line fill="none" stroke="#575756" stroke-width="1.2608" stroke-miterlimit="10" x1="203.794" y1="145.473" x2="199.188" y2="147.523"/>
<line fill="none" stroke="#575756" stroke-width="1.2608" stroke-miterlimit="10" x1="205.532" y1="148.883" x2="201.164" y2="151.404"/>
<line fill="none" stroke="#575756" stroke-width="1.2608" stroke-miterlimit="10" x1="207.615" y1="152.093" x2="203.536" y2="155.057"/>
<line fill="none" stroke="#575756" stroke-width="1.2608" stroke-miterlimit="10" x1="210.025" y1="155.066" x2="206.276" y2="158.442"/>
<line fill="none" stroke="#575756" stroke-width="1.2608" stroke-miterlimit="10" x1="212.73" y1="157.772" x2="209.356" y2="161.521"/>
<line fill="none" stroke="#575756" stroke-width="1.2608" stroke-miterlimit="10" x1="215.705" y1="160.182" x2="212.741" y2="164.261"/>
<line fill="none" stroke="#575756" stroke-width="1.2608" stroke-miterlimit="10" x1="218.915" y1="162.265" x2="216.394" y2="166.634"/>
<line fill="none" stroke="#575756" stroke-width="1.2608" stroke-miterlimit="10" x1="222.325" y1="164.004" x2="220.274" y2="168.609"/>
<line fill="none" stroke="#575756" stroke-width="1.2608" stroke-miterlimit="10" x1="225.897" y1="165.375" x2="224.34" y2="170.171"/>
<line fill="none" stroke="#575756" stroke-width="1.2608" stroke-miterlimit="10" x1="229.595" y1="166.365" x2="228.546" y2="171.299"/>
<line fill="none" stroke="#575756" stroke-width="1.2608" stroke-miterlimit="10" x1="233.375" y1="166.964" x2="232.848" y2="171.979"/>
<line fill="none" stroke="#575756" stroke-width="1.2608" stroke-miterlimit="10" x1="237.199" y1="160.861" x2="237.199" y2="172.211"/>
<line fill="none" stroke="#575756" stroke-width="1.2608" stroke-miterlimit="10" x1="241.018" y1="166.964" x2="241.545" y2="171.979"/>
<line fill="none" stroke="#575756" stroke-width="1.2608" stroke-miterlimit="10" x1="244.799" y1="166.365" x2="245.847" y2="171.299"/>
<line fill="none" stroke="#575756" stroke-width="1.2608" stroke-miterlimit="10" x1="248.495" y1="165.375" x2="250.054" y2="170.171"/>
<line fill="none" stroke="#575756" stroke-width="1.2608" stroke-miterlimit="10" x1="252.068" y1="164.004" x2="254.12" y2="168.609"/>
<line fill="none" stroke="#575756" stroke-width="1.2608" stroke-miterlimit="10" x1="255.478" y1="162.265" x2="257.999" y2="166.634"/>
<line fill="none" stroke="#575756" stroke-width="1.2608" stroke-miterlimit="10" x1="258.688" y1="160.182" x2="261.652" y2="164.261"/>
<line fill="none" stroke="#575756" stroke-width="1.2608" stroke-miterlimit="10" x1="261.662" y1="157.772" x2="265.037" y2="161.521"/>
<line fill="none" stroke="#575756" stroke-width="1.2608" stroke-miterlimit="10" x1="264.368" y1="155.066" x2="268.116" y2="158.442"/>
<line fill="none" stroke="#575756" stroke-width="1.2608" stroke-miterlimit="10" x1="266.777" y1="152.093" x2="270.857" y2="155.057"/>
<line fill="none" stroke="#575756" stroke-width="1.2608" stroke-miterlimit="10" x1="268.861" y1="148.883" x2="273.229" y2="151.404"/>
<line fill="none" stroke="#575756" stroke-width="1.2608" stroke-miterlimit="10" x1="270.599" y1="145.473" x2="275.206" y2="147.523"/>
<line fill="none" stroke="#575756" stroke-width="1.2608" stroke-miterlimit="10" x1="271.971" y1="141.9" x2="276.766" y2="143.458"/>
<line fill="none" stroke="#575756" stroke-width="1.2608" stroke-miterlimit="10" x1="272.96" y1="138.203" x2="277.894" y2="139.252"/>
<line fill="none" stroke="#575756" stroke-width="1.2608" stroke-miterlimit="10" x1="273.559" y1="134.423" x2="278.574" y2="134.95"/>
<line fill="none" stroke="#575756" stroke-width="1.2608" stroke-miterlimit="10" x1="267.453" y1="130.595" x2="278.799" y2="130.595"/>
<line fill="none" stroke="#575756" stroke-width="1.2608" stroke-miterlimit="10" x1="273.559" y1="126.779" x2="278.574" y2="126.253"/>
<line fill="none" stroke="#575756" stroke-width="1.2608" stroke-miterlimit="10" x1="272.96" y1="123" x2="277.894" y2="121.95"/>
<line fill="none" stroke="#575756" stroke-width="1.2608" stroke-miterlimit="10" x1="271.971" y1="119.302" x2="276.766" y2="117.744"/>
<line fill="none" stroke="#575756" stroke-width="1.2608" stroke-miterlimit="10" x1="270.599" y1="115.73" x2="275.206" y2="113.679"/>
<line fill="none" stroke="#575756" stroke-width="1.2608" stroke-miterlimit="10" x1="268.861" y1="112.319" x2="273.229" y2="109.798"/>
<line fill="none" stroke="#575756" stroke-width="1.2608" stroke-miterlimit="10" x1="266.777" y1="109.11" x2="270.857" y2="106.146"/>
<line fill="none" stroke="#575756" stroke-width="1.2608" stroke-miterlimit="10" x1="264.368" y1="106.137" x2="268.116" y2="102.761"/>
<line fill="none" stroke="#575756" stroke-width="1.2608" stroke-miterlimit="10" x1="261.662" y1="103.431" x2="265.037" y2="99.681"/>
<line fill="none" stroke="#575756" stroke-width="1.2608" stroke-miterlimit="10" x1="258.688" y1="101.021" x2="261.652" y2="96.941"/>
<line fill="none" stroke="#575756" stroke-width="1.2608" stroke-miterlimit="10" x1="255.478" y1="98.938" x2="257.999" y2="94.569"/>
<line fill="none" stroke="#575756" stroke-width="1.2608" stroke-miterlimit="10" x1="252.068" y1="97.199" x2="254.12" y2="92.593"/>
<line fill="none" stroke="#575756" stroke-width="1.2608" stroke-miterlimit="10" x1="248.495" y1="95.827" x2="250.054" y2="91.032"/>
<line fill="none" stroke="#575756" stroke-width="1.2608" stroke-miterlimit="10" x1="244.799" y1="94.837" x2="245.847" y2="89.904"/>
<line fill="none" stroke="#575756" stroke-width="1.2608" stroke-miterlimit="10" x1="241.018" y1="94.239" x2="241.545" y2="89.223"/>
<path fill="none" stroke="#575756" stroke-width="1.2608" stroke-miterlimit="10" d="M190.548,130.602
	c0,25.762,20.886,46.649,46.648,46.649c25.765,0,46.649-20.888,46.649-46.649c0-25.764-20.885-46.649-46.649-46.649
	C211.434,83.952,190.548,104.838,190.548,130.602"/>
<path fill="#FFFFFF" stroke="#575756" stroke-width="1.2608" stroke-miterlimit="10" d="M248.934,45.498H226.72
	c-2.918,0-5.718,0.491-5.718,3.49v14.161h32.78V48.988C253.782,45.989,251.852,45.498,248.934,45.498"/>
<path fill="none" stroke="#575756" stroke-width="5.0432" stroke-miterlimit="10" d="M248.934,45.498H226.72
	c-2.918,0-5.718,0.491-5.718,3.49v14.161h32.78V48.988C253.782,45.989,251.852,45.498,248.934,45.498z"/>
<line fill="none" stroke="#575756" stroke-width="2.5216" stroke-miterlimit="10" stroke-dasharray="2.5216,2.5216" x1="225.85" y1="51.171" x2="253.587" y2="51.171"/>
<line fill="none" stroke="#575756" stroke-width="2.5216" stroke-miterlimit="10" stroke-dasharray="2.5216,2.5216" x1="225.85" y1="56.214" x2="253.587" y2="56.214"/>
</svg>
