<?xml version="1.0" encoding="utf-8"?>
<!-- Generator: Adobe Illustrator 16.0.0, SVG Export Plug-In . SVG Version: 6.00 Build 0)  -->
<!DOCTYPE svg PUBLIC "-//W3C//DTD SVG 1.1//EN" "http://www.w3.org/Graphics/SVG/1.1/DTD/svg11.dtd">
<svg version="1.1" id="Layer_2" xmlns="http://www.w3.org/2000/svg" xmlns:xlink="http://www.w3.org/1999/xlink" x="0px" y="0px"
	 width="80px" height="80px" viewBox="0 0 80 80" enable-background="new 0 0 80 80" xml:space="preserve">
<path id="path122844" inkscape:connector-curvature="0" fill="#3C3C3B" d="M32.873,14.599c-0.458,0-0.916,0.172-1.26,0.517
	c-0.358,0.358-0.528,0.84-0.514,1.317c-6.707,3.666-11.102,10.547-11.55,18.243c-0.476,8.172,3.573,15.951,10.54,20.248
	c3.317,2.046,7.042,3.145,10.8,3.295v1.803h-8.017c-0.492,0-0.891,0.398-0.891,0.891v1.781c0,0.492,0.399,0.891,0.891,0.891h17.814
	c0.492,0,0.891-0.398,0.891-0.891v-1.781c0-0.492-0.398-0.891-0.891-0.891h-8.017v-1.803c3.05-0.122,6.083-0.868,8.896-2.246
	c0.275,0.176,0.601,0.279,0.946,0.279c0.973,0,1.781-0.808,1.781-1.781c0-0.973-0.809-1.781-1.781-1.781
	c-0.948,0-1.737,0.768-1.777,1.706c-6.275,3.053-13.714,2.711-19.711-0.987c-6.412-3.956-10.135-11.106-9.697-18.628
	c0.415-7.117,4.492-13.47,10.714-16.83l0,0c0.672,0.349,1.531,0.245,2.09-0.315c0.688-0.688,0.688-1.831,0-2.519
	C33.789,14.771,33.331,14.599,32.873,14.599L32.873,14.599z M41.957,17.263c-8.328-0.08-15.991,5.455-18.245,13.866
	c-2.671,9.968,3.258,20.238,13.227,22.909s20.238-3.258,22.909-13.227c2.671-9.968-3.258-20.238-13.227-22.909
	C45.063,17.485,43.498,17.278,41.957,17.263L41.957,17.263z M41.934,19.042c1.104,0.011,2.22,0.132,3.337,0.368
	c-1.24,3.805-3.719,6.895-6.863,8.938l-4.309-7.463C36.487,19.668,39.168,19.013,41.934,19.042L41.934,19.042z M46.993,19.869
	c3.826,1.235,6.932,3.721,8.981,6.877l-13.868,8.008l-2.813-4.872C42.836,27.608,45.624,24.141,46.993,19.869L46.993,19.869z
	 M32.556,21.775l4.308,7.462c-3.339,1.702-7.253,2.304-11.17,1.475C26.934,26.907,29.412,23.818,32.556,21.775z M56.866,28.29
	c1.722,3.38,2.317,7.347,1.444,11.309c-4.358-0.924-8.723-0.239-12.438,1.678l-2.875-4.98L56.866,28.29L56.866,28.29z
	 M37.751,30.773l2.812,4.871l-13.869,8.007c-1.708-3.354-2.309-7.287-1.464-11.218C29.615,33.385,34.012,32.703,37.751,30.773z
	 M41.454,37.188l2.875,4.979c-3.519,2.26-6.294,5.696-7.672,9.933c-3.867-1.225-7.006-3.724-9.072-6.905L41.454,37.188
	L41.454,37.188z M54.503,40.969c1.102,0.006,2.217,0.119,3.333,0.35c-1.249,3.765-3.713,6.821-6.832,8.848l-4.245-7.354
	C49.12,41.609,51.769,40.955,54.503,40.969z M45.216,43.703l4.245,7.354c-3.313,1.688-7.192,2.293-11.077,1.493
	C39.633,48.785,42.098,45.729,45.216,43.703z"/>
</svg>
