<?xml version="1.0" encoding="utf-8"?>
<!-- Generator: Adobe Illustrator 16.0.0, SVG Export Plug-In . SVG Version: 6.00 Build 0)  -->
<!DOCTYPE svg PUBLIC "-//W3C//DTD SVG 1.1//EN" "http://www.w3.org/Graphics/SVG/1.1/DTD/svg11.dtd">
<svg version="1.1" id="Layer_1" xmlns="http://www.w3.org/2000/svg" xmlns:xlink="http://www.w3.org/1999/xlink" x="0px" y="0px"
	 width="140px" height="140px" viewBox="0 0 140 140" enable-background="new 0 0 140 140" xml:space="preserve">
<path fill-rule="evenodd" clip-rule="evenodd" fill="#FFFFFF" d="M51.391,64.492c-3.32,11.281-7.121,16.883-15.762,19.723
	c-2.68-12.082,1.602-24.48,6.641-32.762c5.041-8.52,10.84-12.918,11.121-13.238c-0.4-0.082-20.281,14.238-22.4,38.359
	c-0.121,2.039-0.16,4.559,0,7.281l0.16,1.238h-0.08c0.52,7.719,3.08,16.281,6.279,19.602c-1.279,2.758-3.92,3.199-5.84,1.359
	c-3.6-5.84-4.48-14.199-3.84-21.082c-6.881-1-14.16-10.918-5.199-30.598c5.92-12.363,19.6-20.52,29-22.883
	c9.76-2.719,15.479-0.957,15.52-1.238c0.199-0.039-5.121,5.238-8.48,12.398C54.75,49.813,53.189,58.414,51.391,64.492z
	 M107.031,92.973c-0.121,0.16-0.68-7.199-3.961-14.438c-3.039-7.48-8.641-14.242-12.121-19.602
	c-6.441-9.84-8.277-16.32-4.762-24.602c11.043,5.961,17.723,17.242,20.805,26.441c3.195,9.281,2.797,16.52,2.836,16.922
	c0.32-0.242,2.402-24.402-14.719-41.801c-1.52-1.402-3.438-3.082-5.641-4.762l-1-0.719h0.039
	c-6.277-4.719-14.559-8.441-19.195-8.242c-1.242-2.758,0.117-5.039,2.797-5.238c6.84,1.199,13.84,6,18.719,11
	c5.281-4.441,17.68-3.32,26.922,16.281c5.602,12.438,2.879,27.957-1.48,36.48C111.949,89.695,106.867,92.773,107.031,92.973z
	 M124.547,95.973c-4.039,5.563-11.477,9.723-18.156,11.883c1.797,6.559-4.523,17.078-26.523,16.879
	c-13.877-0.402-26.957-9.441-32.918-17c-6.4-7.68-7.08-13.52-7.32-13.48c-0.119-0.16,6.92,2.52,14.961,2.719
	c8.199,0.52,16.84-1.559,23.238-2.32c11.844-1.52,18.563-0.359,24.68,6.32c-10.195,7.242-23.477,8.32-33.238,7.121
	c-9.959-1.16-16.4-4.641-16.799-4.801c0.078,0.441,21.396,12.641,44.76,4.922c1.957-0.723,4.316-1.723,6.801-2.961l1.078-0.602
	l0.039,0.043c7-3.523,13.961-9.242,15.801-13.48C124.031,91.293,125.508,93.492,124.547,95.973z"/>
</svg>
