<?xml version="1.0" encoding="utf-8"?>
<!-- Generator: Adobe Illustrator 16.0.0, SVG Export Plug-In . SVG Version: 6.00 Build 0)  -->
<!DOCTYPE svg PUBLIC "-//W3C//DTD SVG 1.1//EN" "http://www.w3.org/Graphics/SVG/1.1/DTD/svg11.dtd">
<svg version="1.1" id="Layer_1" xmlns="http://www.w3.org/2000/svg" xmlns:xlink="http://www.w3.org/1999/xlink" x="0px" y="0px"
	 width="300px" height="300px" viewBox="0 0 300 300" enable-background="new 0 0 300 300" xml:space="preserve">
<path fill-rule="evenodd" clip-rule="evenodd" fill="#FFFFFF" d="M255.018,259.813H44.998c-6.003,0-10.867-5.562-10.867-12.425
	V48.653c0-6.85,4.864-12.426,10.867-12.426c6.003,0,10.854,5.576,10.854,12.426V205.99v28.979h199.166
	c6.002,0,10.852,5.569,10.852,12.419C265.869,254.252,261.02,259.813,255.018,259.813 M229.664,222.553h-21.746
	c-5.977,0-10.854-5.563-10.854-12.426v-86.95c0-6.857,4.877-12.426,10.854-12.426h21.746c6.004,0,10.854,5.568,10.854,12.426v86.95
	C240.518,216.99,235.668,222.553,229.664,222.553 M168.109,222.553h-21.734c-6.003,0-10.853-5.563-10.853-12.426V73.497
	c0-6.865,4.85-12.417,10.853-12.417h21.734c5.977,0,10.854,5.553,10.854,12.417v136.63
	C178.963,216.99,174.086,222.553,168.109,222.553 M106.541,222.553H84.82c-6.003,0-10.854-5.563-10.854-12.426v-24.845
	c0-6.864,4.851-12.417,10.854-12.417h21.72c6.003,0,10.879,5.553,10.879,12.417v24.845
	C117.42,216.99,112.543,222.553,106.541,222.553"/>
</svg>
