<?xml version="1.0" encoding="utf-8"?>
<!-- Generator: Adobe Illustrator 16.0.0, SVG Export Plug-In . SVG Version: 6.00 Build 0)  -->
<!DOCTYPE svg PUBLIC "-//W3C//DTD SVG 1.1//EN" "http://www.w3.org/Graphics/SVG/1.1/DTD/svg11.dtd">
<svg version="1.1" id="Layer_3" xmlns="http://www.w3.org/2000/svg" xmlns:xlink="http://www.w3.org/1999/xlink" x="0px" y="0px"
	 width="250px" height="250px" viewBox="0 0 250 250" enable-background="new 0 0 250 250" xml:space="preserve">
<path fill="#454548" stroke="#FFFFFF" stroke-width="1.4173" stroke-miterlimit="10" d="M22.643,124.592
	c0,56.44,45.755,102.194,102.19,102.194c56.441,0,102.203-45.754,102.203-102.194c0-56.435-45.762-102.19-102.203-102.19
	C68.398,22.402,22.643,68.157,22.643,124.592"/>
<path fill="#FFFFFF" d="M82.937,117.249c-0.872-0.875-0.875-2.312,0-3.189l9.074-9.072c0.878-0.878,2.31-0.878,3.191,0
	l26.969,26.967c0.879,0.875,0.879,2.313,0,3.19l-9.075,9.071c-0.878,0.88-2.313,0.88-3.188,0L82.937,117.249z M147.887,106.24
	c0.878,0.876,2.313,0.874,3.187,0l9.196-9.19c0.872-0.877,0.875-2.313,0-3.191l-26.974-26.968c-0.872-0.876-2.313-0.875-3.187,0
	l-9.192,9.19c-0.875,0.875-0.875,2.312,0.004,3.188L147.887,106.24z M128.086,171.188H67.75c-1.391,0-2.525,1.137-2.525,2.524v6.717
	c0,1.388,1.135,2.524,2.525,2.524h60.336c1.387,0,2.525-1.137,2.525-2.524v-6.717C130.611,172.324,129.473,171.188,128.086,171.188z
	 M183.796,157.957l-37.611-37.614c-0.88-0.875-2.31-0.875-3.188,0l-0.416,0.413l-6.83-6.833l6.222-6.221
	c0.878-0.877,0.878-2.314,0-3.19l-19.328-19.329c-0.872-0.876-2.313-0.876-3.188,0l-18.241,18.241c-0.878,0.878-0.881,2.315,0,3.191
	l19.329,19.326c0.875,0.877,2.311,0.877,3.186,0l6.237-6.237l6.833,6.829l-0.411,0.413c-0.878,0.878-0.878,2.313,0,3.188
	l37.611,37.613c0.878,0.878,2.313,0.875,3.19,0l6.604-6.604C184.674,160.27,184.674,158.832,183.796,157.957z"/>
</svg>
