<?xml version="1.0" encoding="utf-8"?>
<!-- Generator: Adobe Illustrator 16.0.0, SVG Export Plug-In . SVG Version: 6.00 Build 0)  -->
<!DOCTYPE svg PUBLIC "-//W3C//DTD SVG 1.1//EN" "http://www.w3.org/Graphics/SVG/1.1/DTD/svg11.dtd">
<svg version="1.1" id="Layer_2" xmlns="http://www.w3.org/2000/svg" xmlns:xlink="http://www.w3.org/1999/xlink" x="0px" y="0px"
	 width="150px" height="150px" viewBox="0 0 150 150" enable-background="new 0 0 150 150" xml:space="preserve">
<g>
	<path fill="none" stroke="#000000" stroke-width="2.126" stroke-miterlimit="10" d="M130.605,13.026L93.96,28.331L57.295,13.026
		c-0.07-0.045-0.15-0.012-0.24-0.028c-0.17-0.05-0.32-0.067-0.49-0.067c-0.169,0-0.33,0.017-0.49,0.067
		c-0.09,0.017-0.17-0.017-0.24,0.028L18.46,28.64c-0.821,0.332-1.371,1.224-1.371,2.206v106.44c0,0.776,0.34,1.49,0.901,1.938
		c0.36,0.269,0.77,0.42,1.19,0.42c0.26,0,0.491-0.05,0.74-0.151l36.645-15.316l36.655,15.316c0.252,0.102,0.5,0.151,0.74,0.151
		s0.492-0.05,0.73-0.151l37.375-15.625c0.831-0.337,1.371-1.217,1.371-2.205V15.231c0-0.774-0.331-1.493-0.901-1.931
		C131.978,12.863,131.256,12.74,130.605,13.026z"/>
</g>
<line fill="none" stroke="#000000" stroke-width="2.126" stroke-miterlimit="10" x1="56.075" y1="12.998" x2="56.075" y2="124.177"/>
<line fill="none" stroke="#000000" stroke-width="2.126" stroke-miterlimit="10" x1="93.96" y1="28.331" x2="93.96" y2="139.493"/>
</svg>
