<?xml version="1.0" encoding="utf-8"?>
<!-- Generator: Adobe Illustrator 16.0.0, SVG Export Plug-In . SVG Version: 6.00 Build 0)  -->
<!DOCTYPE svg PUBLIC "-//W3C//DTD SVG 1.1//EN" "http://www.w3.org/Graphics/SVG/1.1/DTD/svg11.dtd">
<svg version="1.1" xmlns="http://www.w3.org/2000/svg" xmlns:xlink="http://www.w3.org/1999/xlink" x="0px" y="0px" width="150px"
	 height="150px" viewBox="0 0 150 150" enable-background="new 0 0 150 150" xml:space="preserve">
<g id="Layer_3">
	<path d="M108.428,14.731H41.571c-2.556,0.006-4.63,1.785-4.633,3.983v112.574c0.002,2.197,2.077,3.977,4.633,3.98h66.857
		c2.554-0.004,4.625-1.783,4.632-3.98h0.002V18.714C113.053,16.516,110.981,14.737,108.428,14.731z M110.628,131.288
		c0,1.032-0.999,1.891-2.2,1.891H41.571c-1.204,0-2.2-0.858-2.202-1.891V18.714c0.002-1.032,0.998-1.891,2.202-1.891l66.857-0.003
		c1.201,0.003,2.2,0.862,2.2,1.894V131.288z"/>
</g>
<g id="Layer_4">
	<circle fill="none" stroke="#000000" stroke-width="1.4173" stroke-miterlimit="10" cx="75" cy="125.673" r="4.295"/>
	<circle fill="none" stroke="#000000" stroke-width="0.9921" stroke-miterlimit="10" cx="53.857" cy="40.224" r="3.75"/>
	<circle fill="none" stroke="#000000" stroke-width="0.9921" stroke-miterlimit="10" cx="75" cy="40.938" r="3.751"/>
	<circle fill="none" stroke="#000000" stroke-width="0.9921" stroke-miterlimit="10" cx="96.388" cy="40.224" r="3.752"/>
	<circle fill="none" stroke="#000000" stroke-width="0.9921" stroke-miterlimit="10" cx="53.857" cy="59.992" r="3.75"/>
	<circle fill="none" stroke="#000000" stroke-width="0.9921" stroke-miterlimit="10" cx="75" cy="60.706" r="3.751"/>
	<circle fill="none" stroke="#000000" stroke-width="0.9921" stroke-miterlimit="10" cx="96.388" cy="59.992" r="3.752"/>
	<circle fill="none" stroke="#000000" stroke-width="0.9921" stroke-miterlimit="10" cx="53.857" cy="77.672" r="3.75"/>
	<circle fill="none" stroke="#000000" stroke-width="0.9921" stroke-miterlimit="10" cx="75" cy="78.386" r="3.751"/>
	<path fill="none" stroke="#000000" stroke-width="0.9921" stroke-miterlimit="10" d="M78.751,96.402c0,2.073-1.68,3.754-3.75,3.754
		c-2.072,0-3.751-1.681-3.751-3.754c0-2.07,1.68-3.751,3.751-3.751C77.071,92.651,78.751,94.332,78.751,96.402z"/>
	<circle fill="none" stroke="#000000" stroke-width="0.9921" stroke-miterlimit="10" cx="96.388" cy="77.672" r="3.752"/>
	
		<line fill="none" stroke="#000000" stroke-width="1.4173" stroke-miterlimit="10" x1="62.582" y1="23.379" x2="87.418" y2="23.379"/>
	<path fill="none" stroke="#000000" stroke-width="0.9921" stroke-miterlimit="10" d="M107.334,114.046
		c0,1.565-1.27,2.835-2.835,2.835H45.501c-1.565,0-2.834-1.27-2.834-2.835V32.048c0-1.565,1.269-2.834,2.834-2.834h58.998
		c1.565,0,2.835,1.269,2.835,2.834V114.046z"/>
</g>
</svg>
