<?xml version="1.0" encoding="utf-8"?>
<!-- Generator: Adobe Illustrator 16.0.0, SVG Export Plug-In . SVG Version: 6.00 Build 0)  -->
<!DOCTYPE svg PUBLIC "-//W3C//DTD SVG 1.1//EN" "http://www.w3.org/Graphics/SVG/1.1/DTD/svg11.dtd">
<svg version="1.1" id="Layer_2" xmlns="http://www.w3.org/2000/svg" xmlns:xlink="http://www.w3.org/1999/xlink" x="0px" y="0px"
	 width="250px" height="250px" viewBox="0 0 250 250" enable-background="new 0 0 250 250" xml:space="preserve">
<path fill="#FFFFFF" d="M125.985,26.232c-55.378,0-100.271,44.899-100.271,100.269c0,55.377,44.893,100.266,100.271,100.266
	c55.37,0,100.271-44.889,100.271-100.266C226.257,71.131,181.355,26.232,125.985,26.232z"/>
<path fill="#454548" d="M175.086,138.268h-10.569c0.457-5.626,4.942-10.108,10.569-10.563V138.268z M187.573,140.138v6.858
	c0,6.032-4.627,10.977-10.525,11.498c-0.04,2.171-0.146,4.241-0.492,6.135c-0.518,2.846-1.655,5.49-4.12,7.093
	c-1.629,1.053-3.694,1.57-6.205,1.57h-63.331c-2.511,0-4.581-0.518-6.209-1.57c-1.632-1.055-2.711-2.615-3.37-4.345
	c-1.176-3.117-1.248-6.868-1.261-10.925h-8.435c-10.594-0.01-19.218-8.633-19.228-19.229V98.938
	c0.01-10.602,8.631-19.218,19.228-19.231h54.599c10.598,0.013,19.215,8.629,19.23,19.231v38.285h-0.003
	c-0.013,10.597-8.63,19.22-19.228,19.229H95.329c0.01,2.882,0.079,5.499,0.464,7.582c0.46,2.455,1.266,4.021,2.679,4.938
	c0.959,0.621,2.341,1.039,4.427,1.042h63.331c2.083-0.003,3.464-0.421,4.419-1.042c0.957-0.63,1.604-1.497,2.097-2.767
	c0.751-1.91,0.975-4.674,1.03-7.879c-5.304-1.045-9.309-5.716-9.309-11.33v-6.858H187.573z M138.223,149.9
	c6.948-0.013,12.664-5.724,12.678-12.678V98.938c-0.014-6.952-5.729-12.668-12.678-12.677l-54.599-0.004
	c-6.949,0.013-12.667,5.729-12.677,12.681v38.285c0.01,6.954,5.725,12.665,12.677,12.678H138.223z M176.957,127.705v10.563h10.568
	C187.068,132.642,182.588,128.159,176.957,127.705z M95.164,109.921l7.534-4.527c0.548-0.339,1.279-0.176,1.627,0.366l1.825,2.833
	c0.35,0.541,1.094,0.724,1.655,0.411l8.254-4.645c0.563-0.316,1.261-0.104,1.557,0.467l0.398,0.776
	c0.294,0.575,0.823,0.601,1.169,0.059l3.33-5.157c0.349-0.542,0.111-1.035-0.529-1.103l-6.401-0.673
	c-0.64-0.065-0.924,0.347-0.629,0.921l0.519,1.012c0.297,0.571,0.076,1.299-0.483,1.616l-6.41,3.607
	c-0.561,0.313-1.305,0.13-1.655-0.412l-1.874-2.911c-0.351-0.542-1.083-0.706-1.628-0.369l-9.489,5.741
	c-0.548,0.336-0.718,1.064-0.378,1.612C93.894,110.091,94.617,110.264,95.164,109.921z M98,116.753h-3.502
	c-0.917,0-1.668,0.75-1.668,1.668v14.165c0,0.917,0.751,1.668,1.668,1.668H98c0.914,0,1.664-0.751,1.664-1.668v-14.165
	C99.664,117.503,98.914,116.753,98,116.753z M107.775,113.423h-3.502c-0.914,0-1.666,0.748-1.666,1.665v17.498
	c0,0.917,0.751,1.668,1.666,1.668h3.502c0.914,0,1.664-0.751,1.664-1.668v-17.498C109.439,114.171,108.689,113.423,107.775,113.423z
	 M117.551,108.756h-3.499c-0.917,0-1.668,0.75-1.668,1.665v22.166c0,0.917,0.751,1.668,1.668,1.668h3.499
	c0.917,0,1.664-0.751,1.664-1.668V110.42C119.215,109.506,118.468,108.756,117.551,108.756z M127.327,103.422h-3.499
	c-0.917,0-1.668,0.751-1.668,1.665v27.499c0,0.917,0.751,1.668,1.668,1.668h3.499c0.917,0,1.667-0.751,1.667-1.668v-27.499
	C128.994,104.173,128.244,103.422,127.327,103.422z"/>
</svg>
