<?xml version="1.0" encoding="utf-8"?>
<!-- Generator: Adobe Illustrator 16.0.0, SVG Export Plug-In . SVG Version: 6.00 Build 0)  -->
<!DOCTYPE svg PUBLIC "-//W3C//DTD SVG 1.1//EN" "http://www.w3.org/Graphics/SVG/1.1/DTD/svg11.dtd">
<svg version="1.1" id="Layer_4" xmlns="http://www.w3.org/2000/svg" xmlns:xlink="http://www.w3.org/1999/xlink" x="0px" y="0px"
	 width="460px" height="200px" viewBox="0 0 460 200" enable-background="new 0 0 460 200" xml:space="preserve">
<g>
	<path fill="#575756" d="M208.084,115.277c0.519-0.78,1.245-1.405,2.08-1.802c-1.918-5.979-3.53-12.143-4.809-18.375
		c-0.824-0.02-1.66-0.115-2.498-0.317c-1.893-0.449-3.573-1.344-4.946-2.543c-3.374,3.813-6.458,7.841-9.207,12.068
		c0.961,1.094,1.404,2.61,1.073,4.138C195.384,111.329,201.547,113.613,208.084,115.277z"/>
	<path fill="#575756" d="M234.166,121.85c-5.838-0.053-11.58-0.523-17.136-1.398c-0.167,0.34-0.366,0.646-0.596,0.932
		c0.512,1.31,1.03,2.613,1.57,3.903c4.901,11.75,11.053,22.38,18.207,30.912c1.977-1.4,4.526-1.977,7.076-1.374
		c0.627,0.147,1.22,0.358,1.778,0.628c5.07-7.462,9.194-16.512,12.306-26.398c-3.372-1.6-5.805-4.609-6.733-8.12
		C245.11,121.602,239.597,121.9,234.166,121.85z"/>
	<path fill="#575756" d="M264.412,84.802c0.178-8.797-0.363-17.46-1.652-25.578c-0.777,0.05-1.564-0.009-2.365-0.203
		c-2.268-0.535-4.081-1.996-5.128-3.883c-13.9,4.807-27.205,11.644-38.882,20.281c-0.522,0.39-1.055,0.783-1.572,1.183
		c1.969,2.65,2.804,6.12,1.983,9.588c-1.007,4.25-4.245,7.392-8.171,8.485c1.29,6.259,2.928,12.429,4.867,18.418l0.093,0.021
		c2.056,0.485,3.535,2.142,3.894,4.091c5.418,0.854,11.018,1.311,16.713,1.366c5.29,0.052,10.658-0.244,16.039-0.899
		c0.009-0.916,0.116-1.852,0.34-2.784c1.364-5.753,6.498-9.62,12.165-9.61C263.72,98.492,264.286,91.606,264.412,84.802z"/>
	<path fill="#575756" d="M180.494,106.751c-6.164-4.198-11.446-9.249-15.548-15.116c-2.025,15.665,0.798,31.057,7.431,44.481
		c1.704-9.205,4.797-17.837,9.016-25.849C180.659,109.291,180.308,108.03,180.494,106.751z"/>
	<path fill="#575756" d="M232.745,161.325c0.241-1.003,0.645-1.931,1.177-2.753c-7.476-8.852-13.88-19.861-18.958-32.034
		c-0.46-1.106-0.914-2.231-1.357-3.357c-0.769,0.188-1.588,0.193-2.41,0.005c-2.281-0.542-3.848-2.511-3.971-4.736
		c-6.875-1.756-13.348-4.172-19.237-7.229c-1.054,0.782-2.427,1.126-3.809,0.828c-4.635,8.87-7.836,18.514-9.233,28.851
		c9.236,15.828,23.992,28.405,42.354,34.621c6.049-0.999,11.554-3.654,16.497-7.593C232.634,166.016,232.192,163.67,232.745,161.325
		z"/>
	<path fill="#575756" d="M246.376,170.455c-1.985,1.43-4.555,2.021-7.125,1.411c-1.21-0.283-2.296-0.806-3.231-1.509
		c-3.836,3.096-8,5.479-12.486,6.992c0.296,0.07,0.59,0.146,0.89,0.219c11.979,2.841,23.966,2.748,35.217,0.201
		c-2.228-0.823-4.406-1.816-6.538-2.981C250.808,173.531,248.563,172.078,246.376,170.455z"/>
	<path fill="#575756" d="M319.605,89.314c-9.023,8.652-19.379,15.517-30.415,20.667c-4.624,2.161-9.365,4.017-14.174,5.582
		c0.297,1.635,0.262,3.361-0.15,5.076c-1.531,6.491-7.876,10.584-14.35,9.415c-3.229,10.221-7.517,19.597-12.81,27.354
		c1.901,2.068,2.785,5.016,2.083,7.957c-0.23,0.982-0.625,1.886-1.14,2.689c1.964,1.445,3.972,2.727,6.034,3.85
		c3.525,1.928,7.18,3.361,10.961,4.247c25.465-7.949,46.208-28.74,52.807-56.589C320.874,109.332,321.158,99.094,319.605,89.314z"/>
	<path fill="#575756" d="M269.989,53.104c-0.553,2.341-2.09,4.193-4.065,5.228c1.372,8.434,1.952,17.421,1.774,26.534
		c-0.137,6.93-0.707,13.948-1.708,20.849c3.66,0.989,6.515,3.524,8.024,6.725c4.679-1.52,9.289-3.332,13.786-5.432
		c11.354-5.296,21.967-12.466,31.082-21.586c-3.084-14.54-10.259-27.888-20.557-38.456c-9.279,0.319-18.755,1.615-28.132,3.828
		C270.236,51.555,270.173,52.331,269.989,53.104z"/>
	<path fill="#575756" d="M264.071,43.514c2.361,0.56,4.228,2.115,5.257,4.119c8.577-2.033,17.227-3.323,25.753-3.81
		c-9.484-8.664-21.241-15.11-34.635-18.278c-2.317-0.554-4.63-0.986-6.941-1.322c3.729,5.39,6.696,11.867,8.942,19.078
		C262.985,43.317,263.532,43.386,264.071,43.514z"/>
	<path fill="#575756" d="M208.197,72.25c1.604,0.378,3.045,1.076,4.282,2.002c0.647-0.496,1.303-0.988,1.953-1.472
		c11.97-8.853,25.61-15.856,39.868-20.78c-0.08-0.84-0.019-1.706,0.182-2.569c0.616-2.605,2.441-4.604,4.739-5.543
		c-2.48-7.853-5.853-14.757-10.162-20.18c-14.201-1.226-28.075,1.496-40.354,7.381c-2.084,8.047-3.219,16.727-3.512,25.712
		c-0.161,4.977-0.053,10.037,0.292,15.134C206.38,71.932,207.288,72.036,208.197,72.25z"/>
	<path fill="#575756" d="M182.085,103.858c0.996-0.86,2.333-1.292,3.703-1.104c2.964-4.581,6.306-8.926,9.965-13.034
		c-1.612-2.544-2.241-5.709-1.489-8.872c0.989-4.178,4.127-7.29,7.97-8.433c-0.382-5.291-0.486-10.552-0.321-15.714
		c0.259-8.191,1.218-16.145,2.931-23.625c-18.685,10.262-33.12,28.089-38.421,50.462c-0.257,1.095-0.486,2.182-0.697,3.272
		C169.745,93.523,175.344,99.223,182.085,103.858z"/>
</g>
</svg>
