<?xml version="1.0" encoding="utf-8"?>
<!-- Generator: Adobe Illustrator 16.0.0, SVG Export Plug-In . SVG Version: 6.00 Build 0)  -->
<!DOCTYPE svg PUBLIC "-//W3C//DTD SVG 1.1//EN" "http://www.w3.org/Graphics/SVG/1.1/DTD/svg11.dtd">
<svg version="1.1" id="Layer_1" xmlns="http://www.w3.org/2000/svg" xmlns:xlink="http://www.w3.org/1999/xlink" x="0px" y="0px"
	 width="80px" height="80px" viewBox="0 0 80 80" enable-background="new 0 0 80 80" xml:space="preserve">
<path fill="#2B2B2A" d="M40.119,6.165c-19.04,0-34.476,15.438-34.476,34.476c0,19.039,15.436,34.473,34.476,34.473
	c19.039,0,34.472-15.434,34.472-34.473C74.591,21.604,59.158,6.165,40.119,6.165z M57.486,33.689
	c0.017,0.373,0.023,0.748,0.023,1.124c0,11.481-8.738,24.72-24.719,24.72c-4.906,0-9.474-1.438-13.319-3.903
	c0.681,0.079,1.372,0.12,2.072,0.12c4.071,0,7.817-1.389,10.791-3.719c-3.802-0.071-7.01-2.582-8.115-6.033
	c0.529,0.104,1.073,0.156,1.635,0.156c0.793,0,1.56-0.105,2.289-0.307c-3.976-0.798-6.971-4.311-6.971-8.518
	c0-0.038,0-0.073,0.001-0.11c1.172,0.65,2.512,1.042,3.936,1.088c-2.331-1.561-3.865-4.218-3.865-7.232
	c0-1.593,0.429-3.085,1.177-4.368c4.284,5.257,10.687,8.715,17.907,9.077c-0.147-0.636-0.225-1.299-0.225-1.979
	c0-4.798,3.891-8.688,8.688-8.688c2.5,0,4.757,1.056,6.342,2.743c1.979-0.389,3.839-1.113,5.519-2.108
	c-0.649,2.03-2.027,3.732-3.821,4.807c1.758-0.21,3.433-0.678,4.989-1.368C60.658,30.933,59.184,32.464,57.486,33.689z"/>
</svg>
