<?xml version="1.0" encoding="utf-8"?>
<!-- Generator: Adobe Illustrator 16.0.0, SVG Export Plug-In . SVG Version: 6.00 Build 0)  -->
<!DOCTYPE svg PUBLIC "-//W3C//DTD SVG 1.1//EN" "http://www.w3.org/Graphics/SVG/1.1/DTD/svg11.dtd">
<svg version="1.1" id="Layer_1" xmlns="http://www.w3.org/2000/svg" xmlns:xlink="http://www.w3.org/1999/xlink" x="0px" y="0px"
	 width="300px" height="300px" viewBox="0 0 300 300" enable-background="new 0 0 300 300" xml:space="preserve">
<path fill="#FFFFFF" d="M39.312,124.93c0,0,221.241,0,221.563,0c5.359-2.348,5.105-7.353,0.092-10.71
	c-4.99-3.342-111.057-79.889-111.057-79.889S44.647,110.878,39.312,114.22C33.99,117.577,33.644,122.582,39.312,124.93z
	 M149.91,72.161c8.857,0,16.023,7.146,16.023,15.986c0,8.844-7.166,16.025-16.023,16.025c-8.867,0-16.025-7.181-16.025-16.025
	C133.885,79.307,141.043,72.161,149.91,72.161z M44.833,243.891h210.519v-8.956H44.833V243.891z M90.418,225.602v-81.605h8.949
	v-10.124H53.597v9.197h8.984v82.532H90.418L90.418,225.602z M164.021,225.602v-82.193h8.973v-8.949h-45.768v8.61h8.954v82.508
	h27.841V225.602z M35.691,262.211h228.821v-8.385H35.691V262.211z M237.053,225.602v-82.193h8.965v-8.949h-45.783v8.61h8.979v82.508
	h27.84V225.602z"/>
</svg>
