<?xml version="1.0" encoding="utf-8"?>
<!-- Generator: Adobe Illustrator 16.0.0, SVG Export Plug-In . SVG Version: 6.00 Build 0)  -->
<!DOCTYPE svg PUBLIC "-//W3C//DTD SVG 1.1//EN" "http://www.w3.org/Graphics/SVG/1.1/DTD/svg11.dtd">
<svg version="1.1" id="Layer_2" xmlns="http://www.w3.org/2000/svg" xmlns:xlink="http://www.w3.org/1999/xlink" x="0px" y="0px"
	 width="200px" height="200px" viewBox="0 0 200 200" enable-background="new 0 0 200 200" xml:space="preserve">
<g>
	<path fill="#414142" d="M103.741,152.244c-0.355-0.019-0.672,0.199-0.704,0.485l-0.316,2.724c-0.036,0.288,0.229,0.536,0.581,0.557
		c0.355,0.02,0.668-0.2,0.7-0.486l0.32-2.724C104.354,152.512,104.094,152.264,103.741,152.244z"/>
	<path fill="#414142" d="M54.818,180.749c-0.53-0.128-1.05-0.252-1.643-0.408c-6.799-1.809-8.076,0.745-13.495,1.701
		c-5.423,0.956-8.4,0-13.819,0c-5.418,0-4.778,0.956-13.814,2.231c-2.865,0.404-5.035,0.582-6.663,0.638
		c-0.002,0.181-0.004,0.358-0.006,0.536L54.818,180.749z"/>
	<path fill="#414142" d="M15.169,171.797c4.898-1.801,10.401-3.397,12.902-2.599c2.501,0.798,0.9,3.201,7.799,3.699
		c6.903,0.503,11.502-1.299,18.501,1.401c7.003,2.701,8.104,1.7,11.302,1.5c3.093-0.191,6.451,0.549,5.234,1.953
		c-0.344,0.022-0.692,0.038-1.044,0.038c-3.664,0-4.802,1.072-5.435,2.045l36.157-3.438l95.2,9.05
		c-0.004-0.151-0.004-0.304-0.008-0.454c-3.354-0.142-6.691-0.438-10.033-0.858c-4.21-0.526-7.992-1.866-12.01-2.997
		c-4.694-0.849-7.964-2.193-11.622-2.285c-4.245-0.108-5.418-1.809-7.115-2.978c-1.704-1.168-3.401-1.171-6.379-0.851
		c-2.974,0.32-3.718,0.215-4.891-0.744c-1.168-0.954-2.125-0.851-4.57,0.106c-2.44,0.956-2.229,2.127-3.825,1.915
		c-1.593-0.215-5.207,1.063-5.207,1.063s-2.601-0.177-4.326-2.069c2.662-0.096,5.563-0.032,7.28-0.098
		c2.597-0.099,6.003-2.5,7.299-3.5c1.305-1.001,3.902-0.801,6.203-0.101c2.302,0.701,4.898-0.5,5.799-1.099
		c0.9-0.598,1.601,0.999,1.905,1.499c0.296,0.5-3.806,0.202-5.503,0.202c-1.701,0-4.002,1.099-3.001,0.898
		c1-0.202,7.8-0.4,10.501,0.7s4.702,0.101,7.003,0.101c2.297,0,4.198,1.2,6.796,2.001c2.601,0.8,6.202-0.902,7.503-1.101
		c1.301-0.2,2.802,0.698,4.198,1.198c1.404,0.502,2.901,0.603,3.602-0.898s4.402-1.002,4.103-1.2c-0.301-0.2-3.603,0.1-5.403,0.6
		c-1.797,0.501-4.098,0.398-5.799-0.5c-1.7-0.9-2.601,0.099-5.302,0.601c-2.702,0.5-4.599-1.001-6.5-1.601
		c-1.9-0.601-2.701,0.7-6.898,0.1c-4.202-0.601-4.303-2.001-5.604-3.397c-1.3-1.402-2.201,0-4.302,0.896
		c-2.097,0.9-1.396-0.498-4.298-0.896c-2.901-0.4-5.203,1-8.3,1c-3.102,0-4.103-0.104-6.199-0.502
		c-1.005-0.19-2.993,0.074-4.79,0.404c5.014-4.406,9.988-4.504,9.988-4.504v-0.744l-0.96,0.105l-0.528-5.314l-13.711,0.639
		l-3.934-17.432l2.125-6.907l15.623,14.241l0.74-7.438l-13.07-8.504l-0.74,1.701l-2.232-1.597l11.181-30.476l-5.25-4.986
		l-8.136,26.513l2.889,2.887l-0.836,3.416l-15.771-16.844l-0.12,9.317c0,0,2.745,1.792,4.662,2.988
		c-5.379,1.072-6.573,6.092-6.573,6.092l2.631,2.151l-0.6,0.596l-4.06,24.016l-13.619-0.12l-0.216,5.375l-0.612,0.128
		c0,0,0,0.324,0,0.484c4.098,0.034,9.137,2.686,9.985,3.43c0.844,0.74,1.161,1.589-1.236,1.597
		c-0.588-0.084-1.237-0.263-1.833-0.612c-1.701-1.005-2.701-0.402-4.302-0.502c-1.601-0.101-2.701-1.799-3.998-2.502
		c-1.3-0.698-2.701-1.298-4.302,1.003c-1.601,2.301-2.301,4.002-5.999,3.102c-3.702-0.904-7.404-1.901-8.904-0.801
		c-1.5,1.099-2.497,3.397-4.498,2.897s-5.203-0.296-7.9-1.997c-2.701-1.702-4.902-0.402-6.803,0c-1.901,0.398-7-0.3-10.201-0.702
		c-3.197-0.402-4.302-2.399-7.099-3.001c-2.801-0.599-7.3-0.198-10.901,1.2s-5.803,2.499-7.404,1.999
		C7.965,170.997,10.271,173.6,15.169,171.797z M127.777,171.697c3.201-1.499,7.104-0.398,8.404,0.1
		c1.3,0.501-3.798,2.201-8.301,2.401c-0.988,0.044-1.933,0.058-2.821,0.056c-0.228-0.42-0.42-0.9-0.552-1.44
		C125.472,172.615,126.568,172.266,127.777,171.697z M123.695,170.744c-0.464-0.056,2.024-3.758,2.024-3.758
		s2.369-0.288,3.986-0.288C128.378,167.279,123.695,170.744,123.695,170.744z M134.305,164.138l0.02,0.424
		c0.017,0.396-0.292,0.729-0.685,0.744l-4.594,0.2l-0.156-1.856l4.666-0.196C133.952,163.438,134.288,163.741,134.305,164.138z
		 M133.26,161.002c0.396-0.018,0.729,0.29,0.748,0.685l0.017,0.424c0.016,0.395-0.288,0.73-0.685,0.744l-4.498,0.194l-0.152-1.851
		L133.26,161.002z M127.766,165.559l-4.663,0.199l-0.115-1.853l4.626-0.198L127.766,165.559z M127.409,161.252l0.152,1.853
		l-4.614,0.198l-0.116-1.856L127.409,161.252z M100.918,170.979l-2.833-4.336l3.01-0.06l0.924,4.512L100.918,170.979z
		 M105.278,164.817c0,0.396-0.324,0.717-0.721,0.717h-3.363l0.032-1.857h3.331c0.396,0,0.721,0.32,0.721,0.715V164.817z
		 M105.351,162.364c0,0.396-0.32,0.719-0.717,0.719h-3.399l0.036-1.859h3.363c0.396,0,0.717,0.322,0.717,0.717V162.364z
		 M111.153,151.184c0,0.396-0.324,0.716-0.717,0.716h-0.304c-0.396,0-0.717-0.32-0.717-0.716v-2.033c0-0.396,0.32-0.717,0.717-0.717
		h0.304c0.393,0,0.717,0.32,0.717,0.717V151.184z M117.904,134.408c0.448,0.372,0.668,0.743,0.668,0.743l-1.408,3.193l-0.3-3.046
		C116.864,135.299,117.46,134.036,117.904,134.408z M116.939,152.271c0.353-0.05,0.685,0.139,0.745,0.416l0.576,2.682
		c0.06,0.286-0.176,0.559-0.524,0.612c-0.353,0.052-0.685-0.136-0.748-0.418l-0.576-2.682
		C116.352,152.6,116.588,152.326,116.939,152.271z M114.526,139.846c0.284-0.049,0.553,0.14,0.604,0.425l0.465,2.676
		c0.052,0.283-0.137,0.554-0.421,0.604s-0.556-0.142-0.6-0.423l-0.473-2.68C114.055,140.167,114.242,139.896,114.526,139.846z
		 M102.157,133.368c0,0,3.861-7.875,10.324-4.159c-6.835-1.191-8.096,5.942-8.096,5.942L102.157,133.368z M103.941,136.86
		l0.669-0.521l2.973,0.073l-2.156,24.215h-5.277L103.941,136.86z M95.732,161.224h4.258l-0.032,1.859H95.7L95.732,161.224z
		 M95.688,163.677h4.258l-0.032,1.857h-4.262L95.688,163.677z M90.289,161.224h4.162l-0.036,1.859h-4.158L90.289,161.224z
		 M88.933,165.534h-1.881c-0.396,0-0.717-0.32-0.717-0.717v-0.426c0-0.395,0.32-0.715,0.717-0.715h1.917L88.933,165.534z
		 M88.977,163.083h-1.849c-0.396,0-0.72-0.322-0.72-0.719v-0.424c0-0.395,0.324-0.717,0.72-0.717h1.885L88.977,163.083z
		 M90.245,163.677h4.162l-0.036,1.857h-4.158L90.245,163.677z M90.285,166.469l5.895,0.174c0,0,0.98,2.139,1.557,4.046
		C96.12,167.913,90.285,166.469,90.285,166.469z M67.574,171.701c3.802,0.396,8,1.997,12.402,0.498
		c0.084-0.03,0.16-0.054,0.24-0.078c-0.072,0.227-0.124,0.448-0.152,0.669c-0.072,0.686-0.7,1.521-1.721,2.309
		c-2.037,0.612-3.874,1.203-5.471,0.3c-2.297-1.296-1.3-1.5-3.097-1.4c-1.801,0.104-6.503,0.801-7,0.4
		C62.275,173.998,63.776,171.299,67.574,171.701z"/>
	<path fill="#414142" d="M105.238,140.12c-0.288-0.032-0.548,0.173-0.576,0.457l-0.309,2.699c-0.036,0.285,0.168,0.544,0.457,0.578
		c0.283,0.032,0.54-0.172,0.576-0.458l0.312-2.7C105.727,140.41,105.522,140.153,105.238,140.12z"/>
</g>
</svg>
