<?xml version="1.0" encoding="utf-8"?>
<!-- Generator: Adobe Illustrator 16.0.0, SVG Export Plug-In . SVG Version: 6.00 Build 0)  -->
<!DOCTYPE svg PUBLIC "-//W3C//DTD SVG 1.1//EN" "http://www.w3.org/Graphics/SVG/1.1/DTD/svg11.dtd">
<svg version="1.1" id="Layer_1" xmlns="http://www.w3.org/2000/svg" xmlns:xlink="http://www.w3.org/1999/xlink" x="0px" y="0px"
	 width="80px" height="80px" viewBox="0 0 80 80" enable-background="new 0 0 80 80" xml:space="preserve">
<path fill="#2B2B2A" d="M39.608,6.165c-19.039,0-34.475,15.438-34.475,34.476c0,19.039,15.436,34.473,34.475,34.473
	c19.039,0,34.475-15.434,34.475-34.473C74.083,21.604,58.646,6.165,39.608,6.165z M48.734,40.495h-5.969c0,9.54,0,21.29,0,21.29
	h-8.852c0,0,0-11.63,0-21.29h-4.206v-7.517h4.206v-4.87c0-3.486,1.656-8.928,8.932-8.928l6.551,0.024v7.301c0,0-3.983,0-4.758,0
	c-0.775,0-1.873,0.389-1.873,2.046v4.427h6.743L48.734,40.495z"/>
</svg>
