<?xml version="1.0" encoding="utf-8"?>
<!-- Generator: Adobe Illustrator 16.0.0, SVG Export Plug-In . SVG Version: 6.00 Build 0)  -->
<!DOCTYPE svg PUBLIC "-//W3C//DTD SVG 1.1//EN" "http://www.w3.org/Graphics/SVG/1.1/DTD/svg11.dtd">
<svg version="1.1" xmlns="http://www.w3.org/2000/svg" xmlns:xlink="http://www.w3.org/1999/xlink" x="0px" y="0px" width="460px"
	 height="200px" viewBox="0 0 460 200" enable-background="new 0 0 460 200" xml:space="preserve">
<g id="Layer_3">
	<path fill="#3C3C3B" stroke="#FFFFFF" stroke-width="0" stroke-linecap="square" stroke-miterlimit="2" d="M228.261,184.998
		c-66.647-28.438-79.088-81.923-78.271-135.554c27.262-6.452,52.083-32.695,78.271-32.695c25.992-0.328,50.998,26.213,78.248,32.668
		C307.342,103.04,294.894,156.561,228.261,184.998z"/>
	<path fill="#FFFFFF" stroke="#FFFFFF" stroke-width="0" stroke-linecap="square" stroke-miterlimit="2" d="M228.417,178.146
		c-61.219-26.121-72.647-75.249-71.896-124.513c25.041-5.926,47.84-30.032,71.896-30.032c23.875-0.302,46.842,24.078,71.876,30.007
		C301.055,102.863,289.621,152.024,228.417,178.146z"/>
	<path fill="#575756" stroke="#FFFFFF" stroke-width="0" stroke-linecap="square" stroke-miterlimit="2" d="M228.261,176.307
		c-59.763-25.499-70.92-73.459-70.187-121.55c24.445-5.785,46.703-29.318,70.187-29.318c23.306-0.294,45.728,23.506,70.165,29.294
		C299.17,102.816,288.009,150.808,228.261,176.307z"/>
</g>
<g id="Layer_2">
	
		<line fill="none" stroke="#FFFFFF" stroke-width="6.2169" stroke-linecap="round" stroke-miterlimit="2" x1="208.342" y1="68.52" x2="208.342" y2="127.005"/>
	
		<line fill="none" stroke="#FFFFFF" stroke-width="6.2169" stroke-linecap="round" stroke-miterlimit="2" x1="228.262" y1="68.52" x2="228.262" y2="127.005"/>
	
		<line fill="none" stroke="#FFFFFF" stroke-width="6.2169" stroke-linecap="round" stroke-miterlimit="2" x1="248.189" y1="68.52" x2="248.189" y2="127.005"/>
</g>
</svg>
