<?xml version="1.0" encoding="utf-8"?>
<!-- Generator: Adobe Illustrator 16.0.0, SVG Export Plug-In . SVG Version: 6.00 Build 0)  -->
<!DOCTYPE svg PUBLIC "-//W3C//DTD SVG 1.1//EN" "http://www.w3.org/Graphics/SVG/1.1/DTD/svg11.dtd">
<svg version="1.1" id="Layer_3" xmlns="http://www.w3.org/2000/svg" xmlns:xlink="http://www.w3.org/1999/xlink" x="0px" y="0px"
	 width="250px" height="250px" viewBox="0 0 250 250" enable-background="new 0 0 250 250" xml:space="preserve">
<path fill="#FFFFFF" d="M126.005,26.208c-55.386,0-100.291,44.904-100.291,100.287c0,55.39,44.904,100.294,100.291,100.294
	c55.389,0,100.299-44.904,100.299-100.294C226.304,71.112,181.394,26.208,126.005,26.208z"/>
<path fill="#454548" d="M173.021,80.025H78.992c-4.496,0.013-8.135,3.644-8.146,8.142v66.059c0.01,4.498,3.65,8.136,8.146,8.148
	h37.359v1.358c0,0.712-0.277,1.827-0.617,2.494l-9.288,3.414c-0.83,0.387-2.325,0.699-3.32,0.699h-1.858
	c-0.993,0-1.809,0.582-1.809,1.286v0.06c0,0.705,0.815,1.287,1.809,1.287h49.479c0.996,0,1.809-0.582,1.809-1.287v-0.06
	c0-0.704-0.383-1.286-0.839-1.286c-0.472,0-1.655-0.085-2.642-0.188l-11.966-4.447c-0.842-0.379-1.531-1.26-1.531-1.972v-1.358
	h37.443c4.497-0.013,8.136-3.65,8.149-8.148V88.167C181.157,83.669,177.519,80.039,173.021,80.025z M161.498,156.812
	c-0.536,0-0.974-0.652-0.974-1.462c0-0.804,0.438-1.463,0.974-1.463c0.535,0,0.973,0.659,0.973,1.463
	C162.471,156.159,162.033,156.812,161.498,156.812z M170.662,156.812H166.8c-0.996,0-1.809-0.652-1.809-1.462
	c0-0.804,0.813-1.463,1.809-1.463h3.862c1.002,0,1.812,0.659,1.812,1.463C172.474,156.159,171.664,156.812,170.662,156.812z
	 M173.616,146.495c-0.01,1.443-1.228,2.657-2.673,2.664H81.075c-1.453-0.007-2.67-1.221-2.67-2.664V89.957
	c0-1.449,1.218-2.664,2.67-2.67h89.869c1.445,0.006,2.663,1.221,2.673,2.67V146.495z M150.188,139.515
	c0,0.68-0.546,1.228-1.222,1.228h-45.913c-0.322,0-0.636-0.13-0.868-0.358c-0.229-0.229-0.356-0.549-0.356-0.869V97.812
	c0-0.679,0.545-1.228,1.224-1.228c0.677,0,1.225,0.548,1.225,1.228v17.721h1.453c0.248,0,0.446,0.464,0.446,1.025
	c0,0.555-0.198,1.019-0.446,1.019h-1.453v20.716h7.237c-0.124-0.273-0.198-0.567-0.198-0.875v-16.08
	c0-1.156,0.946-2.096,2.102-2.096h3.145c1.152,0,2.102,0.94,2.102,2.096v16.08c0,0.308-0.074,0.602-0.201,0.875h6.365
	c-0.124-0.273-0.195-0.567-0.195-0.875V102.67c0-1.156,0.947-2.103,2.103-2.103h3.138c1.155,0,2.106,0.947,2.106,2.103v34.748
	c0,0.308-0.073,0.602-0.2,0.875h6.363c-0.124-0.273-0.199-0.567-0.199-0.875v-25.567c0-1.156,0.949-2.103,2.105-2.103h3.141
	c1.152,0,2.104,0.947,2.104,2.103v25.567c0,0.308-0.073,0.602-0.2,0.875h3.872C149.643,138.293,150.188,138.842,150.188,139.515z"/>
</svg>
