<?xml version="1.0" encoding="utf-8"?>
<!-- Generator: Adobe Illustrator 16.0.0, SVG Export Plug-In . SVG Version: 6.00 Build 0)  -->
<!DOCTYPE svg PUBLIC "-//W3C//DTD SVG 1.1//EN" "http://www.w3.org/Graphics/SVG/1.1/DTD/svg11.dtd">
<svg version="1.1" id="Layer_1" xmlns="http://www.w3.org/2000/svg" xmlns:xlink="http://www.w3.org/1999/xlink" x="0px" y="0px"
	 width="300px" height="300px" viewBox="0 0 300 300" enable-background="new 0 0 300 300" xml:space="preserve">
<path fill="#FFFFFF" d="M207.774,105.496h41.739c5.607,12.449,8.949,26.09,9.512,40.468h-47.897
	C210.935,130.771,209.683,117.348,207.774,105.496z M189.532,48.246c23.955,9.326,43.603,26.945,55.924,49.177h-39.034
	C202.007,74.773,195.233,58.666,189.532,48.246L189.532,48.246z M154.587,97.423V40.948c8.604,0.368,16.955,1.737,24.95,3.977
	c6.058,10.202,13.859,27.223,18.799,52.498H154.587z M101.466,194.514c-1.87-11.842-3.181-25.175-3.394-40.447h48.435v40.447
	H101.466z M101.386,105.496h45.121v40.468H98.019C98.231,130.741,99.497,117.368,101.386,105.496z M121.65,44.753
	c7.96-2.145,16.272-3.533,24.856-3.805v56.475h-43.781C107.697,72.009,115.565,54.918,121.65,44.753z M54.431,97.423
	c12.514-22.59,32.785-40.308,57.276-49.482c-5.772,10.407-12.574,26.583-17.061,49.482H54.431z M89.947,145.964H41.034
	c0.524-14.377,3.738-28.04,9.326-40.468h42.926C91.392,117.368,90.146,130.771,89.947,145.964z M93.406,194.514H50.699
	c-5.628-12.447-9.193-26.03-9.724-40.447h48.984C90.185,169.339,91.47,182.633,93.406,194.514z M94.705,202.628
	c4.521,23.115,11.429,39.272,17.221,49.554c-24.564-9.157-44.841-26.904-57.389-49.554H94.705z M146.507,202.628v56.424
	c-8.518-0.249-16.711-1.61-24.584-3.698c-6.099-9.982-14.026-27.153-19.037-52.726H146.507z M198.177,202.628
	c-4.959,25.423-12.848,42.523-18.906,52.517c-7.914,2.197-16.186,3.38-24.684,3.778v-56.295H198.177L198.177,202.628z
	 M154.587,154.066h48.435c-0.198,15.272-1.545,28.566-3.428,40.447h-45.007V154.066z M203.054,145.964h-48.467v-40.468h45.094
	C201.57,117.368,202.842,130.741,203.054,145.964z M211.101,154.066h47.846c-0.544,14.397-4.097,28-9.665,40.447h-41.587
	C209.584,182.633,210.896,169.339,211.101,154.066z M245.384,202.628c-12.263,22.321-32.016,39.909-56.051,49.215
	c5.774-10.3,12.581-26.348,17.021-49.215H245.384z"/>
</svg>
