<?xml version="1.0" encoding="utf-8"?>
<!-- Generator: Adobe Illustrator 16.0.0, SVG Export Plug-In . SVG Version: 6.00 Build 0)  -->
<!DOCTYPE svg PUBLIC "-//W3C//DTD SVG 1.1//EN" "http://www.w3.org/Graphics/SVG/1.1/DTD/svg11.dtd">
<svg version="1.1" id="Слой_1" xmlns="http://www.w3.org/2000/svg" xmlns:xlink="http://www.w3.org/1999/xlink" x="0px" y="0px"
	 width="460px" height="200px" viewBox="0 0 460 200" enable-background="new 0 0 460 200" xml:space="preserve">
<g id="Layer_3">
	<path fill="#3C3C3B" d="M228.263,195.383c-74.875-31.947-88.852-92.035-87.934-152.288c30.627-7.248,58.513-36.73,87.933-36.73
		c29.2-0.369,57.294,29.448,87.907,36.7C317.106,103.309,303.122,163.436,228.263,195.383z"/>
	<path fill="#FFFFFF" d="M228.438,187.686c-68.776-29.346-81.615-84.539-80.771-139.884c28.133-6.657,53.745-33.739,80.771-33.739
		c26.822-0.34,52.624,27.05,80.749,33.711C310.042,103.109,297.197,158.339,228.438,187.686z"/>
	<path fill="#575756" d="M228.263,185.619c-67.141-28.646-79.675-82.527-78.852-136.554c27.462-6.5,52.468-32.938,78.852-32.938
		c26.182-0.33,51.372,26.408,78.825,32.91C307.925,103.058,295.386,156.973,228.263,185.619z"/>
</g>
<g id="Layer_2">
	
		<line fill="none" stroke="#FFFFFF" stroke-width="6.2169" stroke-linecap="round" stroke-miterlimit="2" x1="205.884" y1="64.526" x2="205.884" y2="130.231"/>
	
		<line fill="none" stroke="#FFFFFF" stroke-width="6.2169" stroke-linecap="round" stroke-miterlimit="2" x1="228.263" y1="64.526" x2="228.263" y2="130.231"/>
	
		<line fill="none" stroke="#FFFFFF" stroke-width="6.2169" stroke-linecap="round" stroke-miterlimit="2" x1="250.651" y1="64.526" x2="250.651" y2="130.231"/>
</g>
</svg>
