<?xml version="1.0" encoding="utf-8"?>
<!-- Generator: Adobe Illustrator 16.0.4, SVG Export Plug-In . SVG Version: 6.00 Build 0)  -->
<!DOCTYPE svg PUBLIC "-//W3C//DTD SVG 1.1//EN" "http://www.w3.org/Graphics/SVG/1.1/DTD/svg11.dtd" [
	<!ENTITY ns_flows "http://ns.adobe.com/Flows/1.0/">
	<!ENTITY ns_extend "http://ns.adobe.com/Extensibility/1.0/">
	<!ENTITY ns_ai "http://ns.adobe.com/AdobeIllustrator/10.0/">
	<!ENTITY ns_graphs "http://ns.adobe.com/Graphs/1.0/">
]>
<svg version="1.1" id="Layer_1_copy" xmlns:x="&ns_extend;" xmlns:i="&ns_ai;" xmlns:graph="&ns_graphs;"
	 xmlns="http://www.w3.org/2000/svg" xmlns:xlink="http://www.w3.org/1999/xlink" xmlns:a="http://ns.adobe.com/AdobeSVGViewerExtensions/3.0/"
	 x="0px" y="0px" width="150px" height="150px" viewBox="0 0 150 150" enable-background="new 0 0 150 150" xml:space="preserve">
<path fill="#00A19B" d="M137.958,14.763h-17.066V6.167c-0.004-2.325-1.886-4.21-4.215-4.214h-8.949
	c-2.32,0.009-4.202,1.889-4.205,4.214v8.597H47.01V6.167c-0.005-2.325-1.887-4.208-4.216-4.211h-8.946
	c-2.327,0.003-4.205,1.886-4.212,4.211v8.597H12.574c-2.329,0.004-4.204,1.891-4.207,4.212l-0.004,28.63v58.518l0.48,0.481
	l41.021,41.016l0.941,0.942h87.152c2.313-0.008,4.198-1.884,4.204-4.213V18.975C142.156,16.654,140.278,14.77,137.958,14.763z
	 M107.728,37.987h8.949c1.43-0.003,2.681-0.717,3.442-1.799c-0.968,3.473-4.14,6.021-7.915,6.027
	c-3.798-0.006-6.979-2.569-7.935-6.056C105.027,37.257,106.292,37.981,107.728,37.987z M105.968,6.167
	c0-0.965,0.804-1.765,1.76-1.768h8.949c0.966,0.003,1.77,0.803,1.77,1.768v8.597l0,0v13.862v0.003v5.147
	c0,0.958-0.798,1.76-1.77,1.764h-8.949c-0.956-0.004-1.76-0.806-1.76-1.764V6.167z M33.848,37.987h8.946
	c1.396-0.004,2.625-0.69,3.393-1.735c-0.987,3.44-4.144,5.958-7.898,5.964c-3.818-0.006-7.019-2.604-7.952-6.128
	C31.09,37.227,32.378,37.981,33.848,37.987z M32.084,6.167c0-0.964,0.803-1.767,1.764-1.767h8.946c0.968,0,1.77,0.807,1.77,1.767
	V33.78c0,0.951-0.802,1.758-1.77,1.758h-8.946c-0.961,0-1.764-0.803-1.764-1.758V6.167z M18.831,113.129l-6.266-6.267h29.857
	l5.975,0.001c0.956,0,1.759,0.803,1.764,1.76v35.829L18.831,113.129z M139.717,144.35c0,0.967-0.803,1.764-1.759,1.764H52.603
	v-37.49c0-0.833-0.252-1.605-0.672-2.261c-0.02-0.026-0.028-0.061-0.047-0.089c-0.04-0.056-0.093-0.101-0.132-0.157
	c-0.767-1.023-1.977-1.696-3.354-1.7H10.81l0.002-54.366h128.905V144.35z M10.81,47.605l0.002-28.63
	c0-0.959,0.805-1.766,1.763-1.766h17.059v10.536c-1.269,1.752-2.025,3.912-2.025,6.243c0,5.895,4.782,10.674,10.681,10.674
	c5.892,0,10.669-4.779,10.669-10.674c0-2.284-0.726-4.404-1.947-6.138V17.209h56.508v10.575c-1.25,1.745-1.995,3.892-1.995,6.204
	c0,5.895,4.777,10.674,10.682,10.674c5.889,0,10.673-4.779,10.673-10.674c0-2.308-0.741-4.443-1.982-6.185V17.209h17.063
	c0.95,0,1.759,0.807,1.759,1.766v28.63H10.81z"/>
</svg>
