<?xml version="1.0" encoding="utf-8"?>
<!-- Generator: Adobe Illustrator 16.0.4, SVG Export Plug-In . SVG Version: 6.00 Build 0)  -->
<!DOCTYPE svg PUBLIC "-//W3C//DTD SVG 1.1//EN" "http://www.w3.org/Graphics/SVG/1.1/DTD/svg11.dtd" [
	<!ENTITY ns_flows "http://ns.adobe.com/Flows/1.0/">
	<!ENTITY ns_extend "http://ns.adobe.com/Extensibility/1.0/">
	<!ENTITY ns_ai "http://ns.adobe.com/AdobeIllustrator/10.0/">
	<!ENTITY ns_graphs "http://ns.adobe.com/Graphs/1.0/">
]>
<svg version="1.1" id="Layer_1" xmlns:x="&ns_extend;" xmlns:i="&ns_ai;" xmlns:graph="&ns_graphs;"
	 xmlns="http://www.w3.org/2000/svg" xmlns:xlink="http://www.w3.org/1999/xlink" xmlns:a="http://ns.adobe.com/AdobeSVGViewerExtensions/3.0/"
	 x="0px" y="0px" width="150px" height="150px" viewBox="0 0 150 150" enable-background="new 0 0 150 150" xml:space="preserve">
<path d="M129.78,22.654h-14.84v-7.475c-0.004-2.022-1.64-3.661-3.665-3.664h-7.782c-2.018,0.007-3.654,1.642-3.656,3.664v7.475
	H50.695v-7.475c-0.004-2.022-1.641-3.659-3.666-3.662H39.25c-2.023,0.003-3.656,1.64-3.662,3.662v7.475H20.751
	c-2.025,0.003-3.656,1.644-3.658,3.663l-0.004,24.896v50.885l0.418,0.418l35.67,35.666l0.818,0.819h75.785
	c2.012-0.007,3.651-1.638,3.656-3.663V26.316C133.432,24.298,131.798,22.66,129.78,22.654z M103.493,42.848h7.782
	c1.243-0.002,2.331-0.623,2.993-1.563c-0.842,3.019-3.6,5.236-6.883,5.241c-3.303-0.005-6.068-2.234-6.899-5.266
	C101.146,42.214,102.245,42.844,103.493,42.848z M101.963,15.179c0-0.839,0.699-1.534,1.53-1.537h7.782
	c0.84,0.003,1.538,0.698,1.538,1.537v7.475l0,0v12.054v0.002v4.476c0,0.833-0.693,1.531-1.538,1.534h-7.782
	c-0.831-0.003-1.53-0.701-1.53-1.534V15.179z M39.25,42.848h7.779c1.215-0.003,2.283-0.6,2.95-1.508
	c-0.858,2.991-3.603,5.181-6.868,5.186c-3.32-0.005-6.103-2.265-6.915-5.329C36.852,42.188,37.972,42.844,39.25,42.848z
	 M37.716,15.179c0-0.838,0.698-1.536,1.533-1.536h7.779c0.842,0,1.539,0.701,1.539,1.536V39.19c0,0.828-0.697,1.529-1.539,1.529
	H39.25c-0.835,0-1.533-0.698-1.533-1.529V15.179z M26.192,108.189l-5.448-5.449h25.963l5.195,0.001c0.831,0,1.529,0.698,1.533,1.53
	v31.155L26.192,108.189z M131.31,135.338c0,0.841-0.697,1.533-1.529,1.533H55.558v-32.6c0-0.725-0.219-1.396-0.584-1.966
	c-0.017-0.023-0.024-0.053-0.041-0.077c-0.034-0.049-0.08-0.088-0.114-0.137c-0.667-0.891-1.719-1.476-2.917-1.479H19.216
	l0.002-47.274H131.31V135.338z M19.216,51.212l0.002-24.896c0-0.833,0.7-1.535,1.533-1.535h14.833v9.162
	c-1.103,1.524-1.761,3.402-1.761,5.429c0,5.125,4.158,9.281,9.287,9.281c5.123,0,9.277-4.156,9.277-9.281
	c0-1.986-0.631-3.83-1.693-5.337v-9.254h49.137v9.196c-1.087,1.518-1.734,3.384-1.734,5.395c0,5.125,4.154,9.281,9.288,9.281
	c5.121,0,9.281-4.156,9.281-9.281c0-2.006-0.645-3.864-1.725-5.378v-9.212h14.838c0.826,0,1.529,0.702,1.529,1.535v24.896H19.216z"
	/>
</svg>
