<?xml version="1.0" encoding="utf-8"?>
<!-- Generator: Adobe Illustrator 16.0.4, SVG Export Plug-In . SVG Version: 6.00 Build 0)  -->
<!DOCTYPE svg PUBLIC "-//W3C//DTD SVG 1.1//EN" "http://www.w3.org/Graphics/SVG/1.1/DTD/svg11.dtd" [
	<!ENTITY ns_flows "http://ns.adobe.com/Flows/1.0/">
	<!ENTITY ns_extend "http://ns.adobe.com/Extensibility/1.0/">
	<!ENTITY ns_ai "http://ns.adobe.com/AdobeIllustrator/10.0/">
	<!ENTITY ns_graphs "http://ns.adobe.com/Graphs/1.0/">
]>
<svg version="1.1" id="Layer_1" xmlns:x="&ns_extend;" xmlns:i="&ns_ai;" xmlns:graph="&ns_graphs;"
	 xmlns="http://www.w3.org/2000/svg" xmlns:xlink="http://www.w3.org/1999/xlink" xmlns:a="http://ns.adobe.com/AdobeSVGViewerExtensions/3.0/"
	 x="0px" y="0px" width="36px" height="80px" viewBox="0 0 80 180" enable-background="new 0 0 80 80" xml:space="preserve">
<path fill="#FFFFFF" d="M57.486,33.689c0.017,0.373,0.024,0.748,0.024,1.124c0,11.481-8.739,24.72-24.719,24.72
	c-4.906,0-9.474-1.438-13.319-3.903c0.681,0.079,1.372,0.12,2.072,0.12c4.071,0,7.817-1.389,10.791-3.719
	c-3.802-0.071-7.01-2.582-8.115-6.033c0.529,0.103,1.073,0.156,1.635,0.156c0.793,0,1.56-0.105,2.289-0.306
	c-3.976-0.798-6.971-4.311-6.971-8.518c0-0.038,0-0.073,0.001-0.11c1.172,0.65,2.512,1.042,3.936,1.088
	c-2.331-1.561-3.865-4.218-3.865-7.232c0-1.593,0.429-3.085,1.177-4.368c4.284,5.257,10.687,8.715,17.907,9.077
	c-0.147-0.636-0.225-1.299-0.225-1.979c0-4.798,3.891-8.688,8.688-8.688c2.5,0,4.757,1.056,6.342,2.743
	c1.98-0.389,3.839-1.113,5.518-2.108c-0.649,2.03-2.027,3.732-3.821,4.807c1.758-0.21,3.433-0.678,4.99-1.368
	C60.658,30.933,59.183,32.464,57.486,33.689z"/>
</svg>
