<?xml version="1.0" encoding="utf-8"?>
<!-- Generator: Adobe Illustrator 16.0.4, SVG Export Plug-In . SVG Version: 6.00 Build 0)  -->
<!DOCTYPE svg PUBLIC "-//W3C//DTD SVG 1.1//EN" "http://www.w3.org/Graphics/SVG/1.1/DTD/svg11.dtd" [
	<!ENTITY ns_flows "http://ns.adobe.com/Flows/1.0/">
	<!ENTITY ns_extend "http://ns.adobe.com/Extensibility/1.0/">
	<!ENTITY ns_ai "http://ns.adobe.com/AdobeIllustrator/10.0/">
	<!ENTITY ns_graphs "http://ns.adobe.com/Graphs/1.0/">
]>
<svg version="1.1" id="Layer_1" xmlns:x="&ns_extend;" xmlns:i="&ns_ai;" xmlns:graph="&ns_graphs;"
	 xmlns="http://www.w3.org/2000/svg" xmlns:xlink="http://www.w3.org/1999/xlink" xmlns:a="http://ns.adobe.com/AdobeSVGViewerExtensions/3.0/"
	 x="0px" y="0px" width="80px" height="80px" viewBox="0 0 80 80" enable-background="new 0 0 80 80" xml:space="preserve">
<g>
	<path fill="#FFFFFF" d="M36.822,59.535c-1.374,0.396-2.857,0.599-4.416,0.599c-1.732,0-3.402-0.199-4.955-0.594
		c-3.011-0.759-5.237-2.199-6.274-4.054c-0.446-0.802-0.675-1.656-0.675-2.543c0-0.913,0.22-1.837,0.649-2.752
		c1.65-3.515,5.996-5.876,10.811-5.876c0.049,0,0.094,0,0.139-0.001c-0.392-0.688-0.582-1.401-0.582-2.151
		c0-0.376,0.049-0.756,0.147-1.142c-5.05-0.117-8.829-3.814-8.829-8.689c0-3.444,2.752-6.796,6.687-8.154
		c1.179-0.405,2.381-0.613,3.562-0.613h10.798c0.367,0,0.691,0.237,0.807,0.588c0.117,0.352-0.012,0.734-0.311,0.95l-2.412,1.747
		c-0.146,0.105-0.32,0.161-0.502,0.161h-0.863c1.117,1.339,1.771,3.243,1.771,5.389c0,2.366-1.197,4.604-3.374,6.308
		c-1.684,1.31-1.75,1.668-1.75,2.42c0.021,0.412,1.194,1.753,2.485,2.666c3.013,2.132,4.132,4.22,4.132,7.71
		C43.867,55.141,41.102,58.292,36.822,59.535z M33.539,38.229c0.881,0,1.623-0.347,2.197-1.003c0.902-1.027,1.3-2.712,1.065-4.503
		c-0.422-3.2-2.705-5.858-5.092-5.929l-0.096-0.002c-0.845,0-1.599,0.346-2.173,1.002c-0.89,1.015-1.265,2.62-1.029,4.405
		c0.419,3.196,2.75,5.958,5.088,6.029H33.539z M36.143,47.869c-0.233-0.159-0.479-0.326-0.729-0.498
		c-0.737-0.226-1.518-0.345-2.317-0.354h-0.1c-3.675,0-6.9,2.228-6.9,4.768c0,2.761,2.761,4.925,6.288,4.925
		c4.65,0,7.008-1.603,7.008-4.766c0-0.3-0.037-0.608-0.108-0.918C38.97,49.795,37.845,49.029,36.143,47.869z"/>
	<path fill="#FFFFFF" d="M61.213,41.011c0,0.469-0.383,0.85-0.85,0.85h-6.137v6.139c0,0.469-0.381,0.849-0.85,0.849h-1.748
		c-0.471,0-0.85-0.38-0.85-0.849V41.86h-6.139c-0.467,0-0.848-0.381-0.848-0.85v-1.748c0-0.468,0.381-0.851,0.848-0.851h6.139
		v-6.136c0-0.471,0.379-0.851,0.85-0.851h1.748c0.469,0,0.85,0.38,0.85,0.851v6.136h6.137c0.467,0,0.85,0.383,0.85,0.851V41.011z"/>
</g>
</svg>
