<?xml version="1.0" encoding="utf-8"?>
<!-- Generator: Adobe Illustrator 16.0.0, SVG Export Plug-In . SVG Version: 6.00 Build 0)  -->
<!DOCTYPE svg PUBLIC "-//W3C//DTD SVG 1.1//EN" "http://www.w3.org/Graphics/SVG/1.1/DTD/svg11.dtd">
<svg version="1.1" id="Layer_1" xmlns="http://www.w3.org/2000/svg" xmlns:xlink="http://www.w3.org/1999/xlink" x="0px" y="0px"
	 width="150px" height="150px" viewBox="75 75 150 150" enable-background="new 75 75 150 150" xml:space="preserve">
<path fill="#FFFFFF" d="M192.28,145.788c-1.413,0-4.851,1.581-7.294,2.81h-5.578c-0.332-7.149-3.205-13.604-7.737-18.534
	l3.688-3.686c2.615-0.853,6.459-2.246,7.525-3.302c1.642-1.644,1.642-4.306,0-5.952c-1.651-1.641-4.312-1.641-5.962,0
	c-1.007,1-2.319,4.555-3.178,7.151l-3.936,3.936c-4.959-4.507-11.433-7.333-18.581-7.628v-5.214c1.24-2.453,2.983-6.16,2.983-7.656
	c0-2.324-1.893-4.208-4.21-4.208c-2.328,0-4.218,1.884-4.218,4.208c0,1.422,1.586,4.857,2.813,7.303v5.582
	c-7.146,0.332-13.606,3.199-18.53,7.725l-3.688-3.679c-0.853-2.616-2.241-6.466-3.299-7.527c-1.644-1.641-4.315-1.641-5.961,0
	c-1.639,1.648-1.639,4.311,0,5.953c1.009,1.019,4.564,2.328,7.153,3.179l3.94,3.954c-4.468,4.905-7.283,11.316-7.622,18.391h-5.574
	c-2.446-1.231-5.872-2.803-7.292-2.803c-2.337,0-4.223,1.883-4.223,4.209c0,2.328,1.886,4.21,4.223,4.21
	c1.482,0,5.187-1.739,7.644-2.982h5.221c0.291,7.149,3.124,13.625,7.622,18.569l-3.93,3.938c-2.598,0.856-6.146,2.171-7.155,3.19
	c-1.646,1.647-1.646,4.31,0,5.947c1.646,1.65,4.311,1.65,5.954,0c1.058-1.056,2.446-4.896,3.306-7.516l3.681-3.689
	c4.934,4.527,11.393,7.4,18.53,7.737v5.573c-1.227,2.439-2.813,5.883-2.813,7.31c0,2.318,1.891,4.21,4.218,4.21
	c2.324,0,4.215-1.892,4.215-4.21c0-1.494-1.749-5.209-2.988-7.659v-5.21c7.148-0.299,13.629-3.13,18.58-7.626l3.936,3.93
	c0.869,2.599,2.171,6.149,3.179,7.149c1.65,1.65,4.31,1.65,5.962,0c1.641-1.637,1.641-4.3,0-5.947
	c-1.062-1.065-4.911-2.457-7.525-3.311l-3.688-3.68c4.576-4.972,7.452-11.493,7.75-18.707h5.21c2.46,1.247,6.165,2.981,7.662,2.981
	c2.324,0,4.205-1.882,4.205-4.209C196.499,147.67,194.613,145.788,192.28,145.788z M132.18,134.16l9.971,9.981
	c-0.955,1.273-1.591,2.796-1.84,4.449h-14.104C126.534,143.066,128.724,138.055,132.18,134.16z M126.193,151.225h14.103
	c0.221,1.729,0.867,3.309,1.858,4.635l-9.975,9.971C128.692,161.906,126.481,156.824,126.193,151.225z M148.596,173.783
	c-5.593-0.316-10.655-2.561-14.563-6.096l9.966-9.962c1.31,1.017,2.872,1.704,4.597,1.949V173.783z M148.596,140.31
	c-1.725,0.251-3.288,0.936-4.597,1.953l-9.966-9.961c3.908-3.525,8.97-5.768,14.563-6.095V140.31z M173.797,148.597h-14.112
	c-0.255-1.722-0.938-3.29-1.95-4.599l9.967-9.966C171.227,137.94,173.467,143.002,173.797,148.597z M165.834,132.177l-9.977,9.972
	c-1.326-0.993-2.902-1.644-4.629-1.851v-14.097C156.825,126.482,161.906,128.687,165.834,132.177z M151.229,173.787v-14.094
	c1.727-0.211,3.303-0.861,4.629-1.85l9.977,9.973C161.906,171.309,156.825,173.508,151.229,173.787z M167.701,165.954l-9.967-9.964
	c1.05-1.351,1.737-2.98,1.971-4.766h14.096C173.52,156.89,171.266,162.011,167.701,165.954z"/>
</svg>
