<?xml version="1.0" encoding="utf-8"?>
<!-- Generator: Adobe Illustrator 16.0.0, SVG Export Plug-In . SVG Version: 6.00 Build 0)  -->
<!DOCTYPE svg PUBLIC "-//W3C//DTD SVG 1.1//EN" "http://www.w3.org/Graphics/SVG/1.1/DTD/svg11.dtd">
<svg version="1.1" id="Layer_1" xmlns="http://www.w3.org/2000/svg" xmlns:xlink="http://www.w3.org/1999/xlink" x="0px" y="0px"
	 width="150px" height="150px" viewBox="75 75 150 150" enable-background="new 75 75 150 150" xml:space="preserve">
<path fill="#FFFFFF" d="M189.663,192.241h-79.319c-2.267,0-4.104-2.101-4.104-4.692v-75.057c0-2.587,1.837-4.693,4.104-4.693
	s4.099,2.106,4.099,4.693v59.421v10.945h75.22c2.267,0,4.099,2.103,4.099,4.69C193.762,190.142,191.93,192.241,189.663,192.241
	 M180.087,178.169h-8.212c-2.258,0-4.1-2.101-4.1-4.692v-32.839c0-2.589,1.842-4.693,4.1-4.693h8.212c2.269,0,4.1,2.103,4.1,4.693
	v32.839C184.187,176.068,182.355,178.169,180.087,178.169 M156.84,178.169h-8.208c-2.267,0-4.099-2.101-4.099-4.692v-51.602
	c0-2.593,1.832-4.689,4.099-4.689h8.208c2.257,0,4.099,2.097,4.099,4.689v51.602C160.938,176.068,159.097,178.169,156.84,178.169
	 M133.587,178.169h-8.204c-2.267,0-4.099-2.101-4.099-4.692v-9.384c0-2.592,1.832-4.689,4.099-4.689h8.203
	c2.267,0,4.109,2.098,4.109,4.689v9.384C137.695,176.068,135.854,178.169,133.587,178.169"/>
</svg>
