<?xml version="1.0" encoding="utf-8"?>
<!-- Generator: Adobe Illustrator 16.0.0, SVG Export Plug-In . SVG Version: 6.00 Build 0)  -->
<!DOCTYPE svg PUBLIC "-//W3C//DTD SVG 1.1//EN" "http://www.w3.org/Graphics/SVG/1.1/DTD/svg11.dtd">
<svg version="1.1" id="Layer_1" xmlns="http://www.w3.org/2000/svg" xmlns:xlink="http://www.w3.org/1999/xlink" x="0px" y="0px"
	 width="150px" height="150px" viewBox="75 74.985 150 150" enable-background="new 75 74.985 150 150" xml:space="preserve">
<path fill="#FFFFFF" d="M172.801,132.422h16.471c2.213,4.912,3.531,10.295,3.754,15.97h-18.901
	C174.048,142.396,173.553,137.1,172.801,132.422z M165.601,109.829c9.453,3.681,17.207,10.634,22.069,19.407h-15.403
	C170.524,120.298,167.85,113.941,165.601,109.829L165.601,109.829z M151.81,129.236v-22.287c3.397,0.145,6.691,0.685,9.848,1.57
	c2.391,4.025,5.469,10.743,7.418,20.717H151.81z M130.847,167.551c-0.737-4.673-1.255-9.934-1.339-15.96h19.114v15.96H130.847z
	 M130.815,132.422h17.806v15.97h-19.135C129.57,142.385,130.07,137.107,130.815,132.422z M138.813,108.451
	c3.141-0.846,6.421-1.395,9.809-1.501v22.287h-17.277C133.306,119.207,136.411,112.462,138.813,108.451z M112.286,129.236
	c4.938-8.915,12.938-15.906,22.603-19.527c-2.278,4.107-4.962,10.491-6.732,19.527H112.286z M126.301,148.393h-19.303
	c0.207-5.674,1.476-11.066,3.681-15.97h16.94C126.872,137.107,126.379,142.396,126.301,148.393z M127.667,167.551h-16.854
	c-2.221-4.91-3.628-10.271-3.837-15.96h19.331C126.395,157.617,126.902,162.863,127.667,167.551z M128.179,170.754
	c1.784,9.122,4.51,15.499,6.796,19.556c-9.694-3.613-17.695-10.617-22.647-19.556H128.179z M148.621,170.754v22.267
	c-3.361-0.098-6.594-0.635-9.701-1.46c-2.407-3.938-5.536-10.714-7.513-20.807H148.621z M169.013,170.754
	c-1.957,10.032-5.071,16.781-7.461,20.725c-3.123,0.868-6.387,1.334-9.742,1.491v-22.216H169.013L169.013,170.754z M151.81,151.591
	h19.114c-0.077,6.026-0.608,11.272-1.353,15.96H151.81V151.591z M170.938,148.393H151.81v-15.97h17.798
	C170.351,137.107,170.854,142.385,170.938,148.393z M174.113,151.591h18.881c-0.214,5.681-1.616,11.05-3.813,15.96H172.77
	C173.515,162.863,174.032,157.617,174.113,151.591z M187.643,170.754c-4.84,8.809-12.635,15.75-22.12,19.422
	c2.278-4.065,4.965-10.398,6.717-19.422H187.643z"/>
</svg>
