<?xml version="1.0" encoding="utf-8"?>
<!-- Generator: Adobe Illustrator 16.0.0, SVG Export Plug-In . SVG Version: 6.00 Build 0)  -->
<!DOCTYPE svg PUBLIC "-//W3C//DTD SVG 1.1//EN" "http://www.w3.org/Graphics/SVG/1.1/DTD/svg11.dtd">
<svg version="1.1" id="Layer_1" xmlns="http://www.w3.org/2000/svg" xmlns:xlink="http://www.w3.org/1999/xlink" x="0px" y="0px"
	 width="150px" height="150px" viewBox="75 75 150 150" enable-background="new 75 75 150 150" xml:space="preserve">
<path fill="#FFFFFF" d="M102.954,138.35c0,0,94.036,0,94.172,0c2.278-0.998,2.171-3.125,0.039-4.552
	c-2.121-1.42-47.203-33.956-47.203-33.956s-44.741,32.535-47.008,33.956C100.691,135.225,100.544,137.352,102.954,138.35z
	 M149.962,115.921c3.765,0,6.811,3.037,6.811,6.794c0,3.759-3.046,6.812-6.811,6.812c-3.769,0-6.812-3.052-6.812-6.812
	C143.15,118.958,146.193,115.921,149.962,115.921z M105.3,188.913h89.478v-3.807H105.3V188.913z M124.676,181.14v-34.685h3.804
	v-4.303h-19.454v3.909h3.818v35.08H124.676L124.676,181.14z M155.96,181.14v-34.935h3.813v-3.804H140.32v3.659h3.806v35.07h11.833
	V181.14L155.96,181.14z M101.415,196.7h97.257v-3.564h-97.257V196.7z M187.001,181.14v-34.935h3.811v-3.804h-19.46v3.659h3.816
	v35.07h11.834L187.001,181.14L187.001,181.14z"/>
</svg>
